<?xml version="1.0" encoding="UTF-8"?>
<svg id="Capa_2" data-name="Capa 2" xmlns="http://www.w3.org/2000/svg" viewBox="0 0 48.57 48.57">
  <defs>
    <style>
      .cls-1 {
        fill: #c8ccd5;
      }
    </style>
  </defs>
  <g id="_1" data-name=" 1">
    <g>
      <path class="cls-1" d="M24.28,48.57C10.89,48.57,0,37.67,0,24.28S10.89,0,24.28,0s24.29,10.89,24.29,24.28c0,3.72-.82,7.28-2.43,10.6-.18,.37-.63,.53-1,.35-.37-.18-.53-.63-.35-1,1.51-3.11,2.28-6.46,2.28-9.94C47.07,11.72,36.85,1.5,24.28,1.5S1.5,11.72,1.5,24.28s10.22,22.78,22.78,22.78c2.42,0,4.8-.38,7.08-1.12,.39-.13,.82,.09,.95,.48,.13,.39-.09,.82-.48,.95-2.42,.79-4.96,1.19-7.54,1.19Z"/>
      <path class="cls-1" d="M24.28,48.57c-7.4,0-13.42-10.89-13.42-24.28S16.88,0,24.28,0s13.42,10.89,13.42,24.28c0,2.61-.23,5.18-.67,7.64-.07,.41-.47,.68-.87,.6-.41-.07-.68-.46-.6-.87,.43-2.37,.65-4.85,.65-7.37,0-12.56-5.35-22.78-11.92-22.78S12.36,11.72,12.36,24.28s5.35,22.78,11.92,22.78c.41,0,.75,.34,.75,.75s-.34,.75-.75,.75Z"/>
      <path class="cls-1" d="M24.28,47.19c-.41,0-.75-.34-.75-.75V2.13c0-.41,.34-.75,.75-.75s.75,.34,.75,.75V46.44c0,.41-.34,.75-.75,.75Z"/>
      <path class="cls-1" d="M46.44,25.03H2.13c-.41,0-.75-.34-.75-.75s.34-.75,.75-.75H46.44c.41,0,.75,.34,.75,.75s-.34,.75-.75,.75Z"/>
      <path class="cls-1" d="M43.67,13.96H4.9c-.41,0-.75-.34-.75-.75s.34-.75,.75-.75H43.67c.41,0,.75,.34,.75,.75s-.34,.75-.75,.75Z"/>
      <path class="cls-1" d="M28.44,36.11H4.9c-.41,0-.75-.34-.75-.75s.34-.75,.75-.75H28.44c.41,0,.75,.34,.75,.75s-.34,.75-.75,.75Z"/>
      <path class="cls-1" d="M37.24,46.79c-.05,0-.11,0-.16-.02-.25-.05-.45-.23-.54-.47l-3.96-10.68c-.1-.27-.03-.58,.17-.79,.21-.21,.52-.27,.79-.17l10.68,3.96c.24,.09,.42,.29,.47,.54,.05,.25-.02,.51-.2,.69l-6.72,6.72c-.14,.14-.33,.22-.53,.22Zm-2.69-10.16l2.99,8.05,5.06-5.06-8.05-2.99Z"/>
      <path class="cls-1" d="M37.24,46.79c-.05,0-.11,0-.16-.02-.25-.05-.45-.23-.54-.47l-3.96-10.68c-.1-.27-.03-.58,.17-.79,.21-.21,.52-.27,.79-.17l10.68,3.96c.24,.09,.42,.29,.47,.54,.05,.25-.02,.51-.2,.69l-6.72,6.72c-.14,.14-.33,.22-.53,.22Zm-2.69-10.16l2.99,8.05,5.06-5.06-8.05-2.99Z"/>
      <path class="cls-1" d="M45.74,48.57c-.19,0-.38-.07-.53-.22l-5.14-5.14c-.29-.29-.29-.77,0-1.06s.77-.29,1.06,0l5.14,5.14c.29,.29,.29,.77,0,1.06-.15,.15-.34,.22-.53,.22Z"/>
      <path class="cls-1" d="M45.74,48.57c-.19,0-.38-.07-.53-.22l-5.14-5.14c-.29-.29-.29-.77,0-1.06s.77-.29,1.06,0l5.14,5.14c.29,.29,.29,.77,0,1.06-.15,.15-.34,.22-.53,.22Z"/>
    </g>
  </g>
</svg>