<?xml version="1.0" encoding="UTF-8"?>
<svg id="Capa_2" data-name="Capa 2" xmlns="http://www.w3.org/2000/svg" viewBox="0 0 53.4 48.38">
  <defs>
    <style>
      .cls-1 {
        fill: #c8ccd5;
      }
    </style>
  </defs>
  <g id="_1" data-name=" 1">
    <g>
      <path class="cls-1" d="M18.95,30.12c.49,.09,.98,.03,1.42-.14v1.21c0,1.32,.9,2.44,2.14,2.66,.53,.09,1.06,.03,1.53-.18,.27,.96,1.05,1.71,2.03,1.88,.16,.03,.31,.04,.46,.04,.61,0,1.21-.21,1.68-.61,.41-.34,.7-.8,.84-1.31,.47,.2,.99,.27,1.51,.18,1.24-.22,2.14-1.34,2.14-2.66v-4.68c.53,.28,1.13,.41,1.74,.35,1.59-.14,2.84-1.55,2.84-3.23v-6.9c0-1.59-.6-3.11-1.68-4.28l-1.74-1.86c-.75-.8-1.16-1.85-1.16-2.95v-2.12c.91-.52,1.48-1.49,1.48-2.56,0-1.64-1.33-2.97-2.97-2.97h-11.41c-1.64,0-2.97,1.33-2.97,2.97,0,1.07,.58,2.04,1.48,2.56v1.46c0,1.7-.26,3.4-.76,5.02l-.34,1.09c-.28,.91-.43,1.86-.43,2.81v11.55c0,1.32,.9,2.44,2.14,2.66Zm.87-28.46h11.41c.72,0,1.31,.59,1.31,1.31,0,.53-.33,1-.83,1.2h-2.23c-.46,0-.83,.37-.83,.83s.37,.83,.83,.83h1.58v1.83c0,1.52,.57,2.97,1.61,4.08l1.74,1.86c.8,.86,1.24,1.98,1.24,3.15v6.9c0,.82-.58,1.51-1.33,1.58-.42,.04-.81-.1-1.12-.38-.31-.28-.47-.66-.47-1.08v-6.91c0-.46-.37-.83-.83-.83s-.83,.37-.83,.83v14.34c0,.51-.33,.95-.77,1.03-.29,.05-.57-.02-.79-.21-.22-.18-.34-.45-.34-.73v-8.21c0-.46-.37-.83-.83-.83s-.83,.37-.83,.83v9.9c0,.28-.12,.55-.34,.73-.22,.18-.5,.26-.79,.21-.44-.08-.77-.52-.77-1.03v-9.85c0-.46-.37-.83-.83-.83s-.83,.37-.83,.83v8.25c0,.28-.12,.55-.34,.73-.22,.18-.5,.26-.79,.21-.44-.08-.77-.52-.77-1.03v-8.15c0-.46-.37-.83-.83-.83s-.83,.37-.83,.83v4.52c0,.28-.12,.55-.34,.73-.22,.18-.5,.26-.79,.21-.44-.08-.77-.52-.77-1.03V15.91c0-.79,.12-1.57,.35-2.32l.34-1.09c.24-.78,.42-1.58,.56-2.38h8.61c.46,0,.83-.37,.83-.83s-.37-.83-.83-.83h-8.39c.04-.49,.06-.99,.06-1.48v-1.16h5.13c.46,0,.83-.37,.83-.83s-.37-.83-.83-.83h-5.78c-.5-.2-.83-.66-.83-1.2,0-.72,.59-1.31,1.31-1.31Z"/>
      <path class="cls-1" d="M52.53,35.25c-.76-.76-1.85-1.03-2.86-.76l-1.03-1.03c-1.21-1.21-2.22-2.58-3.01-4.09l-.53-1.01c-.44-.84-1.01-1.61-1.69-2.29l-3.58-3.58c-.32-.32-.85-.32-1.17,0-.32,.32-.32,.85,0,1.17l3.58,3.58c.56,.56,1.03,1.19,1.39,1.89l.53,1.01c.33,.63,.71,1.23,1.11,1.81l-6.33,6.33c-.32,.32-.32,.85,0,1.17,.16,.16,.37,.24,.59,.24s.42-.08,.59-.24l6.16-6.16c.38,.46,.78,.91,1.2,1.34l.82,.82-3.63,3.63c-.32,.32-.32,.85,0,1.17,.16,.16,.37,.24,.59,.24s.42-.08,.59-.24l4.09-4.09c.49-.21,1.05-.12,1.43,.26,.51,.51,.51,1.34,0,1.85l-8.07,8.07c-.5,.5-1.36,.49-1.85,0-.38-.38-.47-.94-.26-1.43l1.58-1.58c.32-.32,.32-.85,0-1.17-.32-.32-.85-.32-1.17,0l-1.12,1.12-1.29-1.29c-1.07-1.07-2.5-1.7-4.02-1.75l-2.55-.09c-1.17-.04-2.27-.52-3.1-1.35l-2.13-2.13c-.32-.32-.85-.32-1.17,0-.32,.32-.32,.85,0,1.17l2.13,2.13c1.13,1.13,2.62,1.78,4.21,1.83l2.55,.09c1.1,.04,2.13,.49,2.91,1.27l1.5,1.5c-.27,1.01,0,2.1,.76,2.86,.56,.56,1.31,.87,2.1,.87s1.54-.31,2.1-.87l8.07-8.07c.56-.56,.87-1.31,.87-2.1s-.31-1.54-.87-2.1Z"/>
      <path class="cls-1" d="M24.61,38.08l-.72,.72c-.83,.83-1.93,1.31-3.1,1.35l-2.55,.09c-1.52,.05-2.95,.68-4.02,1.75l-1.29,1.29-1.11-1.12c-.32-.32-.85-.32-1.17,0-.32,.32-.32,.85,0,1.17l1.58,1.58c.21,.49,.12,1.06-.26,1.43-.49,.49-1.36,.49-1.85,0L2.04,38.28c-.51-.51-.51-1.34,0-1.85,.38-.38,.94-.47,1.43-.26l4.09,4.09c.16,.16,.37,.24,.59,.24s.42-.08,.59-.24c.32-.32,.32-.85,0-1.17l-3.63-3.63,.82-.82c.32-.32,.64-.66,.93-1.01l5.38,5.38c.16,.16,.37,.24,.59,.24s.42-.08,.59-.24c.32-.32,.32-.85,0-1.17l-5.53-5.52c.5-.69,.95-1.41,1.35-2.17l.53-1.01c.37-.7,.84-1.33,1.39-1.89l4.56-4.56c.32-.32,.32-.85,0-1.17-.32-.32-.85-.32-1.17,0l-4.56,4.56c-.68,.67-1.24,1.45-1.69,2.29l-.53,1.01c-.79,1.51-1.81,2.89-3.01,4.09l-1.03,1.03c-1.01-.27-2.1,0-2.86,.76-1.16,1.16-1.16,3.04,0,4.19l8.07,8.07c.56,.56,1.31,.87,2.1,.87s1.54-.31,2.1-.87c.76-.76,1.03-1.85,.76-2.86l1.5-1.5c.78-.78,1.81-1.23,2.91-1.27l2.55-.09c1.59-.06,3.09-.71,4.21-1.83l.72-.72c.32-.32,.32-.85,0-1.17-.32-.32-.85-.32-1.17,0Z"/>
    </g>
  </g>
</svg>