<?xml version="1.0" encoding="UTF-8"?>
<svg id="Capa_2" data-name="Capa 2" xmlns="http://www.w3.org/2000/svg" viewBox="0 0 61.15 46.99">
  <defs>
    <style>
      .cls-1 {
        fill: #c8ccd5;
      }
    </style>
  </defs>
  <g id="_1" data-name=" 1">
    <g id="Capa_2-2" data-name="Capa 2">
      <g id="icon">
        <g>
          <path class="cls-1" d="M15.49,35.57c-.42,0-.81-.3-.92-.73l-.62-2.63c-1.3-.35-2.51-.86-3.64-1.52l-2.33,1.35c-.35,.24-.82,.23-1.16-.04l-3.2-3.19c-.33-.4-.34-.87-.1-1.23l1.37-2.29c-.67-1.14-1.18-2.37-1.53-3.65l-2.64-.71c-.44-.11-.74-.51-.72-.98v-4.4c-.02-.44,.29-.84,.73-.95l2.63-.62c.35-1.3,.86-2.51,1.52-3.64l-1.35-2.3c-.24-.35-.23-.82,.04-1.16l3.17-3.07c.18-.2,.6-.54,1.33-.16l2.22,1.28c1.12-.66,2.34-1.18,3.61-1.52l.66-2.63c.11-.47,.57-.8,1.05-.74h4.39c.44,.02,.84,.29,.95,.74,.12,.5,.48,1.92,.66,2.63,1.27,.34,2.49,.85,3.63,1.52l2.3-1.35c.35-.24,.82-.23,1.16,.04l3.22,3.19c.33,.4,.34,.88,.1,1.23l-1.37,2.3c.67,1.13,1.18,2.36,1.52,3.65l2.62,.66c.45,.12,.75,.52,.74,.98v4.4c.02,.44-.29,.84-.73,.95l-2.63,.66c-.35,1.3-.86,2.52-1.52,3.65l1.36,2.33c.24,.35,.22,.83-.05,1.16l-3.19,3.2c-.4,.33-.87,.34-1.23,.1l-2.3-1.37c-1.14,.67-2.37,1.18-3.65,1.53l-.71,2.64c-.12,.44-.52,.76-.98,.72h-4.4s-.02,0-.03,0Zm3.96-1.12s0,0,0,0h0Zm-3.94-.39s-.01,0-.02,0h.04s-.01,0-.02,0Zm-5.21-4.97c.17,0,.34,.04,.5,.13,1.19,.73,2.47,1.27,3.81,1.6,.32,.05,.62,.33,.72,.69l.6,2.55h3.63l.69-2.55c.1-.36,.4-.64,.77-.7,1.28-.32,2.56-.85,3.73-1.57,.32-.19,.7-.19,1.01-.01l2.29,1.36,2.52-2.53-1.35-2.31c-.18-.31-.18-.69,0-.99,.73-1.2,1.27-2.47,1.6-3.81,.05-.32,.33-.62,.69-.72l2.55-.64v-3.63s-2.54-.64-2.54-.64c-.36-.1-.63-.38-.71-.74-.33-1.33-.86-2.6-1.58-3.77-.19-.32-.19-.7-.01-1.01l1.36-2.29-2.55-2.52-2.28,1.33c-.31,.18-.69,.18-.99,0-1.19-.73-2.47-1.27-3.81-1.6-.35-.09-.62-.36-.71-.71-.1-.41-.44-1.76-.64-2.54h-3.68l-.64,2.54c-.1,.37-.4,.65-.77,.71-1.27,.32-2.53,.86-3.7,1.57-.33,.19-.71,.19-1.01,.01l-2.23-1.29-2.57,2.49,1.33,2.27c.18,.31,.18,.69,0,1-.73,1.19-1.26,2.46-1.59,3.8-.05,.32-.33,.62-.69,.72l-2.55,.6v3.63s2.55,.69,2.55,.69c.36,.09,.64,.4,.7,.77,.32,1.29,.85,2.56,1.57,3.74,.19,.32,.19,.71,0,1.01l-1.36,2.27,2.53,2.52,2.31-1.33c.15-.09,.32-.13,.5-.13Zm9.63,4.97h0Zm-5.71-1.79s.05,.02,.08,.02c-.03,0-.05-.01-.08-.02Zm7.15,0s-.04,0-.05,.01c.02,0,.04,0,.05-.01Zm.32-.37h0s0,0,0,0ZM3.66,21.7s0,0,0,0h0Zm-.37-.37s0,.03,.01,.05c0-.02,0-.04-.01-.05Zm29-.07s-.01,.05-.02,.07c0-.02,.01-.05,.02-.07Zm1.78-1.27s0,.02,0,.03v-.03Zm-32.56-.06v.03s0-.02,0-.03Zm-.39-.47h.01s0,0-.01,0Zm32.95-3.89s0,.02,0,.03v-.03Zm-32.56-.07v.03s0-.02,0-.03Zm30.79-1.19h0Zm-28.99-.08s-.01,.05-.02,.08c0-.03,.01-.05,.02-.08ZM21.7,3.67s0,0,0,0c0,0,0,0,0,0Zm-7.49-.38s-.03,0-.05,.01c.02,0,.03,0,.05-.01Zm5.79-1.79h0Zm-4.59-.02h0Zm.62-.39v.02s0-.01,0-.02Z"/>
          <path class="cls-1" d="M45.28,46.99c-.08,0-.16-.01-.24-.04l-3.43-1.13c-.33-.11-.54-.43-.51-.77l.18-2.13c-.78-.52-1.49-1.13-2.12-1.83l-2.06,.49c-.34,.08-.69-.08-.84-.39l-1.63-3.24c-.15-.31-.08-.68,.18-.91l1.56-1.35c-.19-.92-.25-1.87-.21-2.81l-1.75-1.11c-.29-.18-.42-.54-.31-.87l1.14-3.43c.11-.33,.42-.53,.76-.51l2.07,.14c.52-.78,1.14-1.5,1.83-2.13l-.45-2.02c-.08-.34,.09-.68,.39-.83l3.24-1.63c.31-.15,.68-.08,.9,.18l1.35,1.56c.92-.19,1.87-.26,2.81-.21l1.11-1.75c.18-.29,.54-.42,.87-.31l3.43,1.13c.33,.11,.54,.42,.51,.76l-.14,2.07c.79,.52,1.5,1.14,2.13,1.83l2.02-.46c.34-.07,.68,.09,.83,.39l1.63,3.24c.15,.31,.08,.68-.18,.91l-1.56,1.35c.18,.91,.25,1.83,.21,2.76l1.79,1.11c.29,.18,.43,.54,.32,.87l-1.14,3.43c-.11,.33-.43,.53-.76,.51l-2.07-.14c-.52,.79-1.14,1.5-1.83,2.13l.46,2.02c.08,.33-.08,.67-.39,.83l-3.28,1.7c-.31,.16-.69,.09-.91-.17l-1.35-1.56c-.92,.19-1.86,.25-2.81,.21l-1.11,1.75c-.14,.22-.38,.35-.63,.35Zm-2.64-2.41l2.32,.77,1.03-1.63c.15-.24,.43-.37,.7-.35,1.09,.1,2.17,.02,3.23-.24,.27-.07,.56,.03,.74,.24l1.26,1.45,2.24-1.16-.43-1.89c-.06-.27,.03-.56,.25-.74,.83-.7,1.54-1.52,2.11-2.46,.15-.24,.41-.37,.69-.36l1.93,.13,.77-2.32-1.67-1.04c-.24-.15-.38-.42-.35-.71,.1-1.07,.02-2.14-.24-3.19-.07-.27,.03-.56,.24-.74l1.46-1.26-1.1-2.19-1.88,.42c-.27,.06-.56-.04-.74-.25-.7-.83-1.52-1.54-2.45-2.11-.24-.15-.38-.41-.36-.69l.13-1.93-2.33-.77-1.03,1.63c-.15,.24-.43,.37-.7,.35-1.09-.1-2.17-.02-3.23,.24-.28,.07-.56-.03-.74-.24l-1.26-1.46-2.19,1.11,.42,1.88c.06,.27-.03,.56-.25,.74-.83,.7-1.54,1.52-2.11,2.46-.15,.24-.4,.38-.69,.36l-1.93-.13-.77,2.33,1.63,1.04c.24,.15,.37,.42,.35,.7-.1,1.08-.02,2.17,.24,3.23,.07,.27-.02,.56-.24,.75l-1.46,1.26,1.1,2.18,1.92-.46c.28-.06,.57,.03,.75,.25,.7,.84,1.53,1.55,2.45,2.11,.24,.15,.38,.42,.36,.7l-.16,1.99Z"/>
          <path class="cls-1" d="M17.78,25.63c-4.33,0-7.85-3.52-7.85-7.85s3.52-7.85,7.85-7.85,7.85,3.52,7.85,7.85-3.52,7.85-7.85,7.85Zm0-14.19c-3.5,0-6.35,2.85-6.35,6.35s2.85,6.35,6.35,6.35,6.35-2.85,6.35-6.35-2.85-6.35-6.35-6.35Z"/>
          <path class="cls-1" d="M47.58,38.41c-2.76,0-5.01-2.25-5.01-5.01s2.25-5.01,5.01-5.01,5.01,2.25,5.01,5.01-2.25,5.01-5.01,5.01Zm0-8.52c-1.93,0-3.51,1.57-3.51,3.51s1.57,3.51,3.51,3.51,3.51-1.57,3.51-3.51-1.57-3.51-3.51-3.51Z"/>
        </g>
      </g>
    </g>
  </g>
</svg>