<?xml version="1.0" encoding="UTF-8"?>
<svg id="Capa_2" data-name="Capa 2" xmlns="http://www.w3.org/2000/svg" viewBox="0 0 44.96 49.79">
  <defs>
    <style>
      .cls-1 {
        fill: #c8ccd5;
      }
    </style>
  </defs>
  <g id="_1" data-name=" 1">
    <g id="Capa_2-2" data-name="Capa 2">
      <g id="icon">
        <g>
          <path class="cls-1" d="M28.48,32.89c-3.8,0-7.45-1.3-10.42-3.75-3.39-2.79-5.49-6.74-5.92-11.11C11.27,9.01,17.9,.96,26.93,.08h0c9.03-.88,17.08,5.75,17.96,14.78,.42,4.37-.88,8.65-3.67,12.04-2.79,3.39-6.74,5.49-11.11,5.92-.54,.05-1.08,.08-1.62,.08ZM27.07,1.57h0c-8.2,.8-14.23,8.12-13.43,16.32,.39,3.97,2.3,7.56,5.38,10.09,3.08,2.54,6.97,3.72,10.94,3.33,3.97-.39,7.56-2.3,10.1-5.38s3.72-6.97,3.33-10.94C42.59,6.8,35.27,.78,27.07,1.57Z"/>
          <path class="cls-1" d="M28.5,28.06c-2.68,0-5.26-.92-7.36-2.65-4.94-4.07-5.66-11.41-1.59-16.35,4.07-4.94,11.4-5.66,16.35-1.59,2.4,1.97,3.88,4.76,4.18,7.85s-.62,6.11-2.59,8.5c0,0,0,.01-.01,.02-1.97,2.39-4.75,3.87-7.84,4.17-.38,.04-.76,.05-1.14,.05Zm.03-21.73c-2.92,0-5.82,1.26-7.82,3.68-3.54,4.31-2.93,10.69,1.38,14.24,2.09,1.72,4.71,2.52,7.41,2.26,2.69-.26,5.12-1.55,6.83-3.64,0,0,0,0,.01-.01,1.71-2.08,2.51-4.71,2.25-7.39-.26-2.69-1.55-5.12-3.64-6.83-1.88-1.55-4.16-2.3-6.42-2.3Z"/>
          <path class="cls-1" d="M21.85,15.66c-.06,0-.12,0-.18-.02-.4-.1-.65-.51-.54-.91,.25-.98,.71-1.92,1.35-2.7,1.36-1.67,3.38-2.62,5.52-2.62,.42-.02,.77,.33,.77,.75,0,.41-.34,.75-.75,.75h-.02c-1.7,0-3.29,.75-4.36,2.07-.5,.62-.87,1.35-1.06,2.12-.09,.34-.39,.57-.73,.57Z"/>
          <path class="cls-1" d="M22.66,20.8c-.25,0-.49-.12-.63-.34-.49-.77-.83-1.61-1.01-2.51-.08-.41,.18-.8,.59-.88,.41-.08,.8,.18,.88,.59,.14,.71,.41,1.38,.8,1.98,.22,.35,.12,.81-.23,1.04-.13,.08-.27,.12-.41,.12Z"/>
          <path class="cls-1" d="M7.26,49.79c-.18,0-.35-.06-.48-.18L.27,44.14c-.31-.26-.36-.73-.1-1.04l11.03-13.68c.13-.16,.31-.25,.51-.28,.2-.02,.4,.04,.55,.17l6.65,5.47c.32,.26,.37,.73,.1,1.05l-11.18,13.69c-.13,.16-.31,.25-.51,.27-.02,0-.05,0-.07,0Zm-5.46-6.33l5.36,4.52,10.23-12.52-5.49-4.51L1.79,43.46Z"/>
          <path class="cls-1" d="M15.42,39.79c-.17,0-.33-.05-.47-.17l-6.69-5.45c-.32-.26-.37-.73-.11-1.06,.26-.32,.73-.37,1.06-.11l6.69,5.45c.32,.26,.37,.73,.11,1.06-.15,.18-.36,.28-.58,.28Z"/>
          <path class="cls-1" d="M13.32,31.93c-.17,0-.34-.06-.48-.17-.32-.26-.37-.74-.1-1.06l3.18-3.86c.26-.32,.73-.37,1.06-.1,.32,.26,.37,.74,.1,1.06l-3.18,3.86c-.15,.18-.36,.27-.58,.27Z"/>
          <path class="cls-1" d="M17.06,35.01c-.17,0-.34-.06-.48-.17-.32-.26-.37-.74-.1-1.06l3.22-3.91c.26-.32,.74-.37,1.06-.1,.32,.26,.37,.74,.1,1.06l-3.22,3.91c-.15,.18-.36,.27-.58,.27Z"/>
        </g>
      </g>
    </g>
  </g>
</svg>