<?xml version="1.0" encoding="UTF-8"?>
<svg id="Capa_2" data-name="Capa 2" xmlns="http://www.w3.org/2000/svg" viewBox="0 0 47.29 53.3">
  <defs>
    <style>
      .cls-1 {
        fill: #c8ccd5;
      }
    </style>
  </defs>
  <g id="_1" data-name=" 1">
    <g>
      <path class="cls-1" d="M30.97,20.95c-.23-.2-.54-.25-.82-.15l-3.59,1.31-2.54-1.27c-.23-.12-.51-.12-.74,0l-2.54,1.27-3.59-1.31c-.28-.1-.6-.04-.82,.15-.23,.2-.33,.5-.27,.79l2.26,11.21c.08,.39,.42,.66,.81,.66,.05,0,.11,0,.17-.02,.45-.09,.74-.53,.65-.98l-1.97-9.76,2.53,.92c.21,.08,.45,.06,.65-.04l2.49-1.24,2.49,1.24c.2,.1,.44,.11,.65,.04l2.53-.92-1.97,9.76c-.09,.45,.2,.89,.65,.98,.45,.09,.89-.2,.98-.65l2.26-11.21c.06-.29-.04-.6-.27-.79Z"/>
      <path class="cls-1" d="M23.64,4.96c.46,0,.83-.37,.83-.83V.83c0-.46-.37-.83-.83-.83s-.83,.37-.83,.83v3.3c0,.46,.37,.83,.83,.83Z"/>
      <path class="cls-1" d="M31.69,6.74c.11,.05,.23,.08,.35,.08,.31,0,.61-.18,.75-.48l1.39-2.99c.19-.41,.01-.91-.4-1.1-.41-.19-.91-.01-1.1,.4l-1.39,2.99c-.19,.41-.01,.91,.4,1.1Z"/>
      <path class="cls-1" d="M38.86,12.05c.19,0,.38-.06,.53-.19l2.53-2.12c.35-.29,.4-.82,.1-1.17-.29-.35-.82-.4-1.17-.1l-2.53,2.12c-.35,.29-.4,.82-.1,1.17,.16,.2,.4,.3,.63,.3Z"/>
      <path class="cls-1" d="M42.04,19.07c.1,.37,.43,.61,.8,.61,.07,0,.14,0,.21-.03l3.19-.85c.44-.12,.7-.57,.59-1.01-.12-.44-.57-.7-1.01-.59l-3.19,.85c-.44,.12-.7,.57-.59,1.01Z"/>
      <path class="cls-1" d="M46.6,27.2l-3.25-.57c-.45-.08-.88,.22-.96,.67-.08,.45,.22,.88,.67,.96l3.25,.57s.1,.01,.14,.01c.39,0,.74-.28,.81-.68,.08-.45-.22-.88-.67-.96Z"/>
      <path class="cls-1" d="M40.39,34.71c-.37-.26-.89-.17-1.15,.2-.26,.37-.17,.89,.2,1.15l2.7,1.89c.14,.1,.31,.15,.47,.15,.26,0,.52-.12,.68-.35,.26-.37,.17-.89-.2-1.15l-2.7-1.89Z"/>
      <path class="cls-1" d="M14.5,6.34c.14,.3,.44,.48,.75,.48,.12,0,.24-.02,.35-.08,.41-.19,.59-.69,.4-1.1l-1.39-2.99c-.19-.42-.69-.6-1.1-.4-.41,.19-.59,.69-.4,1.1l1.39,2.99Z"/>
      <path class="cls-1" d="M7.89,11.86c.16,.13,.34,.19,.53,.19,.24,0,.47-.1,.63-.3,.29-.35,.25-.87-.1-1.17l-2.53-2.12c-.35-.29-.87-.25-1.17,.1-.29,.35-.25,.87,.1,1.17l2.53,2.12Z"/>
      <path class="cls-1" d="M1.05,18.8l3.19,.85c.07,.02,.14,.03,.21,.03,.37,0,.7-.24,.8-.61,.12-.44-.14-.9-.59-1.01l-3.19-.85c-.44-.12-.9,.14-1.01,.59s.14,.9,.59,1.01Z"/>
      <path class="cls-1" d="M4.89,27.3c-.08-.45-.51-.75-.96-.67l-3.25,.57c-.45,.08-.75,.51-.67,.96,.07,.4,.42,.68,.81,.68,.05,0,.1,0,.14-.01l3.25-.57c.45-.08,.75-.51,.67-.96Z"/>
      <path class="cls-1" d="M4.67,38.11c.16,0,.33-.05,.47-.15l2.7-1.89c.38-.26,.47-.78,.2-1.15-.26-.38-.78-.47-1.15-.2l-2.7,1.89c-.38,.26-.47,.78-.2,1.15,.16,.23,.42,.35,.68,.35Z"/>
      <path class="cls-1" d="M42.6,51.65h-9.14c.26-.46,.42-.98,.42-1.55,0-.92-.4-1.77-1.05-2.36,.65-.59,1.05-1.43,1.05-2.36s-.41-1.77-1.05-2.36c.65-.59,1.05-1.43,1.05-2.36s-.43-1.8-1.09-2.39c4.92-3.12,7.93-8.5,7.93-14.4,0-9.41-7.65-17.06-17.06-17.06S6.58,14.49,6.58,23.89c0,5.9,3,11.28,7.93,14.4-.66,.59-1.09,1.43-1.09,2.39s.4,1.77,1.05,2.36c-.65,.59-1.05,1.43-1.05,2.36s.41,1.77,1.05,2.36c-.65,.59-1.05,1.43-1.05,2.36,0,.56,.16,1.09,.42,1.55H4.69c-.46,0-.83,.37-.83,.83s.37,.83,.83,.83H42.6c.46,0,.83-.37,.83-.83s-.37-.83-.83-.83Zm-26.2-14.16c-5.04-2.69-8.16-7.87-8.16-13.59,0-8.49,6.91-15.4,15.4-15.4s15.4,6.91,15.4,15.4c0,5.72-3.12,10.9-8.16,13.59-.07,0-.15-.01-.22-.01h-14.04c-.08,0-.15,0-.22,.01Zm.22,14.16c-.85,0-1.55-.69-1.55-1.55,0-.8,.61-1.46,1.41-1.53h4.43c.46,0,.83-.37,.83-.83s-.37-.83-.83-.83h-4.43c-.8-.07-1.41-.72-1.41-1.53s.61-1.46,1.41-1.53h10.67c.46,0,.83-.37,.83-.83s-.37-.83-.83-.83h-10.67c-.8-.07-1.41-.72-1.41-1.53,0-.74,.53-1.37,1.23-1.51,.02,0,.05,0,.07,0,.08-.01,.16-.03,.24-.03h14.04c.08,0,.16,.01,.25,.03,0,0,.02,0,.02,0,.72,.13,1.28,.76,1.28,1.52,0,.81-.61,1.46-1.42,1.53-.43,.03-.76,.39-.76,.83s.33,.79,.76,.83c.81,.06,1.42,.72,1.42,1.53s-.61,1.46-1.41,1.53h-5.19c-.46,0-.83,.37-.83,.83s.37,.83,.83,.83h5.19c.8,.07,1.41,.72,1.41,1.53,0,.85-.69,1.55-1.55,1.55h-14.04Z"/>
    </g>
  </g>
</svg>