<?xml version="1.0" encoding="UTF-8"?>
<svg id="Capa_2" data-name="Capa 2" xmlns="http://www.w3.org/2000/svg" viewBox="0 0 50 50.01">
  <defs>
    <style>
      .cls-1 {
        fill: #c8ccd5;
      }
    </style>
  </defs>
  <g id="_1" data-name=" 1">
    <g>
      <path class="cls-1" d="M42.69,7.33C37.83,2.47,31.45,.03,25.06,.01c-.02,0-.04-.01-.06-.01s-.04,.01-.06,.01C18.55,.03,12.17,2.47,7.31,7.33c-9.75,9.75-9.75,25.62,0,35.37,4.88,4.88,11.28,7.31,17.69,7.31s12.81-2.44,17.69-7.31c9.75-9.75,9.75-25.62,0-35.37Zm-.62,33.59l-15.9-15.9,15.9-15.9c8.33,8.94,8.33,22.86,0,31.8ZM25.83,1.71c5.44,.19,10.82,2.27,15.07,6.23l-15.07,15.07V1.71ZM8.49,41.53C-.62,32.42-.62,17.6,8.49,8.5,12.83,4.15,18.47,1.91,24.17,1.71V25.01c0,.11,.02,.22,.06,.32,.04,.1,.1,.19,.18,.27l16.48,16.48c-9.15,8.52-23.51,8.35-32.42-.56Z"/>
      <path class="cls-1" d="M35.74,6.9c-.16-.43-.64-.64-1.07-.48l-5.78,2.17c-.43,.16-.64,.64-.48,1.07,.13,.33,.44,.54,.78,.54,.1,0,.2-.02,.29-.05l5.78-2.17c.43-.16,.64-.64,.48-1.07Z"/>
      <path class="cls-1" d="M32.55,12.24l-4.54,1.71c-.43,.16-.64,.64-.48,1.07,.13,.33,.44,.54,.78,.54,.1,0,.2-.02,.29-.05l4.54-1.71c.43-.16,.64-.64,.48-1.07-.16-.43-.64-.64-1.07-.48Z"/>
    </g>
  </g>
</svg>