<svg xmlns="http://www.w3.org/2000/svg" viewBox="0 0 21.09 21.09"><defs><style>.cls-1{fill:none;stroke:#cdc7ff;}</style></defs><g id="Capa_2" data-name="Capa 2"><g id="Capa_1-2" data-name="Capa 1"><path class="cls-1" d="M20.54,10.59l-.47,3L18.39,14a8.34,8.34,0,0,1-1.23,2l.42,1.68L15.1,19.46l-1.43-.94h0a8.28,8.28,0,0,1-2.28.56l-.89,1.48-3-.47L7.12,18.4a8.64,8.64,0,0,1-2-1.22l-1.7.4L1.66,15.16l.91-1.47h0A8.46,8.46,0,0,1,2,11.41L.54,10.49l.46-3,1.69-.39a8.43,8.43,0,0,1,1.22-2h0l-.4-1.69L5.93,1.67l1.47.92A8.85,8.85,0,0,1,9.68,2L10.6.55l3,.47L14,2.7a8.34,8.34,0,0,1,2,1.23h0l1.68-.42L19.45,6,18.5,7.42a8.27,8.27,0,0,1,.55,2.28Z"/></g></g></svg>