<?xml version="1.0" encoding="UTF-8" standalone="no"?>
<!-- Created with Inkscape (http://www.inkscape.org/) -->

<svg
   version="1.1"
   id="svg9"
   width="28.782471"
   height="22.631348"
   viewBox="0 0 28.782471 22.631347"
   sodipodi:docname="WEB Diseño-xd.pdf"
   xmlns:inkscape="http://www.inkscape.org/namespaces/inkscape"
   xmlns:sodipodi="http://sodipodi.sourceforge.net/DTD/sodipodi-0.dtd"
   xmlns="http://www.w3.org/2000/svg"
   xmlns:svg="http://www.w3.org/2000/svg">
  <defs
     id="defs13" />
  <sodipodi:namedview
     id="namedview11"
     pagecolor="#ffffff"
     bordercolor="#000000"
     borderopacity="0.25"
     inkscape:showpageshadow="2"
     inkscape:pageopacity="0.0"
     inkscape:pagecheckerboard="0"
     inkscape:deskcolor="#d1d1d1"
     showgrid="false" />
  <g
     id="g3837"
     inkscape:groupmode="layer"
     inkscape:label="Page 5"
     transform="matrix(1.3333333,0,0,-1.3333333,-279.29321,2373.6266)">
    <path
       d="m 220.53,1774.72 0.96,-0.24 c 0.03,-0.01 0.05,-0.03 0.05,-0.07 v -1.44 c 0,-0.04 -0.02,-0.06 -0.05,-0.07 l -0.96,-0.24 c -0.02,-0.01 -0.04,-0.03 -0.05,-0.06 -0.11,-0.46 -0.29,-0.89 -0.54,-1.3 -0.02,-0.03 -0.02,-0.05 0,-0.08 l 0.5,-0.85 c 0.02,-0.03 0.02,-0.06 0,-0.09 l -1.02,-1.02 c -0.03,-0.02 -0.06,-0.02 -0.09,0 l -0.85,0.5 c -0.03,0.01 -0.05,0.01 -0.08,0 -0.4,-0.25 -0.84,-0.43 -1.3,-0.54 -0.03,-0.01 -0.04,-0.03 -0.05,-0.06 l -0.26,-0.95 c -0.01,-0.04 -0.04,-0.05 -0.08,-0.06 h -1.43 c -0.04,0.01 -0.07,0.02 -0.08,0.06 l -0.22,0.95 c -0.01,0.03 -0.03,0.05 -0.06,0.06 -0.46,0.11 -0.89,0.29 -1.3,0.54 -0.03,0.01 -0.05,0.01 -0.08,0 l -0.85,-0.49 c -0.03,-0.03 -0.06,-0.03 -0.09,0 l -1.02,1.02 c -0.02,0.03 -0.02,0.06 0,0.09 l 0.5,0.84 c 0.01,0.02 0.01,0.05 0,0.08 -0.25,0.4 -0.43,0.83 -0.54,1.3 -0.01,0.02 -0.03,0.04 -0.06,0.05 l -0.95,0.26 c -0.04,0.01 -0.05,0.04 -0.06,0.07 v 1.44 c 0.01,0.04 0.02,0.06 0.06,0.08 l 0.95,0.22 c 0.03,0.01 0.05,0.03 0.06,0.06 0.11,0.46 0.29,0.89 0.54,1.3 0.01,0.02 0.01,0.05 0,0.08 l -0.49,0.84 c -0.03,0.03 -0.03,0.06 0,0.09 l 1.02,0.99 c 0.01,0.04 0.06,0.04 0.13,0 l 0.8,-0.46 c 0.03,-0.02 0.05,-0.02 0.08,0 0.4,0.25 0.83,0.43 1.29,0.54 0.03,0.01 0.04,0.03 0.05,0.05 l 0.24,0.96 c 0.02,0.04 0.05,0.06 0.09,0.05 h 1.44 c 0.04,0 0.07,-0.02 0.08,-0.05 0.04,-0.19 0.2,-0.8 0.24,-0.96 0,-0.02 0.02,-0.04 0.05,-0.05 0.46,-0.11 0.89,-0.29 1.3,-0.54 0.02,-0.02 0.05,-0.02 0.08,0 l 0.84,0.49 c 0.03,0.02 0.06,0.02 0.09,0 l 1.03,-1.02 c 0.02,-0.03 0.02,-0.06 0,-0.09 l -0.5,-0.84 c -0.02,-0.03 -0.02,-0.06 0,-0.08 0.25,-0.41 0.43,-0.84 0.54,-1.3 0.01,-0.03 0.03,-0.05 0.05,-0.06 z"
       style="fill:none;stroke:#c8ccd5;stroke-width:2;stroke-linecap:round;stroke-linejoin:miter;stroke-miterlimit:100;stroke-dasharray:none;stroke-opacity:1"
       id="path4493" />
    <path
       d="m 229.86,1767.87 -0.37,-1.12 -0.82,0.06 c -0.2,-0.33 -0.44,-0.61 -0.73,-0.86 l 0.18,-0.8 -1.07,-0.55 -0.54,0.62 c -0.37,-0.09 -0.74,-0.12 -1.12,-0.09 l -0.44,-0.69 -1.12,0.37 0.07,0.84 c -0.33,0.2 -0.61,0.45 -0.86,0.74 l -0.81,-0.2 -0.53,1.06 0.62,0.53 c -0.09,0.37 -0.12,0.75 -0.08,1.13 l -0.7,0.44 0.37,1.12 0.82,-0.06 c 0.2,0.33 0.44,0.61 0.74,0.86 l -0.18,0.8 1.05,0.53 0.53,-0.62 c 0.38,0.09 0.75,0.12 1.13,0.08 l 0.44,0.69 1.12,-0.37 -0.06,-0.81 c 0.33,-0.2 0.61,-0.45 0.86,-0.74 l 0.8,0.18 0.53,-1.05 -0.62,-0.54 c 0.09,-0.36 0.12,-0.74 0.08,-1.11 z"
       style="fill:none;stroke:#c8ccd5;stroke-width:2;stroke-linecap:round;stroke-linejoin:miter;stroke-miterlimit:100;stroke-dasharray:none;stroke-opacity:1"
       id="path4495" />
    <path
       d="m 216.02,1771.22 c -1.2,0 -2.17,1.05 -2.17,2.34 0,1.29 0.97,2.33 2.17,2.33 1.19,0 2.16,-1.04 2.16,-2.33 0,-1.29 -0.97,-2.34 -2.16,-2.34 z"
       style="fill:none;stroke:#c8ccd5;stroke-width:2;stroke-linecap:round;stroke-linejoin:miter;stroke-miterlimit:100;stroke-dasharray:none;stroke-opacity:1"
       id="path4497" />
    <path
       d="m 225.68,1767.22 c -0.83,0 -1.5,0.6 -1.5,1.34 0,0.74 0.67,1.33 1.5,1.33 0.83,0 1.5,-0.59 1.5,-1.33 0,-0.74 -0.67,-1.34 -1.5,-1.34 z"
       style="fill:none;stroke:#c8ccd5;stroke-width:2;stroke-linecap:round;stroke-linejoin:miter;stroke-miterlimit:100;stroke-dasharray:none;stroke-opacity:1"
       id="path4499" />
  </g>
</svg>
