<svg xmlns="http://www.w3.org/2000/svg" viewBox="0 0 20.82 20.82"><defs><style>.cls-1{fill:none;stroke:#cdc7ff;stroke-linecap:round;stroke-width:0.75px;}</style></defs><g id="Capa_2" data-name="Capa 2"><g id="Capa_1-2" data-name="Capa 1"><path class="cls-1" d="M20.41,10.45l-.47,3-1.68.34a8.34,8.34,0,0,1-1.23,2l.42,1.68L15,19.32l-1.43-.94h0a8.28,8.28,0,0,1-2.28.56l-.89,1.48-3-.47L7,18.26A8.64,8.64,0,0,1,5,17l-1.7.4L1.53,15l.91-1.47h0a8.46,8.46,0,0,1-.56-2.28L.41,10.35l.46-3L2.56,7A8.43,8.43,0,0,1,3.78,5h0L3.38,3.3,5.8,1.53l1.47.92a8.85,8.85,0,0,1,2.28-.56L10.47.41l3,.47.39,1.68a8.34,8.34,0,0,1,2,1.23h0a8.69,8.69,0,0,1,1.68-.42l1.81,2.49-.95,1.43a8.27,8.27,0,0,1,.55,2.28Z"/></g></g></svg>