<?xml version="1.0" encoding="UTF-8" standalone="no"?>
<!-- Created with Inkscape (http://www.inkscape.org/) -->

<svg
   version="1.1"
   id="svg52"
   width="19.106689"
   height="19.106665"
   viewBox="0 0 19.106689 19.106665"
   sodipodi:docname="WEB Diseño-xd.pdf"
   xmlns:inkscape="http://www.inkscape.org/namespaces/inkscape"
   xmlns:sodipodi="http://sodipodi.sourceforge.net/DTD/sodipodi-0.dtd"
   xmlns="http://www.w3.org/2000/svg"
   xmlns:svg="http://www.w3.org/2000/svg">
  <defs
     id="defs56">
    <clipPath
       clipPathUnits="userSpaceOnUse"
       id="clipPath616">
      <path
         d="m 428.26,1866.67 h 2.81 v -5.95 h -2.81 z"
         id="path614" />
    </clipPath>
  </defs>
  <sodipodi:namedview
     id="namedview54"
     pagecolor="#ffffff"
     bordercolor="#000000"
     borderopacity="0.25"
     inkscape:showpageshadow="2"
     inkscape:pageopacity="0.0"
     inkscape:pagecheckerboard="0"
     inkscape:deskcolor="#d1d1d1"
     showgrid="false" />
  <g
     id="g58"
     inkscape:groupmode="layer"
     inkscape:label="WEB Diseño-xd"
     transform="matrix(1.3333333,0,0,-1.3333333,-563.33331,2494.4399)">
    <path
       d="m 429.67,1857 c -3.69,0 -6.67,2.98 -6.67,6.67 0,3.68 2.98,6.66 6.67,6.66 3.68,0 6.66,-2.98 6.66,-6.66 0,-3.69 -2.98,-6.67 -6.66,-6.67 z"
       style="fill:none;stroke:#c8ccd5;stroke-width:1;stroke-linecap:butt;stroke-linejoin:miter;stroke-miterlimit:100;stroke-dasharray:none;stroke-opacity:1"
       id="path602" />
    <g
       id="g610"
       inkscape:export-filename="../Documents/GitHub/TAI/apps/transparency-initiative.org/src/assets/icons/facebook.png"
       inkscape:export-xdpi="96"
       inkscape:export-ydpi="96">
      <g
         id="g612"
         clip-path="url(#clipPath616)">
        <path
           d="m 430.07,1865.29 v -0.61 h 1 l -0.16,-0.98 h -0.84 v -2.97 h -1.16 v 2.97 h -0.65 v 0.98 h 0.65 v 0.68 0 c 0.02,0.64 0.25,1.25 1.33,1.29 v 0.01 h 0.83 v -0.98 h -0.65 c -0.2,0 -0.35,-0.18 -0.35,-0.39 z"
           style="fill:#83e8d0;fill-opacity:1;fill-rule:nonzero;stroke:none"
           id="path618" />
      </g>
    </g>
  </g>
</svg>
