<?xml version="1.0" encoding="UTF-8"?>
<svg id="Capa_2" data-name="Capa 2" xmlns="http://www.w3.org/2000/svg" viewBox="0 0 580.15 225.3">
  <defs>
    <style>
      .cls-1 {
        fill: #e4e8ef;
      }
    </style>
  </defs>
  <g id="Capa_1-2" data-name="Capa 1">
    <g>
      <polygon class="cls-1" points="94 225.3 100.8 225.3 100.8 181.3 160.7 181.3 160.7 174.5 94 174.5 94 225.3"/>
      <path class="cls-1" d="M100.7,157.5v-25.2h59.9v-6.8h-59.9v-10.3h59.9v-6.8H77v116.9h6.8v-93h10.2v32h66.7v-6.8h-60Zm-6.7-31.9h-10.3v-10.3h10.3v10.3Z"/>
      <polygon class="cls-1" points="194.66 34.56 197.18 24.76 199.7 34.56 202.33 34.56 206.92 18.15 203.78 18.15 201.04 28.68 198.35 18.15 196.06 18.15 193.31 28.73 190.68 18.15 187.49 18.15 192.08 34.56 194.66 34.56"/>
      <rect class="cls-1" x="215.54" y="18.15" width="3.08" height="16.41"/>
      <polygon class="cls-1" points="236.26 31.64 230.83 31.64 230.83 18.15 227.75 18.15 227.75 34.56 236.26 34.56 236.26 31.64"/>
      <polygon class="cls-1" points="252.78 31.64 247.35 31.64 247.35 18.15 244.27 18.15 244.27 34.56 252.78 34.56 252.78 31.64"/>
      <rect class="cls-1" x="260.73" y="18.15" width="3.08" height="16.41"/>
      <path class="cls-1" d="M280.22,18.43l-.11-.28h-2.58l-6.27,16.41h3.25l1.74-4.59h5.04l1.74,4.59h3.3l-6.1-16.13Zm-2.86,8.62l1.46-4.37,1.46,4.37h-2.91Z"/>
      <polygon class="cls-1" points="302.72 29.4 298.3 18.15 294.05 18.15 294.05 34.56 297.13 34.56 297.13 22.96 301.77 34.56 303.68 34.56 308.32 22.91 308.32 34.56 311.4 34.56 311.4 18.15 307.15 18.15 302.72 29.4 302.72 29.4"/>
      <polygon class="cls-1" points="356.53 27.78 362.13 27.78 362.13 24.87 356.53 24.87 356.53 21 362.13 21 362.13 18.15 353.46 18.15 353.46 34.56 356.53 34.56 356.53 27.78"/>
      <polygon class="cls-1" points="374.17 18.15 371.09 18.15 371.09 34.56 379.6 34.56 379.6 31.64 374.17 31.64 374.17 18.15"/>
      <path class="cls-1" d="M395.28,17.87c-4.7,0-8.51,3.81-8.51,8.51s3.81,8.51,8.51,8.51c4.65-.06,8.51-3.86,8.51-8.51s-3.75-8.51-8.51-8.51Zm0,14.05c-3.75,0-5.43-3.25-5.43-5.6s1.68-5.6,5.43-5.6,5.43,3.3,5.43,5.66-1.68,5.54-5.43,5.54Z"/>
      <path class="cls-1" d="M418.58,28.68c1.57-.28,4.14-1.51,4.14-5.1,0-1.57-.56-3.02-1.57-3.98-1.01-1.01-2.41-1.4-4.42-1.4h-5.21v16.41h3.08v-6.5l4.59,6.44h3.81l-4.42-5.88Zm-4.03-2.46v-5.15h2.02c2.24,0,3.08,1.29,3.08,2.52,0,1.74-1.29,2.63-3.92,2.63h-1.18Z"/>
      <path class="cls-1" d="M439.69,18.43l-.11-.28h-2.58l-6.22,16.41h3.25l1.68-4.59h5.04l1.74,4.59h3.3l-6.1-16.13Zm-2.86,8.62l1.46-4.37h0l1.46,4.37h-2.91Z"/>
      <polygon class="cls-1" points="226.55 78.78 199.05 78.78 199.05 54.72 192.78 54.72 192.78 109.19 199.05 109.19 199.05 84.51 226.55 84.51 226.55 109.19 232.82 109.19 232.82 54.72 226.55 54.72 226.55 78.78"/>
      <path class="cls-1" d="M278.65,78.48c-2.83-5.04-9.24-10.47-18.33-10.54h0c-11.76,.23-21.39,9.93-21.39,21.7s9.63,20.55,21.47,20.55c9.09,0,17.27-4.81,20.24-13.45l.15-.53h-6.34l-.08,.23c-1.53,4.2-6.19,9.09-14.13,9.24-7.64,0-14.67-6.42-15.2-13.83h36.75v-.38c.31-4.89-.76-9.24-3.13-12.99Zm-33.54,7.95c1.53-8.56,8.79-12.99,15.28-12.99s13.6,4.05,15.36,12.99h-30.63Z"/>
      <polygon class="cls-1" points="323.19 102.16 314.1 73.82 308.98 73.82 299.97 102.16 287.59 69.23 287.51 69 281.25 69 296.83 108.96 296.91 109.19 303.33 109.19 311.5 83.98 319.83 109.19 326.25 109.19 341.98 68.93 335.8 68.93 323.19 102.16"/>
      <rect class="cls-1" x="346.64" y="54.72" width="5.96" height="54.47"/>
      <path class="cls-1" d="M397.75,78.48c-2.9-5.04-9.24-10.47-18.41-10.54-11.76,.23-21.39,9.93-21.39,21.7s9.63,20.55,21.47,20.55c9.09,0,17.27-4.81,20.24-13.45l.15-.53h-6.34v.23c-1.53,4.2-6.19,9.09-14.13,9.24-7.64,0-14.67-6.42-15.2-13.83h36.75v-.38c.31-4.89-.76-9.24-3.13-12.99Zm-33.61,7.95c1.53-8.56,8.79-12.99,15.28-12.99s13.6,4.05,15.36,12.99h-30.63Z"/>
      <polygon class="cls-1" points="437.86 54.72 431.9 54.72 431.9 68.93 415.78 68.93 415.78 54.64 409.82 54.64 409.82 68.93 401.34 68.93 401.34 74.43 409.82 74.43 409.82 109.19 415.78 109.19 415.78 74.43 431.9 74.43 431.9 109.19 437.86 109.19 437.86 74.43 447.56 74.43 447.56 68.93 437.86 68.93 437.86 54.72"/>
      <rect class="cls-1" x="483.44" y="139.8" width="5.95" height="41.22"/>
      <polygon class="cls-1" points="467.87 125.6 461.92 125.6 461.92 139.87 453.44 139.87 453.44 145.37 461.92 145.37 461.92 181.09 467.87 181.09 467.87 145.37 477.56 145.37 477.56 139.87 467.87 139.87 467.87 125.6"/>
      <path class="cls-1" d="M575.03,143.84c-3.51-3.51-7.56-5.04-13.05-5.04-5.8,0-9.92,2.75-12.14,5.57v-4.5h-5.95v41.22h5.95v-22.67c-.08-4.58,1.22-8.47,3.66-10.76,3.21-3.13,7.33-3.36,8.47-3.36s5.27,.23,8.47,3.36c2.37,2.29,3.74,6.18,3.74,10.76v22.59h5.95v-22.59c0-6.26-1.76-11.3-5.11-14.58h0Z"/>
      <rect class="cls-1" x="483.44" y="125.6" width="5.95" height="10.08"/>
      <path class="cls-1" d="M442.6,139.8v6.41c-4.81-6.72-12.37-7.4-15.49-7.4-13.82,0-22.13,10.91-22.13,21.52,0,12.14,9.69,21.68,22.13,21.68,3.05,0,10.53-.76,15.49-7.4v6.41h5.95v-41.22h-5.95Zm-15.42,36.71c-9.16,0-16.11-6.87-16.11-15.95,0-10.69,8.09-16.26,16.11-16.26,8.7,0,15.72,7.25,15.72,16.18s-6.95,16.03-15.72,16.03Z"/>
      <path class="cls-1" d="M517.25,138.8c-10.3,0-21.45,8.4-21.45,21.91,0,11.53,9.85,21.3,21.45,21.3s21.6-9.92,21.6-21.6c-.08-11.75-9.92-21.6-21.6-21.6Zm.08,37.71c-8.55,0-15.57-7.17-15.57-15.88,0-10.08,8.09-16.33,15.57-16.33,6.26,0,15.57,5.04,15.57,15.88-.08,10.23-7.94,16.33-15.57,16.33Z"/>
      <path class="cls-1" d="M246.37,138.8c-10.3,0-21.45,8.4-21.45,21.91,0,11.53,9.85,21.3,21.45,21.3s21.6-9.92,21.6-21.6-9.92-21.6-21.6-21.6Zm.08,37.71c-8.55,0-15.57-7.17-15.57-15.88,0-10.08,8.09-16.33,15.57-16.33,6.26,0,15.57,5.04,15.57,15.88-.08,10.23-7.94,16.33-15.57,16.33Z"/>
      <polygon class="cls-1" points="192.78 181.01 199.04 181.01 199.04 156.05 220.42 156.05 220.42 150.33 199.04 150.33 199.04 131.32 221.18 131.32 221.18 125.6 192.78 125.6 192.78 181.01 192.78 181.01"/>
      <path class="cls-1" d="M394.75,125.6v20.53c-5.19-6.79-13.13-7.33-15.49-7.33-13.82,0-22.13,10.91-22.13,21.52,0,12.14,9.69,21.68,22.13,21.68,4.88,0,11.37-1.98,15.49-7.4v6.41h5.95v-55.41h-5.95Zm-15.42,50.91c-9.16,0-16.11-6.87-16.11-15.95,0-10.69,8.09-16.26,16.11-16.26,8.7,0,15.72,7.25,15.72,16.18s-6.95,16.03-15.72,16.03Z"/>
      <path class="cls-1" d="M302.93,161.55c0,7.17-1.91,9.69-4.12,11.83-2.14,2.14-4.81,3.13-8.24,3.13-3.82,0-6.87-1.22-9.08-3.66-1.91-2.37-2.82-5.72-2.82-10.38v-22.59h-5.95v22.67c0,5.8,1.22,10.3,3.66,13.28,1.83,2.29,6.18,6.18,14.2,6.18,7.48,0,11.14-4.05,12.67-6.34v5.42h5.65v-41.22h-5.95v21.68h0Z"/>
      <path class="cls-1" d="M334.3,138.8c-5.8,0-9.92,2.75-12.14,5.57v-4.5h-5.95v41.22h5.95v-22.67c-.08-4.58,1.22-8.47,3.66-10.76,3.21-3.13,7.33-3.36,8.47-3.36s5.27,.23,8.47,3.36c2.37,2.29,3.74,6.18,3.74,10.76v22.59h5.95v-22.59c0-6.26-1.76-11.22-5.11-14.5-3.51-3.59-7.56-5.11-13.05-5.11h0Z"/>
      <rect class="cls-1" width="6.8" height="125.4"/>
      <path class="cls-1" d="M94,.1V54.6h-10.3V0h-6.7V54.6H23.6V0h-6.8V61.4h60.2v10.2H17v53.7h6.8v-47h53.2v30.1h6.8v-30h10.2v30.1h6.8V.1h-6.8Zm0,71.5h-10.3v-10.2h10.3v10.2Z"/>
      <polygon class="cls-1" points="333.63 24.87 333.63 20.61 330.61 20.61 330.61 24.87 326.41 24.87 326.41 27.89 330.61 27.89 330.61 32.15 333.63 32.15 333.63 27.89 337.83 27.89 337.83 24.87 333.63 24.87"/>
    </g>
  </g>
</svg>