<?xml version="1.0" encoding="UTF-8" standalone="no"?>
<!-- Created with Inkscape (http://www.inkscape.org/) -->

<svg
   version="1.1"
   id="svg9"
   width="23.570557"
   height="23.866272"
   viewBox="0 0 23.570557 23.866272"
   sodipodi:docname="WEB Diseño-xd.pdf"
   xmlns:inkscape="http://www.inkscape.org/namespaces/inkscape"
   xmlns:sodipodi="http://sodipodi.sourceforge.net/DTD/sodipodi-0.dtd"
   xmlns="http://www.w3.org/2000/svg"
   xmlns:svg="http://www.w3.org/2000/svg">
  <defs
     id="defs13" />
  <sodipodi:namedview
     id="namedview11"
     pagecolor="#ffffff"
     bordercolor="#000000"
     borderopacity="0.25"
     inkscape:showpageshadow="2"
     inkscape:pageopacity="0.0"
     inkscape:pagecheckerboard="0"
     inkscape:deskcolor="#d1d1d1"
     showgrid="false" />
  <g
     id="g3837"
     inkscape:groupmode="layer"
     inkscape:label="Page 5"
     transform="matrix(1.3333333,0,0,-1.3333333,-282.65796,2537.7866)">
    <path
       d="m 223.27,1887.05 c -0.79,-0.26 -1.61,-0.39 -2.44,-0.39 -3.49,0 -6.57,2.32 -7.53,5.68 -0.97,3.36 0.41,6.95 3.37,8.81 2.97,1.85 6.8,1.52 9.4,-0.82 2.6,-2.33 3.34,-6.11 1.82,-9.25"
       style="fill:none;stroke:#c8ccd5;stroke-width:2;stroke-linecap:round;stroke-linejoin:miter;stroke-miterlimit:100;stroke-dasharray:none;stroke-opacity:1"
       id="path4447" />
    <path
       d="m 220.85,1886.66 c -2.34,0 -4.22,3.51 -4.22,7.84 0,4.33 1.88,7.84 4.22,7.84 2.33,0 4.22,-3.51 4.22,-7.84 0,-0.84 -0.07,-1.67 -0.22,-2.5"
       style="fill:none;stroke:#c8ccd5;stroke-width:2;stroke-linecap:round;stroke-linejoin:miter;stroke-miterlimit:100;stroke-dasharray:none;stroke-opacity:1"
       id="path4449" />
    <path
       d="m 220.85,1901.88 v -14.76"
       style="fill:none;stroke:#c8ccd5;stroke-width:2;stroke-linecap:round;stroke-linejoin:miter;stroke-miterlimit:100;stroke-dasharray:none;stroke-opacity:1"
       id="path4451" />
    <path
       d="M 228.22,1894.5 H 213.47"
       style="fill:none;stroke:#c8ccd5;stroke-width:2;stroke-linecap:round;stroke-linejoin:miter;stroke-miterlimit:100;stroke-dasharray:none;stroke-opacity:1"
       id="path4453" />
    <path
       d="M 227.3,1898.19 H 214.39"
       style="fill:none;stroke:#c8ccd5;stroke-width:2;stroke-linecap:round;stroke-linejoin:miter;stroke-miterlimit:100;stroke-dasharray:none;stroke-opacity:1"
       id="path4455" />
    <path
       d="m 222.23,1890.81 h -7.84"
       style="fill:none;stroke:#c8ccd5;stroke-width:2;stroke-linecap:round;stroke-linejoin:miter;stroke-miterlimit:100;stroke-dasharray:none;stroke-opacity:1"
       id="path4457" />
    <path
       d="m 227.4,1889.49 -2.24,-2.24 -1.32,3.56 z"
       style="fill:none;stroke:#c8ccd5;stroke-width:2;stroke-linecap:round;stroke-linejoin:miter;stroke-miterlimit:100;stroke-dasharray:none;stroke-opacity:1"
       id="path4459" />
    <path
       d="m 227.4,1889.49 -2.24,-2.24 -1.32,3.56 z"
       style="fill:none;stroke:#c8ccd5;stroke-width:2;stroke-linecap:round;stroke-linejoin:miter;stroke-miterlimit:100;stroke-dasharray:none;stroke-opacity:1"
       id="path4461" />
    <path
       d="m 226.28,1888.37 1.71,-1.71"
       style="fill:none;stroke:#c8ccd5;stroke-width:2;stroke-linecap:round;stroke-linejoin:miter;stroke-miterlimit:100;stroke-dasharray:none;stroke-opacity:1"
       id="path4463" />
    <path
       d="m 226.28,1888.37 1.71,-1.71"
       style="fill:none;stroke:#c8ccd5;stroke-width:2;stroke-linecap:round;stroke-linejoin:miter;stroke-miterlimit:100;stroke-dasharray:none;stroke-opacity:1"
       id="path4465" />
  </g>
</svg>
