<?xml version="1.0" encoding="UTF-8" standalone="no"?>
<!-- Created with Inkscape (http://www.inkscape.org/) -->

<svg
   version="1.1"
   id="svg52"
   width="19.106628"
   height="19.106665"
   viewBox="0 0 19.106628 19.106665"
   sodipodi:docname="WEB Diseño-xd.pdf"
   xmlns:inkscape="http://www.inkscape.org/namespaces/inkscape"
   xmlns:sodipodi="http://sodipodi.sourceforge.net/DTD/sodipodi-0.dtd"
   xmlns="http://www.w3.org/2000/svg"
   xmlns:svg="http://www.w3.org/2000/svg">
  <defs
     id="defs56">
    <clipPath
       clipPathUnits="userSpaceOnUse"
       id="clipPath638">
      <path
         d="m 462.23,1866 h 1.28 v -1.29 h -1.28 z"
         id="path636" />
    </clipPath>
    <clipPath
       clipPathUnits="userSpaceOnUse"
       id="clipPath648">
      <path
         d="m 463.9,1864.51 h 3.21 v -3.59 h -3.21 z"
         id="path646" />
    </clipPath>
  </defs>
  <sodipodi:namedview
     id="namedview54"
     pagecolor="#ffffff"
     bordercolor="#000000"
     borderopacity="0.25"
     inkscape:showpageshadow="2"
     inkscape:pageopacity="0.0"
     inkscape:pagecheckerboard="0"
     inkscape:deskcolor="#d1d1d1"
     showgrid="false" />
  <g
     id="g58"
     inkscape:groupmode="layer"
     inkscape:label="WEB Diseño-xd"
     transform="matrix(1.3333333,0,0,-1.3333333,-610,2494.4399)">
    <path
       d="m 464.67,1857 c -3.69,0 -6.67,2.98 -6.67,6.67 0,3.68 2.98,6.66 6.67,6.66 3.68,0 6.66,-2.98 6.66,-6.66 0,-3.69 -2.98,-6.67 -6.66,-6.67 z"
       style="fill:none;stroke:#c8ccd5;stroke-width:1;stroke-linecap:butt;stroke-linejoin:miter;stroke-miterlimit:100;stroke-dasharray:none;stroke-opacity:1"
       id="path598"
       inkscape:export-filename="../Documents/GitHub/TAI/apps/transparency-initiative.org/src/assets/icons/linkedin.png"
       inkscape:export-xdpi="96"
       inkscape:export-ydpi="96" />
    <path
       d="m 462.31,1864.4 h 1.11 v -3.48 h -1.11 z"
       style="fill:#00e0b5;fill-opacity:1;fill-rule:nonzero;stroke:none"
       id="path630" />
    <g
       id="g632">
      <g
         id="g634"
         clip-path="url(#clipPath638)">
        <path
           d="m 463.5,1865.36 c 0,-0.35 -0.29,-0.63 -0.64,-0.63 -0.35,0 -0.63,0.28 -0.63,0.63 0,0.35 0.28,0.64 0.63,0.64 0.35,0 0.64,-0.29 0.64,-0.64 z"
           style="fill:#00e0b5;fill-opacity:1;fill-rule:nonzero;stroke:none"
           id="path640" />
      </g>
    </g>
    <g
       id="g642">
      <g
         id="g644"
         clip-path="url(#clipPath648)">
        <path
           d="m 467.11,1860.92 h -1.12 v 2.01 c 0,0.27 -0.22,0.49 -0.49,0.49 -0.26,0 -0.48,-0.22 -0.48,-0.49 v -2.01 h -1.12 v 3.48 h 1.06 v -0.34 c 0.23,0.28 0.57,0.45 0.94,0.45 0.66,0 1.19,-0.51 1.2,-1.16 z"
           style="fill:#00e0b5;fill-opacity:1;fill-rule:nonzero;stroke:none"
           id="path650" />
      </g>
    </g>
  </g>
</svg>
