<?xml version="1.0" encoding="UTF-8"?>
<svg id="Capa_2" data-name="Capa 2" xmlns="http://www.w3.org/2000/svg" viewBox="0 0 920.99 225.25">
  <defs>
    <style>
      .cls-1 {
        fill: #e4e8ef;
      }
    </style>
  </defs>
  <g id="Capa_1-2" data-name="Capa 1">
    <g>
      <path class="cls-1" d="M920.31,62.7c-3.34-25.84-19.12-45.01-44.95-47.85-26.43-2.91-50.12,8.79-59.55,35.79-4.93,14.11-5.29,28.59-1.74,43.07,2.62,10.65,7.78,19.96,16.19,27.22,18.8,16.23,51.69,17.89,72.03,3.56,8.42-5.93,14.28-13.78,16.96-23.84,1.46-2.71,.87-3.62-2.39-3.51-7.14,.24-14.29,.05-21.44,.1-1.25,0-3.03-.68-3.12,1.65-3.14,6.2-7.74,10.62-14.65,12.44-19.16,5.05-34.47-4.9-38.01-24.66-.57-3.19,.17-4.02,3.51-4,24.46,.15,48.91,.09,73.37,.06,1.23,0,2.55,.43,3.71-.4l.36,.11,.32-.19c0-.15,0-.3,0-.45,.02-4.42,.04-8.83,.06-13.25,0-.05,0-.1,0-.15-.23-1.9-.43-3.81-.68-5.71Zm-26.38,.31c.02,.26-.45,.56-.68,.83-.12,.07-.24,.13-.36,.18,.12-.06,.24-.13,.36-.18-17.64-.03-35.28-.06-52.92-.08,.83-10.25,4.88-18.9,13.9-24.19,8.78-5.15,18.19-5.19,27.09-.15,9.01,5.11,11.91,13.86,12.62,23.59Z"/>
      <path class="cls-1" d="M773.04,40.01c7.16,.04,14.32,.03,21.48,.16,1.87,.03,2.42-.59,2.39-2.42-.1-6.01-.13-12.02-.01-18.03,.04-2.13-.51-2.84-2.77-2.77-6.01,.18-12.03,.09-18.04,.03-1.2-.01-2.6,.54-3.53-.79,0-5.38,0-10.75,0-16.13-.18,0-.36,0-.54,0-8.62-.02-17.24-.04-25.86-.06-.18,0-.35,0-.53,0-.27,2.55-.53,5.09-.8,7.64-2.72,7.04-8.08,9.73-15.34,9.4-.71-.03-1.84-.69-2.18,.7-.06,6.63-.03,13.27-.22,19.9-.06,2.12,.71,2.55,2.64,2.49,3.96-.14,7.94,.18,11.88-.12,3.32-.25,3.93,1.01,3.91,4.07-.15,16.98-.08,33.97-.06,50.95,0,3.7-.01,7.41,1.01,11.02,.87,6.66,3.31,12.7,8.18,17.34,11.44,10.89,25.31,10.66,39.59,8.09,1.65,.22,2.61-.14,2.57-2.17-.1-6.25-.05-12.5-.01-18.75,0-1.31,.03-2.18-1.83-1.85-4.04,.7-8.14,.35-12.22,.32-3.04-1.16-5.81-2.71-7.83-5.36-1.66-3.53-2.26-7.23-2.25-11.13,.07-15.48,.01-30.96,.05-46.44,0-2.03-.35-4.09,.32-6.09-.32,.15-.56,.33-.74,.52,.14-.21,.37-.39,.74-.52Z"/>
      <path class="cls-1" d="M455.5,16.97c-7.67,.08-15.35,.02-23.02,.05-.67,0-1.58-.41-1.85,.72-.06,.63-.17,1.27-.17,1.9,0,36.32-.01,72.64-.01,108.96,0,.38,.05,.77,0,1.15-.15,1.27,.28,1.84,1.67,1.82,8.43-.13,16.86-.21,25.28-.3,.19-.29,.54-.58,.54-.88,.02-37.06,0-74.13,.05-111.19,0-1.99-.79-2.25-2.51-2.23Z"/>
      <path class="cls-1" d="M25.18,192.2c0-.14,0-.29,.04-.43,4.48-2.12,6.25-5.13,5.92-9.46-.32-4.28-2.33-7.19-6.52-8.46-8.12-2.13-16.37-.82-24.56-.96,0,.18,0,.36,0,.55,0,11.81,.1,23.62-.06,35.43-.03,1.95,.14,3.21,1.15,3.82,.61,.37,1.52,.51,2.89,.43,6.36-.38,12.75-.13,19.13-.14,1-.36,1.99-.71,2.99-1.07,4.55-1.38,6.4-4.8,6.8-9.2,.51-5.5-2.11-8.93-7.77-10.5Zm.66,9.14c.05,3.3-1.87,5.69-5.58,6.08-3.79,.4-7.63,.23-11.44,.34-1.38,.04-1.73-.7-1.68-1.9,.04-1.14,0-2.29,0-3.44q0-7.13,7.14-7.03c1.91,0,3.84-.18,5.73,.04,3.66,.43,5.79,2.71,5.84,5.91Zm-1.89-17.36c-.04,3.24-2.32,5.44-5.98,5.67-1.4,.09-2.81,.01-4.22,.01q-6.62,.02-6.62-6.47,0-4.98,5.15-4.97c2.04,0,4.1-.05,6.13,.16,3.67,.38,5.58,2.41,5.54,5.58Z"/>
      <path class="cls-1" d="M512.02,181.78c-9.19,0-15.27,6.32-15.36,15.94-.1,9.76,6.01,16.17,15.44,16.22,9.14,.04,15.29-6.33,15.37-15.93,.09-9.74-6.1-16.24-15.45-16.23Zm7.34,21.73c-1.42,2.75-3.52,4.66-6.82,4.85-3.28,.19-5.79-1.26-7.3-3.99-2.38-4.31-2.44-8.9,.09-13.13,3.29-5.5,10.58-5.17,13.73,.41,1.1,1.95,1.43,4.07,1.32,6.28,.12,1.94-.11,3.86-1.01,5.58Z"/>
      <path class="cls-1" d="M314.22,181.76c-9.52-.08-15.49,6.09-15.52,16.06-.03,9.97,5.89,16.15,15.43,16.11,9.28-.04,15.13-6.23,15.15-16.03,.02-9.78-5.84-16.06-15.06-16.14Zm6.45,22.8c-3.36,5.17-10.58,5.15-13.57-.24-2.4-4.33-2.34-8.89,.14-13.17,3.06-5.27,10.47-5.06,13.57,.22,1.21,2.06,1.52,4.3,1.62,6.73-.23,2.17-.43,4.42-1.76,6.46Z"/>
      <path class="cls-1" d="M598.29,183.01c-7.27-3.32-16.18-.58-19.7,6.04-4.28,8.06-1.99,18.86,4.86,22.92,6.86,4.06,17.41,1.92,20.87-4.3,.5-.91,1.64-2.75,.62-2.92-2.18-.37-4.98-1.51-6.73,.74-2.51,3.23-5.62,3.93-9.18,2.71-3.83-1.3-5.5-4.33-5.51-8.31,6.9-.06,13.8-.12,20.7-.18,.91,.21,1.71,.39,2.03-.93,1.31-5.41-2.67-13.37-7.95-15.78Zm-13.38,7.89c1.74-2.86,4.3-4.41,7.71-3.92,3.22,.46,5.23,2.39,6.14,5.55,.55,1.9,.29,2.91-2.01,2.73-1.91-.15-3.84-.03-5.76-.03-1.28,0-2.56,.05-3.84-.01-1.12-.05-2.69,.54-3.25-.42-.74-1.29,.29-2.73,1-3.9Z"/>
      <path class="cls-1" d="M660.61,181.81c-7.05-.46-12.21,2.26-14.94,7.82-1.82,3.71-2.09,7.68-1.56,11.62,.75,5.56,3.46,9.97,9.09,11.73,5.91,1.85,11.67,1.58,16.57-2.8,1.61-1.44,2.75-3.28,2.98-5.84-2.62,.79-5.42-1.23-7.56,1.58-2.45,3.21-5.9,3.58-9.33,2.11-3.44-1.47-5.29-4.25-4.72-8.22,5.11,.02,10.22,.04,15.32,.05,8.47,0,8.5-.04,6.08-8.49-1.85-5.91-5.91-9.17-11.93-9.56Zm-8.34,9.11c1.72-2.92,4.29-4.34,7.69-3.93,3.29,.39,5.26,2.4,6.19,5.49,.52,1.73,.45,2.99-1.97,2.79-1.91-.16-3.84-.03-5.76-.03-1.28,0-2.56,.05-3.84-.02-1.12-.06-2.68,.56-3.25-.4-.75-1.27,.22-2.7,.93-3.91Z"/>
      <path class="cls-1" d="M696.01,195.8c-3-.62-6.04-1.08-9.04-1.74-1.43-.32-2.55-1.2-2.83-2.79-.25-1.4,.29-2.49,1.36-3.37,2.44-2.02,8.4-1.89,9.75,.85,2.01,4.07,5.03,2.75,8.03,2.73,0-.56,.09-.96-.01-1.31-1.91-6.32-7.21-9.1-15.74-8.28-5.86,.56-9.67,3.95-9.89,8.81-.23,5.14,2.48,8,8.74,9.22,2.76,.54,5.55,.97,8.26,1.67,1.59,.41,2.55,1.64,2.57,3.42,.03,1.8-1,2.82-2.51,3.49-3.44,1.54-8.01,.41-10.33-2.53-.89-1.13-6.29-2.33-6.81-1.36-.99,1.85,.51,3.32,1.44,4.73,1.24,1.87,3.08,3.03,5.22,3.69,4.01,1.24,8.1,1.3,12.13,.34,5.18-1.22,7.92-4.53,7.84-9.03-.07-4.68-2.66-7.4-8.2-8.55Z"/>
      <path class="cls-1" d="M484.9,195.74c-2.88-.57-5.8-.98-8.66-1.63-1.57-.36-2.8-1.4-3-3.12-.17-1.38,.6-2.44,1.68-3.25,2.41-1.82,8.19-1.69,9.48,.88,2.06,4.1,5.13,2.91,8.38,2.84-1.03-5.11-3.98-8.24-8.78-9.2-5.25-1.06-10.5-1.06-14.82,2.89-.81,.74-1.44,1.82-1.85,2.86-1.91,4.9,.33,9.6,5.55,11.14,3.41,1.01,6.99,1.47,10.47,2.27,1.78,.4,2.97,1.54,3.09,3.44,.1,1.55-.73,2.63-2.06,3.39-3.23,1.84-8.67,.95-10.66-2.15-1.92-3-5.08-2.13-6.68-1.25-1.69,.93,.38,3.31,1.34,4.81,1.14,1.79,3.04,2.71,5,3.36,3.86,1.27,7.84,1.27,11.75,.48,5.36-1.08,8.29-4.46,8.24-9.05-.05-4.81-2.71-7.57-8.47-8.7Z"/>
      <path class="cls-1" d="M246.48,195.7c-2.64-.51-5.29-.92-7.92-1.5-1.88-.41-3.39-1.39-3.35-3.58,.04-2.12,1.51-3.14,3.34-3.7,3.59-1.1,6.88,.04,8.88,3.28,1.77,2.86,4.58,1.64,6.45,1.1,1.57-.46,0-2.65-.65-3.83-3.84-6.95-18.13-7.86-22.85-1.52-.94,1.26-1.49,2.66-1.64,4.23-.49,5.18,2.14,8.31,8.24,9.63,2.87,.62,5.85,.87,8.63,1.75,3.1,.98,3.68,4.42,1.32,6.3-2.51,1.99-8.93,1.75-10.55-.96-1.52-2.53-3.42-2.38-5.73-2.52-2.83-.17-2.63,.94-1.74,2.87,2.63,5.7,7.66,6.59,13.25,6.7,1.16-.07,2.44-.06,3.71-.23,5.68-.78,9.27-4.17,9.48-8.88,.23-5.07-2.52-7.92-8.86-9.15Z"/>
      <path class="cls-1" d="M551.66,190.11c1.58,3.08,3.55,2.87,6.09,2.97,2.46,.1,2.45-1.02,1.82-2.78-1.26-3.57-3.54-6.13-7.12-7.53-11.17-4.38-21.52,2.82-21.51,15.42-.12,2.43,.37,5.17,1.63,7.75,2.95,6.05,8.06,8.19,14.48,7.97,6.14-.22,10.34-2.99,12.25-8.13,.34-.93,1.02-1.93,.24-2.84-.95-1.11-6.26,0-6.98,1.48-1.34,2.72-3.52,3.92-6.46,3.95-3.13,.02-5.48-1.39-6.82-4.14-2.07-4.26-2.16-8.7,.01-12.92,2.48-4.81,10.07-5.7,12.37-1.21Z"/>
      <path class="cls-1" d="M272.53,188.08c2.4,.4,3.29-.34,3.31-3.03,.02-2.85-1.4-2.79-3.32-2.62-2.14,.2-3.89,0-3.35-2.93,.16-.86-.07-1.8,.04-2.68,.31-2.5-.24-4.06-3.24-3.18-3.55-1.01-4.04,.89-3.84,3.83,.17,2.49,1.01,5.5-3.6,5.1-2.07-.18-1.03,2.12-1.23,3.33-.2,1.25,.05,2.44,1.73,2.16,3-.5,3.28,1.11,3.19,3.53-.15,4.34-.22,8.7,.04,13.03,.38,6.57,4.59,9.79,11.09,9.06,2.06-.23,2.56-1.16,2.41-2.99-.12-1.47,.45-3.08-2.17-2.94-3.23,.17-4.46-1.85-4.42-4.91,.06-3.83,.2-7.68-.05-11.49-.18-2.76,.79-3.72,3.41-3.27Z"/>
      <path class="cls-1" d="M625.29,207.76c-3.45,.16-4.67-2.01-4.66-5.17,.02-3.07,.24-6.16-.06-9.2-.38-3.82,.28-6.19,4.89-5.34,2.32,.43,1.95-1.41,1.92-2.75-.03-1.28,.5-3.29-1.82-2.82-5.2,1.05-5.33-2.09-4.91-5.68,.31-2.66-.54-3.92-3.35-3.17-3.06-.76-3.89,.67-3.46,3.44,.14,.87-.05,1.79,.03,2.68,.17,1.88-.38,3.03-2.52,2.68-2.38-.39-2.65,.9-2.68,2.87-.03,2.08,.48,3.16,2.76,2.79,2.21-.37,2.48,.93,2.45,2.73-.07,4.6-.13,9.21,.05,13.8,.25,6.64,4.82,10.03,11.43,9.03,2.36-.36,2.02-1.79,2.06-3.29,.04-1.49,.08-2.71-2.13-2.61Z"/>
      <path class="cls-1" d="M342.53,184.08c-.79,.65-1.1,2.15-2.62,1.73,.32-1.88,.65-3.57-2.35-3.33-2.13,.17-3.82-.28-3.7,3.05,.29,8.15,.23,16.33,0,24.49-.08,2.98,1.21,3.13,3.58,3.24,2.73,.14,3.43-.73,3.33-3.38-.2-5.6-.06-11.22-.06-16.83,1.5-2.89,3.1-5.5,6.99-5.54,3.55-.05,5.26,2.05,6.6,4.83,.02,6.25,.09,12.5,.03,18.75-.02,1.65,.54,2.54,2.15,2.08,1.6-.46,4.66,1.42,4.67-1.24,.02-7.61,1.05-15.29-.67-22.86-2.55-7.31-11.97-9.9-17.94-4.97Z"/>
      <path class="cls-1" d="M82.28,106.14c-17.38-.05-34.75-.1-52.13-.15-.52,0-1.04,0-1.56,0,0-.51,0-1.03,0-1.54-.02-28.38-.08-56.76,0-85.14,0-2.65-.62-3.46-3.35-3.38-7.16,.2-14.34,.24-21.51,0-1.22-.04-2.05,.08-2.62,.43C.24,16.87,0,17.92,0,19.7c.1,37.06,.08,74.11,.08,111.17v.54c26.5,.03,53.01,.04,79.51,.15,2.19,0,2.76-.6,2.72-2.77-.14-7.55-.05-15.1-.04-22.65Z"/>
      <path class="cls-1" d="M296.86,184.49c.41-1.69-.31-2.58-2.26-2.43-3.13,.25-5.4,1.83-7.1,4.33-.88-.57-.59-1.27-.55-1.82,.22-3.32-2.27-1.85-3.72-2.11-1.84-.33-2.72,.22-2.69,2.41,.13,8.68,.17,17.37,0,26.05-.06,3.19,1.99,2.3,3.57,2.28,1.55-.02,3.69,.92,3.53-2.3-.24-4.71-.09-9.45-.05-14.17,.05-6.07,1.43-7.75,7.46-8.29,3.34-.3,1.51-2.58,1.84-3.96Z"/>
      <path class="cls-1" d="M452.14,184.2c.55-2.03-.92-2.17-2.49-2.11-3.41,.11-5.29,2.62-7.51,4.62-.1-.1-.18-.21-.24-.32,.09,.11,.17,.21,.24,.32-.31-1.36,.91-3.58-.84-3.95-1.56-.33-3.9-1.51-5.25,.9-.04,8.92,.05,17.84-.21,26.76-.09,3.02,1.46,2.81,3.5,2.86,2.28,.07,3.86,.06,3.66-3.09-.29-4.57-.09-9.17-.07-13.76,.03-5.67,1.62-7.55,7.32-7.99,3.61-.28,1.49-2.79,1.88-4.24Z"/>
      <path class="cls-1" d="M78.05,198.19c0-4.35-.19-8.71,.07-13.04,.17-2.72-1.13-2.92-3.17-2.75-1.77,.15-3.84-.72-3.76,2.6,.2,8.56,.17,17.14,0,25.7-.06,2.89,1.54,2.59,3.39,2.6,2.02,.01,3.76,.24,3.55-2.84-.28-4.07-.07-8.18-.07-12.27Z"/>
      <path class="cls-1" d="M710.28,43.85c-2.5-12.65-10.19-21.07-22.04-25.31-16.56-5.92-33.44-5.91-49.97,.03-12.98,4.66-21.44,13.94-24.68,27.6-.29,1.1-.54,2.21-.86,3.31-.84,2.86-.04,3.9,3.16,3.77,6.72-.26,13.47-.23,20.2-.01,3.03,.1,4.57-.72,4.34-3.89,0,0,0,0,0,0,2.32-5.98,5.88-10.75,12.37-12.65,6.28-1.84,12.66-2.03,18.94-.3,7.05,1.95,11.4,6.61,12.39,14.01,.32,2.4,.23,4.85,.48,7.26,.23,2.21-.48,3.13-2.85,3.3-6.63,.49-13.25,1.23-19.86,1.92-10.29,1.08-20.62,1.72-30.48,5.42-26.54,9.97-26.87,41.92-10.89,55.41,11.37,9.6,24.75,11.64,38.97,9.81,10.62-1.37,19.53-6.27,26.93-14.68,.92,4.44-.51,8.52,.85,12.38,7.14,.66,14.3,0,21.44,.34,2.51,.12,3.14-.62,3.12-3.12-.1-24.03-.04-48.06-.09-72.09,0-4.21-.18-8.43-1.46-12.51Zm-25.95,38.07c-.19,1.38-.03,2.81-.03,4.22-.05,10.12-2.7,19.01-11.98,24.59-9.53,5.73-23.67,4.75-30.14-1.95-7.26-7.52-5.1-19.47,4.33-24.25,4.82-2.45,10.11-2.66,15.27-3.41,6.33-.93,12.7-1.52,19.02-2.52,2.99-.47,3.93,.44,3.54,3.33Z"/>
      <path class="cls-1" d="M402.23,128.61c-.1-23.53,.01-47.06-.12-70.59-.03-5.88-.93-11.71-3.17-17.24-1.55-5.52-4.41-10.32-8.35-14.42-12.82-13.34-36.77-15.98-53.22-6.03-5.64,3.41-10.01,8.09-13.83,13.61-7.75-12.95-19.1-18.94-33.56-19.47-14.17-.52-26.16,4.14-35.61,16.02,0-4.32-.1-7.65,.04-10.96,.09-2.01-.53-2.62-2.59-2.58-6.91,.13-13.82,.04-20.73,.06-.66,0-1.58-.43-1.85,.71-.03,.12-.09,.25-.09,.37-.04,37.09-.05,74.18-.15,111.27,0,2.12,.94,2.18,2.53,2.17,7.17-.05,14.34-.19,21.5,.07,3,.11,3.54-.85,3.53-3.64-.13-19.19-.05-38.37-.09-57.56-.01-5.5,.02-10.98,1.23-16.39,.45-.9,.94-1.79,1.36-2.7,5.74-12.49,21.55-17.02,33.11-9.49,5.02,3.27,7.12,8.46,9.09,13.74,.71,4.67,.84,9.38,.82,14.1-.05,19.52-.04,39.05,.03,58.57,0,1.2-1.13,3.33,1.71,3.26,8.4-.21,16.82,.4,25.21-.33,.9-1.14,.41-2.46,.41-3.68,.04-21.22,.04-42.43,.05-63.65,0-4.39,.68-8.67,2.56-12.65,3.7-7.84,9.93-12.11,18.59-12.72,8.4-.59,15.34,1.99,20.01,9.39,1.8,2.84,2.48,6.12,3.67,9.19,1,10.07,.5,20.18,.55,30.27,.08,13.68,.08,27.37-.02,41.05-.02,2.31,.32,3.28,2.98,3.21,7.16-.21,14.33-.19,21.49,0,2.43,.06,2.92-.64,2.91-2.96ZM230.13,19.92c.26-.68,.7-1.08,1.38-1.29-.65,.27-1.09,.67-1.38,1.29Zm98.89,39.68h0s.04-.09,.06-.13c-.03,.04-.04,.08-.06,.13Z"/>
      <path class="cls-1" d="M180.12,131.56c5.89-.14,11.79-.28,17.67,.04,3.57,.19,4.66-.6,4.63-4.44-.19-29.31-.09-58.62-.11-87.93,0-7.16-.1-14.33-.16-21.49-.07-.98-.81-.74-1.38-.74-8.23,.03-16.46,.07-24.69,.11-2.22,.75-1,2.6-1.02,3.83-.4,23.44,.58,46.9-.61,70.33-.45,1.18-.92,2.35-1.33,3.53-2.24,6.48-6.34,11.31-12.66,14.1-12.51,5.51-25.85,.36-29.29-11.3-.4-1.34-.72-2.7-1.08-4.05,0-1.79,0-3.58,0-5.36,0-22.51-.07-45.02,.07-67.53,.02-3.08-.85-3.82-3.81-3.72-6.65,.23-13.32,.31-19.96-.02-3.42-.17-3.87,1.05-3.85,4.05,.12,23.15,.05,46.3,.08,69.44,0,4.72,.05,9.46,1.31,14.08,1.51,8.17,5.1,15.19,11.4,20.73,14.23,12.51,42.24,11.82,55.98-1.42,2.09-2.01,4.07-4.12,6.11-6.18,0,3.71,.12,7.43-.05,11.13-.1,2.17,.57,2.83,2.76,2.78Zm1.83-113.44c-.07,0-.15,0-.22,0-.23,0-.34,.07-.3,.18,.12,.43-.3-.16-.05-.23,.19,.01,.38,.03,.57,.04Z"/>
      <path class="cls-1" d="M88.52,170.3c-1.84,.09-3.77-.57-3.64,2.68,.26,6.24,.07,12.5,.07,18.75,0,6.25,.16,12.51-.07,18.75-.12,3.2,1.79,2.61,3.66,2.72,2.01,.11,3.23,0,3.2-2.72-.16-12.5-.17-25.01,0-37.5,.04-2.79-1.28-2.77-3.22-2.67Z"/>
      <path class="cls-1" d="M568.73,182.49c-1.65,.18-3.92-.99-3.85,2.44,.18,8.66,.16,17.33,0,25.99-.06,3.19,2.04,2.2,3.58,2.25,1.61,.04,3.63,.75,3.44-2.38-.26-4.19-.06-8.4-.06-12.61,0-4.33-.19-8.68,.07-12.99,.17-2.74-1.21-2.91-3.18-2.69Z"/>
      <path class="cls-1" d="M64.66,184.99c.11-3.14-1.66-2.5-3.32-2.46-1.7,.04-3.88-.93-3.76,2.46,.2,6.1,0,12.22-.04,18.34-2.72,4.36-5.4,5.85-8.97,4.66-4.07-1.36-3.87-4.86-3.88-8.24,0-5.36-.08-10.73-.12-16.09-1.61-2.48-4.06-1.07-6-.97-1.69,.09-.75,2.12-.78,3.24-.11,5.24-.07,10.48-.04,15.72,.02,2.54,.04,5.11,1.53,7.35,1.28,3.19,3.97,4.23,7.06,4.84,4.86,.96,8.51-1.46,12.14-4.07-.3,2.01-.57,3.65,2.58,3.53,2.62-.11,3.7-.37,3.59-3.48-.29-8.27-.28-16.56,0-24.83Z"/>
      <path class="cls-1" d="M588.47,128.2c-.14-15.85-.02-31.69-.09-47.54-.05-9.2,.39-18.4-.34-27.59-1.58-16.26-7.97-29.78-24.25-35.41-19.29-6.68-37.26-4.5-51.91,12.62,0-3.97-.1-7.35,.04-10.73,.08-2.01-.55-2.63-2.6-2.59-6.91,.13-13.83,.04-20.74,.06-.66,0-1.59-.43-1.85,.71-.07,1.4-.19,2.8-.19,4.2-.01,23.28,0,46.56,0,69.83,0,12.28-.02,24.56,.03,36.83,0,1.16-.88,3.01,1.67,2.95,8.42-.21,16.86,.37,25.28-.31,1.05-1.09,.48-2.43,.48-3.63,.04-20.35,.02-40.69,.04-61.04,0-6.21,.93-12.21,4.2-17.67,4.81-8.06,13.84-12.22,23.65-10.83,9.49,1.35,15.37,6.76,17.89,16.51,.48,1.85,.88,3.71,1.32,5.57,0,5.11,0,10.22,0,15.33,.05,17.37,.1,34.74,.16,52.11-.89,3.2,.3,4.13,3.57,4.01,6.77-.25,13.56-.21,20.33,0,2.72,.08,3.33-.71,3.31-3.37Z"/>
      <path class="cls-1" d="M140.89,184.77c.05-2.85-1.72-2.29-3.25-2.21-1.55,.08-3.76-.95-3.63,2.26,.18,4.34,.05,8.7,.05,13.05,0,4.35,.12,8.7-.04,13.05-.12,3.24,2.17,2.1,3.68,2.21,1.55,.11,3.26,.61,3.2-2.26-.18-8.69-.16-17.4,0-26.09Z"/>
      <path class="cls-1" d="M394.37,182.48c-3.23-.4-4.9,.46-3.97,4.03-2.74-1.23-4.47-4.1-7.74-4.53-5.43-.72-10.31,.2-13.68,4.86-3.94,5.44-4.2,11.45-1.48,17.44,2.34,5.17,6.72,7.48,12.34,7.55,3.6,.04,6.61-1.34,9.47-4.53,.1,.01,.2,.03,.3,.07,0,1.09,0,1.52,0,1.93,.08,4.3,.31,8.89-4.95,10.41-4.59,1.33-8.65,1-11.18-4.35-.91-1.93-4.39-1.08-6.36-.44-1.55,.51-.17,2.47,.28,3.67,1.72,4.6,5.9,5.64,10.05,6.66h.22c2.44-.01,4.88-.02,7.32-.03,.07,0,.14,0,.21,0,4.14-1.13,8.21-2.38,9.82-7.03,.9-1.31,1.25-2.84,1.27-4.34,.09-9.8,.05-19.61,.14-29.41,.01-1.6-.7-1.78-2.05-1.95Zm-13.23,23.84c-4.79-.01-8.35-4.1-8.34-9.6,0-5.56,3.49-9.49,8.4-9.48,4.83,.01,8.41,4.09,8.38,9.55-.03,5.46-3.64,9.54-8.45,9.52Z"/>
      <path class="cls-1" d="M639.65,184.81c.06-3.46-2.2-2.65-4.12-2.77-2.07-.12-3.78-.11-3.65,2.86,.19,4.2,.05,8.41,.05,12.61,0,4.46,.13,8.93-.05,13.38-.14,3.45,2.19,2.66,4.12,2.76,2.06,.11,3.71,.11,3.66-2.85-.15-8.66-.16-17.33,0-26Z"/>
      <path class="cls-1" d="M74.63,168.98c-2.48,.03-4.05,1.34-4.14,4.01-.1,2.91,1.57,4.28,4.21,4.3,2.49,.02,4.03-1.37,4.18-4-.05-2.79-1.52-4.33-4.25-4.31Z"/>
      <path class="cls-1" d="M635.74,168.99c-2.7,.04-4.24,1.55-4.14,4.38,.09,2.69,1.8,3.73,4.3,4,2.37-.32,4.05-1.44,4.08-4.1,.04-2.81-1.53-4.31-4.24-4.28Z"/>
      <path class="cls-1" d="M123.86,170.31c-1.72,0-3.58-.55-3.38,2.49,.29,4.33,.15,8.69,.19,13.03-.7,.16-1.13-.22-1.64-.66-7.32-6.37-17.83-3.67-21.12,5.44-1.46,4.06-1.64,8.22-.59,12.42,1.31,5.21,4.24,9.11,9.57,10.43,5.13,1.27,9.95,.61,13.22-4.3,.44-.66,.87-.14,1.31,0-.04,1.79-1.52,3.94,2.27,4.13,3.51,.17,3.53-1.42,3.51-4-.09-12.15-.14-24.3,.04-36.45,.04-3-1.62-2.53-3.38-2.52Zm-4.97,33.92c-2.98,5.67-10.3,5.63-13.62,.1-1.23-2.05-1.5-4.29-1.54-6.6,.03-2.32,.42-4.52,1.67-6.57,3.06-5.01,9.8-5.3,12.98-.38,2.79,4.32,2.86,8.97,.51,13.45Z"/>
      <path class="cls-1" d="M568.54,169c-2.68-.03-4.37,1.44-4.37,4.23,0,2.63,1.64,3.84,4.03,4.1,2.83-.1,4.5-1.47,4.48-4.23-.02-2.54-1.6-4.08-4.13-4.1Z"/>
      <path class="cls-1" d="M137.52,168.98c-2.71-.03-4.41,1.54-4.33,4.28,.08,2.74,1.83,4.2,4.56,4.03,2.54-.15,3.9-1.66,3.94-4.47-.19-2.39-1.7-3.81-4.18-3.84Z"/>
      <path class="cls-1" d="M428.79,189.09c-3.3-6.21-10.22-8.91-17.34-6.78-7.34,2.2-11.11,8.95-10.27,18.4,.63,7.1,5.54,12.31,12.34,13.09,7.52,.86,13.44-1.73,15.69-6.91,.31-.72,1.23-2.16,.19-2.2-2.24-.09-4.89-1.45-6.76,.92-2.61,3.3-5.94,3.93-9.59,2.43-3.54-1.46-5.22-4.31-4.81-8.23,4.83,.02,9.66,.05,14.48,.06,8.9,.01,9.86-1.51,6.45-10.12-.09-.23-.25-.44-.38-.66Zm-19.78,2.59c1.54-3.17,4.01-4.93,7.62-4.74,3.5,.19,5.58,2.24,6.66,5.43,.69,2.03,.22,3.12-2.22,2.89-1.78-.17-3.58-.03-5.37-.03-1.54,0-3.09-.14-4.6,.03-3.55,.39-3.14-1.39-2.08-3.58Z"/>
      <path class="cls-1" d="M174.52,191.35h0c-.11-4.26-2.16-7.29-6.12-8.72-4.12-1.49-8.17-1.37-12.02,1.22-.76,.51-.94,2.74-2.69,1.35,.88-2.84-.89-2.83-2.87-2.76-1.78,.06-3.43-.36-3.37,2.57,.2,8.55,.21,17.12,0,25.67-.07,2.92,1.48,2.63,3.31,2.54,1.76-.09,3.8,.79,3.7-2.57-.19-6.11,.11-12.24,.21-18.37,1.53-3.08,3.73-4.99,7.46-4.74,4.02,.28,5.02,3.32,6.15,6.31-.04,5.71,.04,11.43-.16,17.14-.1,2.91,1.82,2.19,3.29,2.13,1.38-.06,3.49,1,3.41-1.98-.18-6.59-.21-13.19-.29-19.79Z"/>
      <path class="cls-1" d="M209.22,182.74c-1.7-.2-3.93-1.44-5.33,.89-.14,.89-.29,1.78-.46,2.83-6.03-5.8-14.12-6.23-19.5-1.27-5.48,5.06-5.91,16.33-.85,22.19,4.87,5.64,12.93,5.85,19.94,.43,0,2.19,.19,4.33-.04,6.42-.35,3.16-2.39,5.05-5.4,5.74-3.24,.74-7.14,.97-8.71-2.13-2.19-4.33-5.36-3.08-8.72-3.12,.48,6.75,4.89,9.23,10.53,10.46,.06,0,.12,0,.19,0,2.68,0,5.37-.01,8.05-.02,.08,0,.16,0,.24,0,4.38-1.19,8.43-2.8,9.86-7.74,.86-1.89,1.04-3.88,1.03-5.94-.04-8.5,.02-17-.04-25.5,0-1.12,.85-3.05-.79-3.24Zm-22.87,13.96c.03-5.39,3.64-9.44,8.42-9.47,4.86-.03,8.37,3.88,8.44,9.38,.07,5.39-3.45,9.57-8.16,9.72-4.83,.15-8.73-4.17-8.7-9.63Z"/>
    </g>
  </g>
</svg>