<?xml version="1.0" encoding="UTF-8"?>
<svg id="Capa_2" data-name="Capa 2" xmlns="http://www.w3.org/2000/svg" viewBox="0 0 297.42 104.58">
  <defs>
    <style>
      .cls-1 {
        fill: #e4e8ef;
      }
    </style>
  </defs>
  <g id="Capa_1-2" data-name="Capa 1">
    <g>
      <g>
        <path class="cls-1" d="M51.07,44.59c-.19,0-.36,.01-.49,.01-.91,0-1.77-.08-2.32-.74-.56-.6-.67-2.65-.65-3.86V12.38c0-.49-.04-1.18-.04-1.89-.01-1.06,.13-2.17,.49-2.57,.24-.33,.9-.45,1.58-.44,.37,0,.75,.03,1.06,.03,.65,0,1.86-.14,1.89-1.36,.01-.39-.16-.73-.43-.89-.27-.17-.56-.19-.84-.19-.35,0-.7,.05-.94,.05h-7.28c-.69-.02-1.6,.02-2.05,1.03l-13.22,30.28L16.18,7.21c-.34-.94-.52-2.11-2-2.1H6.58c-.24,0-.59-.05-.94-.05-.28,0-.58,.03-.84,.19-.27,.17-.44,.5-.43,.89,.02,1.22,1.24,1.36,1.88,1.36,1.46,0,2.33,.08,2.75,.34,.4,.23,.54,.62,.55,1.61,0,.4-.03,.88-.08,1.45l-2.03,29.05c-.28,3.27-.24,4.56-3.75,4.63-.56,.02-1.92-.02-2.01,1.16-.01,.4,.16,.74,.45,.91,.28,.17,.59,.19,.91,.19,1.93,0,3.89-.26,5.84-.26,1.94,0,3.91,.26,5.9,.26,.3,0,.68,0,1.04-.11,.36-.1,.73-.47,.71-.99-.08-1.2-1.41-1.16-2.07-1.17-.11,0-.2,0-.28,0-3.55-.05-4.05-1.84-4.11-4.72,0-.72,.05-1.49,.1-2.29l1.87-26.63,12.8,32.95c.12,.39,.29,1.39,1.27,1.45,.91-.06,1.08-.98,1.27-1.37L41.81,10.21v30.05c.02,1.25-.13,2.92-.87,3.49-.61,.51-1.97,.85-2.89,.85-.12,0-.3-.01-.49-.01-.65,0-1.81,.06-1.86,1.18,.03,1.04,1.07,1.1,1.56,1.1,2.58,0,5.2-.26,7.81-.26,2.07,0,4.17,.26,6.29,.26,.49,0,1.53-.06,1.56-1.1-.05-1.12-1.2-1.17-1.86-1.18Z"/>
        <path class="cls-1" d="M83.84,41.91c-.58,.06-.83,.53-1.29,.9-.44,.39-.95,.74-1.66,.74-.93,0-1.38-.67-1.69-1.67-.28-1-.3-2.23-.3-3.01v-15.72c0-.44,.02-.87,.02-1.31,0-1.3-.16-2.66-1.44-3.72-1.61-1.46-4.1-1.78-6.16-1.78-4.29,0-8.8,1.8-11.95,4.61-1.28,1.09-2.85,3-2.86,4.89,0,.37,.1,.69,.35,.89,.25,.19,.53,.21,.81,.21,.9-.01,2.26-.54,2.96-.88,1.18-.52,1.53-1.56,1.98-2.5,1.51-3.31,3.39-5.31,7.26-5.33,3.84,.03,3.82,2.32,3.88,5.59v2.89c-.08,2.52,.12,2.18-2.25,3.39h0l-5.05,2.36c-3.58,1.79-9.83,4.5-9.89,9.47,0,3.51,3.29,5.49,6.48,5.49,2.94,0,5.49-1.28,7.37-2.54,.94-.63,1.71-1.26,2.29-1.73,.29-.24,.52-.43,.69-.56,.09-.06,.16-.11,.2-.14v-.02s.01,0,.08,.08c.63,.67,1.25,4.47,4.38,4.51,1.83,0,3.51-1.03,4.84-1.96,.47-.44,1.65-1.28,1.71-2.29,0-.4-.28-.82-.77-.84Zm-16.78-7.6l5.97-3.01c.2-.08,.55-.25,.58-.23h.01s.03,0,.09,.16c.05,.16,.07,.42,.07,.67,0,.3-.03,.57-.03,.7v3.94c-.02,2.18-.04,3.1-1.55,4.7-1.51,1.52-3.67,2.53-5.87,2.53-2.33-.02-4.21-1.2-4.21-3.55,0-2.95,2.39-4.58,4.95-5.89h0Z"/>
        <path class="cls-1" d="M112.82,40.66c-.63,.07-1,.72-1.2,.88-1.97,1.9-4.57,2.79-7.32,2.79-7.13-.01-11.95-6.65-11.95-13.2,0-3.91,1.67-7.83,4.61-10.39,1.65-1.4,4.23-2.62,6.41-2.61,2.5,0,4.03,1.68,5.24,3.47,1.24,1.75,1.93,3.64,3.35,3.74,1.11-.1,1.14-1.35,1.16-2.25,0-.63-.06-1.24-.06-1.41,0-.34,.06-.83,.06-1.33,0-.64-.1-1.37-.72-1.81-2.19-1.5-5.69-2.21-8.25-2.22-8.95,0-17.35,7.06-17.36,16.12,0,8.11,6.76,14.93,15,14.94,3.61,0,6.97-1.07,9.71-3.29,.47-.45,2-1.61,2.08-2.6,0-.41-.28-.82-.77-.84Z"/>
        <path class="cls-1" d="M154.59,44.59c-2.9,.05-4.03-3.55-5.08-6.17l-13.25-32.92c-.15-.34-.31-1.35-1.21-1.44-1.05,.06-1.21,1.2-1.41,1.64l-12.65,32.85c-.45,1.23-1.67,4.27-2.43,5.08-.74,.81-1.89,.95-3.05,.95-.54,.01-2.05-.08-2.15,1.23,0,.93,.91,1.1,1.51,1.1,.47,0,.93-.07,1.16-.07,1.87,0,3.7-.26,5.51-.26s3.64,.26,5.51,.26c.33,0,.74,0,1.13-.11,.38-.1,.77-.45,.76-.99-.04-1.14-1.21-1.17-1.77-1.17-.09,0-.17,0-.24,0-.74,0-1.81-.05-2.65-.35-.86-.32-1.41-.78-1.43-1.7,0-1.09,.5-2.44,.9-3.49l1.96-4.92c1.12-2.46,.32-2.33,2.93-2.43h8.91c1.6,0,2.19,.03,2.49,.33,.34,.29,.61,1.13,1.29,2.82l2.1,4.99c.33,.84,.9,2.29,.89,3.09-.02,.83-.46,1.17-1.23,1.42-.77,.23-1.8,.24-2.65,.23-.6,0-2.14-.07-2.22,1.3,.04,.92,.99,.97,1.37,.97,2.45,0,4.94-.26,7.28-.26,2.87,0,5.75,.26,8.65,.26,.32,0,1.24-.05,1.29-.97-.08-1.37-1.6-1.29-2.21-1.3Zm-21.4-29.91c.24,.27,.67,1.5,.79,1.77l4.45,11.12c.1,.39,.46,1.22,.44,1.33,0,.06,0,.07-.18,.15-.16,.06-.44,.08-.69,.08-.29,0-.55-.02-.72-.02h-7.54c-.16,0-.61,.05-1.09,.05-.3,0-.59-.02-.78-.08-.09-.03-.16-.06-.17-.07,0-.11,.11-.48,.17-.66h0l4.52-11.94c.08-.19,.22-.66,.4-1.09,.09-.22,.2-.41,.29-.54,.04-.05,.08-.08,.1-.11Z"/>
        <path class="cls-1" d="M177.3,16.72c-2.4,0-4.23,1.38-5.55,2.71-.66,.67-1.18,1.34-1.59,1.83-.2,.24-.37,.45-.49,.57-.03,.04-.06,.07-.09,.09-.03-.1-.06-.29-.05-.49,0-.21,.02-.4,.02-.53v-3.45c0-.21,0-.46-.12-.7-.12-.25-.43-.43-.78-.42-.75,.03-1.11,.68-1.4,.94-.99,1.18-3.82,2.91-5.31,3.33-.51,.19-1.68,.3-1.73,1.41,.02,.68,.68,.84,1.1,.84h.86c.49-.02,1.45,.11,1.67,.41,.46,.41,.6,2.35,.58,3.46v12.86c0,.71,.03,1.38,.03,1.99-.06,1.82-.18,2.79-2.7,3.08-.33,.03-.8,0-1.24,.12-.44,.09-.9,.47-.88,1.11,0,.78,.76,.97,1.23,.97,2.07,0,4.16-.27,6.23-.27,1.94,0,4.04,.26,6.17,.27,.27,0,.54-.06,.76-.24,.22-.18,.33-.48,.33-.8-.11-1.27-1.57-1.08-2.12-1.16-2.53-.29-2.65-1.26-2.71-3.08,0-.6,.03-1.27,.03-1.98v-10.95c0-2.3,.05-3.79,1.45-5.79,.77-.98,1.87-2.25,3.09-2.23,1.48-.14,1.68,2.39,4.2,2.49,1.7,0,3.07-1.13,3.07-2.94-.01-2.19-1.98-3.46-4.05-3.46Z"/>
        <path class="cls-1" d="M200.58,41.97c-.59,.08-.99,.65-1.83,1.21-.79,.56-1.79,1.09-2.89,1.09-1.76-.01-2.58-.99-3.07-2.41-.47-1.42-.49-3.25-.48-4.67v-.28h0V20.32c.09-1.22,.19-1.08,.92-1.16,.31,0,.72,.03,1.19,.03h3.67c.48,0,.85,.03,1.17,.03s.66-.03,.9-.3c.24-.27,.28-.61,.29-1.1,0-.26,0-.52-.1-.78-.11-.28-.46-.47-.81-.45h-6.49c-.77-.12-.67-.14-.74-1v-4.66c0-.37-.11-1.1-.84-1.1-.58,.02-.8,.5-.94,.77-1.49,3.09-3.32,4.67-6.12,6.5-.3,.26-.9,.54-.93,1.25,.08,.84,.95,.87,1.48,.88,.39,0,.77-.04,.86-.04,.28,0,.52-.01,.71-.01,.64,.1,.51-.18,.62,.88v16.85c0,.61-.02,1.26-.02,1.94,0,2.2,.14,4.61,1.52,6.38,1.2,1.47,3.13,2.15,4.97,2.15,2.39,0,4.62-1.02,6.31-2.57,.47-.36,1.37-1.17,1.41-2.07-.02-.38-.29-.74-.77-.78Z"/>
        <path class="cls-1" d="M236.41,44.66c-2.52-.3-2.64-1.26-2.71-3.08,0-.6,.04-1.27,.04-1.98v-11.03c0-3.04-.04-6.33-1.96-8.96-1.74-2.42-5.05-3.27-7.79-3.27-4.33-.01-6.96,1.37-9.8,4.22-.08,.11-.53,.41-.56,.37-.06,0-.15-.08-.22-.38V1.1c0-.23,0-.46-.13-.71-.13-.25-.44-.41-.77-.4-.66,.02-1.23,.53-1.58,.79-1.48,.98-3.95,1.65-5.76,1.97-.41,.07-1.13,.28-1.18,1.03,.01,.86,.85,.99,1.35,.99,.26,0,.5-.02,.67-.02,2.08,.04,2.23,1.2,2.28,2.98,0,.65-.04,1.34-.04,2.02v29.84c0,.72,.03,1.38,.03,1.98-.06,1.82-.18,2.79-2.7,3.08-.33,.03-.81,0-1.24,.12-.44,.09-.9,.47-.88,1.11,0,.79,.76,.97,1.23,.97,2.05,0,4.15-.26,6.23-.26,1.94,0,4.04,.26,6.16,.26,.27,0,.54-.05,.76-.23,.23-.18,.34-.48,.33-.8-.11-1.27-1.57-1.08-2.12-1.16-2.52-.3-2.64-1.26-2.71-3.08,0-.6,.04-1.27,.04-1.98v-11.94c.02-2.64,.05-3.9,1.88-5.82,1.65-1.71,3.86-2.72,6.27-2.72,2.67,0,4.72,1.01,5.96,2.82,1.05,1.64,1.07,4.22,1.07,6.31v11.35c0,.71,.04,1.38,.04,1.98-.06,1.82-.19,2.79-2.71,3.08-.33,.03-.8,0-1.24,.12-.44,.09-.9,.47-.88,1.11,0,.79,.76,.97,1.23,.97,2.07,0,4.16-.26,6.23-.26,1.94,0,4.04,.26,6.17,.26,.27,0,.54-.05,.76-.23,.22-.18,.34-.48,.33-.8-.1-1.27-1.57-1.08-2.12-1.16Z"/>
        <path class="cls-1" d="M271.42,42.37l-.88,.06c-.18,.02-.34,.02-.5,.02-1.71-.06-1.75-.73-1.82-2.25,0-.53,.03-1.14,.03-1.79V19.13c0-.24,.05-.55,.05-.85,0-.24-.03-.52-.21-.75-.19-.24-.5-.35-.87-.35h-7.61c-.15,0-.29-.02-.44-.02-.17,0-.36,0-.55,.15-.18,.15-.25,.39-.25,.63,.12,1.27,1.61,1.14,2.15,1.16,2.43,.06,2.54,1.02,2.62,2.8,0,.65-.05,1.37-.05,2.13v12.53c0,.51,.03,.99,.03,1.45-.01,1.2-.13,2.17-1.05,3.19-1.78,1.96-4.03,2.84-6.79,2.85-2.36,0-5.08-.85-6.28-2.87-1.12-1.77-1.15-5.02-1.14-7.18v-14.16c0-.3,.03-.66,.03-1.02,0-.38-.03-.77-.23-1.11-.21-.35-.63-.56-1.16-.55h-7.35c-.16,0-.31-.02-.46-.02-.15,0-.32,0-.49,.15-.17,.15-.22,.36-.22,.57,.08,1.31,1.55,1.22,2.09,1.23,2.5,.06,2.61,1.04,2.68,2.83,0,.64-.04,1.36-.04,2.11v9.97c0,.35-.01,.71-.01,1.08,0,2.87,.1,5.87,2.04,8.36,1.95,2.56,4.68,3.93,7.98,3.93,3.07,0,5.4-1.18,7.07-2.35,1.62-1.17,2.82-2.33,2.97-2.24,.04,0,.09,0,.17,.25,.07,.22,.1,.57,.1,.91,0,.53-.06,1.03-.06,1.22v1.58c0,.16-.01,.32,.07,.51,.08,.2,.32,.33,.53,.33,.01,0,.03,0,.04,0,.45-.04,.78-.41,.86-.43,1.89-1.43,4.22-2.14,6.51-2.8,.31-.15,1.48-.15,1.6-1.15-.03-.77-.8-.84-1.17-.84Z"/>
        <path class="cls-1" d="M293.37,16.72c-2.39,0-4.23,1.38-5.55,2.72-.65,.67-1.18,1.33-1.59,1.82-.2,.25-.37,.44-.49,.57-.03,.04-.06,.07-.09,.09-.03-.1-.06-.29-.06-.49,0-.21,.02-.4,.02-.53v-3.45c0-.21,0-.46-.13-.7-.12-.25-.43-.43-.77-.42-.77,.03-1.11,.67-1.41,.94-.98,1.19-3.82,2.91-5.31,3.33-.51,.19-1.68,.29-1.74,1.42,.03,.68,.68,.84,1.1,.84h.86c.49-.02,1.45,.11,1.66,.41,.47,.41,.61,2.35,.58,3.46v12.86c0,.72,.03,1.38,.03,1.99-.06,1.82-.18,2.79-2.7,3.08-.33,.03-.8,0-1.24,.12-.44,.09-.91,.47-.88,1.11,0,.78,.76,.97,1.23,.97,2.06,0,4.16-.27,6.23-.26,1.94,0,4.04,.26,6.16,.26,.27,0,.54-.05,.77-.24,.22-.18,.34-.48,.33-.8-.11-1.27-1.57-1.08-2.12-1.16-2.53-.29-2.64-1.26-2.71-3.08,0-.6,.04-1.27,.04-1.98v-10.95c0-2.31,.05-3.8,1.45-5.79,.77-.98,1.86-2.25,3.09-2.23,1.48-.14,1.68,2.39,4.2,2.49,1.7,0,3.07-1.13,3.07-2.94,0-2.19-1.98-3.46-4.05-3.46Z"/>
      </g>
      <g>
        <path class="cls-1" d="M29.28,72.19c.94-.08,.98-1.07,.99-1.75,0-.48-.05-.96-.05-1.12v-4.59c0-.27,.02-.58,.02-.88,0-.39-.03-.79-.21-1.13-.19-.36-.61-.6-1.13-.59-7.25,0-14.43,.26-21.6,.26-1.98,0-3.87-.26-5.92-.26-.61,0-1.38,.29-1.38,1.16,.06,1.21,1.36,1.23,1.95,1.23,3.84,.12,3.67,.61,3.78,3.76v28.19c0,.51,0,.98,0,1.42-.11,3.03,.02,3.59-3.78,3.71h-.24c-.52,0-1.61,.04-1.64,1.1-.01,.42,.17,.79,.47,.96,.29,.17,.61,.2,.92,.2,2.41,0,4.81-.26,7.17-.26s4.64,.26,7.05,.26c.31,0,.63-.03,.92-.2,.29-.17,.48-.54,.47-.96-.05-1.08-1.16-1.1-1.7-1.1h-.25c-3.83-.17-3.67-.67-3.79-3.91,0-.38,0-.78,0-1.22v-12.19c0-1.11,.16-1.51,.47-1.68,.33-.21,1.1-.24,2.36-.24,1.89,0,5.14,0,7.54,.58,1.1,.21,1.67,2.04,1.97,3.94,.08,.4,.22,1.32,1.12,1.38,.19,0,.5-.05,.71-.32,.21-.25,.3-.62,.3-1.18-.06-2.11-.19-4.08-.31-6.17,.12-1.8,.25-3.77,.31-5.62,0-.73-.63-.98-1.01-.98-.9,.06-1.05,.99-1.12,1.38-.29,1.94-.72,4.21-1.93,4.26-1.73,.23-3.9,.27-5.68,.27-.71,0-1.36-.01-1.9-.01-2.63-.12-2.71,.28-2.83-2.76v-9.32c0-.18,0-.4,0-.65-.02-.91,.14-2.03,.65-2.22,.84-.4,4.17-.44,5.21-.42,5.65,.04,9.09,.01,10.78,6.06,.14,.44,.32,1.53,1.31,1.61Z"/>
        <path class="cls-1" d="M43.24,73.33c-4.07,0-8.05,1.34-10.99,4.5-2.63,2.75-4.15,6.76-4.15,10.77,.01,9.14,6.9,15.77,15.14,15.79,8.19-.02,15.13-6.64,15.15-15.79,0-4.28-1.76-8.62-4.77-11.38-2.94-2.75-6.61-3.89-10.38-3.89Zm-.06,1.87c6.66,.02,10.03,7.3,10.03,13.85h0c0,6.14-3.62,13.44-9.79,13.46-3.25,0-5.78-1.93-7.53-4.7-1.75-2.78-2.68-6.36-2.68-9.55,0-6.6,3.65-13.05,9.97-13.06Z"/>
        <path class="cls-1" d="M91.38,99.36l-.84,.06c-.17,.01-.33,.02-.47,.02-1.63-.05-1.67-.73-1.74-2.24,0-.54,.03-1.15,.03-1.79v-19.28c0-.25,.04-.55,.04-.86,0-.24-.02-.51-.2-.75-.17-.24-.49-.35-.85-.35h-7.3c-.14,0-.28-.02-.42-.02s-.35,.01-.54,.16c-.18,.16-.24,.39-.24,.63,.1,1.26,1.56,1.15,2.07,1.17,2.33,.06,2.44,1.01,2.5,2.8,0,.65-.05,1.37-.05,2.13v12.53c0,.51,.02,1,.02,1.45,0,1.2-.12,2.17-1.01,3.2-1.71,1.96-3.86,2.84-6.5,2.84-2.26,0-4.86-.84-6.03-2.86-1.06-1.77-1.09-5.03-1.09-7.19v-14.16c0-.3,.03-.66,.03-1.02,0-.38-.03-.76-.23-1.1-.2-.34-.61-.56-1.12-.55h-7.05c-.15,0-.29-.02-.44-.02s-.33,0-.49,.16c-.16,.15-.2,.36-.2,.56,.07,1.3,1.5,1.23,2.01,1.24,2.39,.06,2.49,1.03,2.57,2.82,0,.64-.04,1.36-.04,2.1v9.97c0,.35-.01,.72-.01,1.08,.01,2.87,.09,5.87,1.96,8.36,1.87,2.56,4.5,3.93,7.68,3.93,2.95,0,5.19-1.19,6.79-2.36,1.55-1.17,2.71-2.33,2.84-2.23,.02,0,.07,0,.15,.24,.07,.22,.1,.58,.09,.91,0,.54-.05,1.03-.06,1.22v1.56c0,.17-.01,.32,.07,.52,.07,.2,.32,.33,.52,.33,.01,0,.03,0,.03,0,.44-.04,.76-.41,.84-.42,1.82-1.43,4.04-2.15,6.24-2.8,.29-.15,1.44-.16,1.54-1.15-.02-.76-.77-.84-1.13-.84Z"/>
        <path class="cls-1" d="M128.42,101.8c-.42-.11-.88-.11-1.16-.14-2.41-.3-2.53-1.26-2.59-3.08,0-.6,.04-1.27,.04-1.99v-11.4c0-2.81-.09-5.71-1.95-8.19-1.82-2.44-4.45-3.67-7.68-3.67-2.97,0-5.35,1.39-7.1,2.76-1.3,1.04-2.39,2.08-2.91,2.46v-3.86c0-.07,0-.15,0-.24,0-.37-.1-1.12-.88-1.12-.75,.03-1.08,.69-1.36,.95-.94,1.18-3.67,2.91-5.09,3.32-.49,.19-1.63,.31-1.67,1.42,.01,.66,.66,.83,1.07,.83h.82c.48-.01,1.38,.11,1.58,.41,.46,.41,.58,2.36,.56,3.47,0,.2,0,.38,0,.53v12.32c0,.72,.04,1.39,.04,1.99-.06,1.82-.18,2.79-2.58,3.08-.32,.03-.77,.01-1.2,.12-.42,.09-.87,.48-.86,1.11,0,.76,.74,.96,1.2,.97,1.98,0,4-.26,5.99-.26,1.86,0,3.88,.26,5.91,.26,.26,0,.53-.06,.75-.24,.22-.18,.32-.47,.32-.8,.01-.6-.46-.93-.87-1.02-.42-.11-.88-.11-1.16-.14-2.42-.3-2.53-1.26-2.59-3.09,0-.6,.03-1.26,.03-1.98v-11c.01-2.62,.16-3.89,1.93-5.82,1.58-1.72,3.7-2.72,6.01-2.72s4.53,1.01,5.65,2.81c1.06,1.65,1.09,4.23,1.09,6.31v10.42c0,.72,.03,1.39,.03,1.99-.06,1.82-.17,2.79-2.58,3.08-.32,.03-.77,.01-1.19,.12-.43,.09-.87,.48-.85,1.11,0,.76,.73,.96,1.19,.97,1.98,0,4-.26,5.98-.26,1.86,0,3.87,.26,5.92,.26,.26,0,.53-.06,.75-.24,.22-.18,.32-.47,.32-.8,.02-.6-.46-.93-.87-1.02Z"/>
        <path class="cls-1" d="M162.99,97.92c-.63,.09-.9,.7-1.43,1.25-.48,.58-1.07,1.06-1.53,1.04-.23,0-.37-.14-.51-.55-.12-.4-.15-.95-.15-1.45,0-.42,.02-.8,.02-1.03V58.11c0-.23,0-.46-.12-.7-.12-.25-.44-.41-.76-.4-.64,.02-1.19,.53-1.53,.79-1.4,.98-3.77,1.65-5.51,1.96-.4,.08-1.1,.29-1.14,1.03,0,.84,.83,.98,1.31,.98,.25,0,.48-.02,.65-.02,1.97,.03,2.13,1.2,2.18,2.98,0,.65-.04,1.34-.04,2.02v6.23c0,.19,.03,.59,.03,1.03,0,.32-.02,.65-.09,.87-.08,.23-.12,.23-.13,.22-.17,.01-.76-.23-1.08-.37-2.13-.87-4.49-1.26-6.84-1.4-.18-.01-.37-.01-.55-.01-3.96,0-7.71,2.09-10.46,4.83-2.89,2.86-4.5,6.56-4.5,10.77,.01,8,5.71,15.45,13.91,15.46,2.65,0,4.89-1.13,6.58-2.25,1.64-1.11,2.96-2.22,3.12-2.15,0,0,.01,0,.08,.11,.22,.4,.24,1.5,.24,1.67,.03,.19,.03,.68,.11,1.12,.08,.42,.26,1,.89,1.03,.55-.02,1.14-.44,1.48-.64l5.05-2.01c.67-.18,1.26-.44,1.27-1.38l.06-.86c.01-.05,.04-.2,.04-.37,0-.25-.16-.75-.67-.75Zm-16.3,3.01c-6.75-.01-10.57-6.54-10.58-13,0-6.43,3.99-12.16,10.68-12.8,.19-.02,.4-.03,.62-.03h.02c1.92,0,4.33,.77,5.59,2.04,1.31,1.24,1.42,3.2,1.42,5.03v.84h0v11.87c0,.42,.02,.8,.02,1.14,0,.75-.08,1.29-.58,1.95-1.67,2.05-4.67,2.96-7.19,2.96Z"/>
        <path class="cls-1" d="M193.16,98.9c-.58,.06-.81,.53-1.25,.9-.42,.39-.91,.74-1.58,.74-.87,0-1.32-.66-1.61-1.67-.27-.99-.29-2.23-.29-3.01,0-.08,0-.17,0-.25v-15.47c0-.44,.01-.87,.01-1.31,0-1.3-.15-2.65-1.38-3.72-1.54-1.46-3.95-1.77-5.93-1.78-4.12,0-8.46,1.8-11.48,4.61-1.23,1.09-2.73,3.01-2.74,4.88,0,.37,.09,.69,.33,.89,.25,.19,.53,.22,.8,.22,.88-.01,2.17-.54,2.85-.89,1.13-.52,1.47-1.55,1.9-2.51,1.45-3.31,3.25-5.31,6.95-5.32,3.66,.03,3.66,2.32,3.72,5.59v2.89c-.08,2.52,.12,2.18-2.15,3.38h0l-4.85,2.36c-3.44,1.79-9.44,4.51-9.5,9.47,.01,3.5,3.16,5.49,6.23,5.49,2.83,0,5.28-1.29,7.09-2.55,.91-.63,1.65-1.26,2.2-1.73,.27-.23,.51-.42,.67-.55,.08-.06,.15-.11,.2-.13h-.02s.02,0,.06,.06c.61,.67,1.2,4.46,4.22,4.51,1.76-.01,3.38-1.04,4.66-1.96,.45-.44,1.59-1.29,1.63-2.28,0-.4-.26-.82-.75-.84Zm-9.67-10.02c0,.3-.03,.56-.03,.69v3.94c-.02,2.18-.05,3.11-1.5,4.71-1.45,1.52-3.52,2.52-5.62,2.52-2.23-.02-4.02-1.19-4.03-3.56,0-2.95,2.3-4.58,4.74-5.89l5.73-3.02c.19-.08,.53-.25,.55-.23,0,0,.02,0,.08,.15,.05,.17,.08,.43,.08,.68Z"/>
        <path class="cls-1" d="M211.41,98.96c-.59,.09-.96,.66-1.77,1.21-.76,.56-1.71,1.09-2.76,1.09-1.68-.01-2.46-.98-2.93-2.41-.45-1.43-.47-3.25-.47-4.67v-.27h0v-16.59c.08-1.23,.18-1.08,.87-1.17,.3,0,.69,.04,1.15,.04h3.52c.45,0,.81,.03,1.12,.03s.63-.03,.88-.3c.22-.26,.26-.6,.26-1.09,0-.26,.01-.52-.1-.78-.1-.29-.44-.47-.79-.45h-6.23c-.73-.12-.62-.13-.69-.99v-4.66c0-.37-.1-1.09-.82-1.1-.57,.03-.78,.51-.91,.77-1.43,3.09-3.18,4.67-5.87,6.5-.3,.26-.87,.55-.89,1.25,.06,.83,.91,.87,1.44,.88,.38,0,.74-.04,.82-.04,.27,0,.49-.01,.68-.01,.61,.1,.47-.18,.58,.88v16.85c0,.61-.02,1.27-.02,1.95,0,2.19,.13,4.6,1.46,6.37,1.16,1.47,3.01,2.16,4.78,2.16,2.3,0,4.45-1.02,6.07-2.58,.45-.35,1.31-1.16,1.35-2.05-.02-.38-.27-.75-.75-.78Z"/>
        <path class="cls-1" d="M221.49,68.26c2.04,0,3.08-1.73,3.09-3.6-.01-1.69-1.09-3.45-2.96-3.46-1.92,0-3.15,1.76-3.15,3.59s1.12,3.46,3.02,3.46Z"/>
        <path class="cls-1" d="M227.73,101.8c-.42-.11-.88-.11-1.16-.14-2.42-.3-2.53-1.26-2.59-3.09,0-.6,.04-1.26,.04-1.98h0v-22.13c0-.36-.1-1.12-.88-1.12-.75,.03-1.07,.69-1.36,.95-.95,1.18-3.67,2.91-5.09,3.33-.48,.18-1.62,.31-1.67,1.41,.01,.66,.66,.83,1.06,.83h.82c.48-.02,1.38,.11,1.59,.41,.45,.41,.58,2.36,.56,3.46,0,.22,0,.39,0,.54v12.32c0,.72,.03,1.39,.03,1.98-.05,1.82-.17,2.79-2.58,3.09-.32,.03-.77,.01-1.2,.12-.42,.09-.87,.48-.86,1.11,0,.76,.74,.96,1.2,.96,1.98,0,4-.26,5.99-.26,1.86,0,3.87,.26,5.92,.26,.26,0,.53-.06,.75-.24,.22-.18,.32-.47,.32-.8,.02-.6-.46-.94-.88-1.02Z"/>
        <path class="cls-1" d="M245.3,73.33c-4.07,0-8.05,1.34-10.99,4.5-2.62,2.75-4.15,6.76-4.15,10.77,.02,9.14,6.9,15.77,15.14,15.79,8.19-.02,15.14-6.64,15.15-15.79,0-4.28-1.77-8.62-4.77-11.38-2.93-2.75-6.61-3.89-10.38-3.89Zm9.98,15.72h0c-.01,6.14-3.63,13.44-9.79,13.45-3.24,0-5.78-1.93-7.54-4.69-1.75-2.77-2.68-6.36-2.68-9.55,.01-6.6,3.65-13.05,9.97-13.06,6.66,.02,10.04,7.3,10.04,13.85Z"/>
        <path class="cls-1" d="M295.22,101.79c-.42-.11-.88-.1-1.17-.13-2.41-.3-2.53-1.26-2.59-3.09,0-.6,.04-1.26,.04-1.98v-11.4c0-2.8-.09-5.7-1.95-8.19-1.82-2.44-4.45-3.67-7.68-3.67-2.97,0-5.35,1.39-7.11,2.76-1.3,1.04-2.38,2.08-2.91,2.46v-4.1c0-.37-.1-1.12-.88-1.12-.75,.03-1.08,.68-1.36,.95-.94,1.18-3.66,2.91-5.09,3.32-.48,.19-1.62,.31-1.67,1.42,.01,.66,.66,.83,1.07,.83h.82c.48-.02,1.38,.11,1.58,.41,.45,.41,.59,2.36,.56,3.46,0,.22,0,.39,0,.54h0v12.32c0,.72,.03,1.39,.03,1.98-.06,1.82-.17,2.79-2.58,3.09-.32,.03-.77,.01-1.2,.12-.42,.09-.87,.48-.86,1.11,0,.76,.74,.96,1.2,.96,1.97,0,3.99-.26,5.98-.26,1.86,0,3.87,.26,5.92,.26,.26,0,.53-.05,.75-.24,.22-.18,.32-.47,.32-.8,.01-.6-.47-.93-.88-1.03-.42-.11-.88-.1-1.16-.13-2.41-.3-2.53-1.26-2.59-3.09,0-.6,.03-1.26,.03-1.98v-11c.02-2.62,.17-3.89,1.93-5.82,1.59-1.72,3.7-2.72,6-2.72s4.53,1.01,5.65,2.81c1.07,1.65,1.09,4.23,1.09,6.32v10.42c0,.72,.03,1.39,.03,1.98-.06,1.82-.18,2.79-2.59,3.09-.31,.03-.76,.01-1.19,.12-.42,.09-.88,.48-.85,1.11,0,.76,.73,.96,1.19,.96,1.97,0,3.99-.26,5.98-.26,1.86,0,3.88,.26,5.92,.26,.26,0,.53-.05,.75-.24,.22-.18,.32-.47,.32-.8,.02-.6-.46-.93-.87-1.03Z"/>
      </g>
    </g>
  </g>
</svg>