<?xml version="1.0" encoding="UTF-8"?>
<svg id="Capa_2" data-name="Capa 2" xmlns="http://www.w3.org/2000/svg" viewBox="0 0 930.19 257.07">
  <defs>
    <style>
      .cls-1 {
        fill: #e4e8ef;
      }
    </style>
  </defs>
  <g id="Capa_1-2" data-name="Capa 1">
    <g>
      <path class="cls-1" d="M323.7,77.6c0-.66,0-1.32,0-1.98,0-24.04,.01-48.08-.03-72.12,0-1.52,.24-2.06,1.94-2.02,5.24,.14,10.48,.09,15.72,.02,1.34-.02,1.83,.21,1.83,1.73-.05,33.9-.05,67.8,0,101.7,0,1.6-.48,1.84-1.92,1.82-6.95-.08-13.89-.08-20.84,0-1.4,.02-1.98-.45-2.5-1.68-10.22-24.13-20.48-48.24-30.73-72.36-.22-.52-.25-1.17-.99-1.6v1.85c0,23.92-.02,47.84,.04,71.76,0,1.71-.49,2.06-2.09,2.03-5.3-.1-10.6-.08-15.9,0-1.21,.02-1.51-.32-1.51-1.52,.03-34.08,.03-68.17,0-102.25,0-1.25,.4-1.49,1.55-1.48,7.01,.05,14.02,.08,21.02-.02,1.5-.02,2.06,.51,2.61,1.8,10.3,24.42,20.66,48.83,31.01,73.23,.16,.38,.32,.75,.49,1.13,.11-.01,.21-.03,.32-.04Z"/>
      <path class="cls-1" d="M84.28,54.16c-.03,10.86-1.33,21.49-6.25,31.35-7.68,15.4-20.27,23.17-37.46,22.59-16.62-.56-28.22-9.1-35.04-24.11C1.09,74.22-.08,63.81,0,53.2c.09-10.87,1.69-21.42,6.61-31.27C19.89-4.69,54.17-5.86,70.72,11.98c6.53,7.04,10.07,15.51,11.97,24.77,1.18,5.74,1.62,11.55,1.59,17.41Zm-62.55-.13c.1,4.75,.26,9.49,1.04,14.18,.96,5.79,2.42,11.42,5.94,16.27,6.79,9.36,19.94,9.4,26.79,.1,2.45-3.33,3.96-7.1,4.9-11.09,2.72-11.53,2.76-23.14,.85-34.78-.9-5.5-2.53-10.77-5.96-15.3-6.7-8.85-19.48-8.9-26.25-.1-1.42,1.84-2.53,3.86-3.4,6.01-3.21,7.93-3.75,16.29-3.92,24.7Z"/>
      <path class="cls-1" d="M565.48,56.72c-.03,8.31-1.33,18.95-6.25,28.8-7.69,15.4-20.28,23.16-37.47,22.58-16.62-.57-28.21-9.11-35.03-24.12-4.44-9.77-5.6-20.18-5.51-30.79,.09-10.56,1.48-20.87,6.24-30.43C495.06,7.49,507.55-.28,524.57,.16c16.69,.43,28.39,8.92,35.33,23.97,3.88,8.42,5.6,18.25,5.59,32.59Zm-21.71-2.28c-.08-5.08-.3-9.88-1.1-14.63-.99-5.85-2.5-11.53-6.16-16.37-6.74-8.92-19.6-8.9-26.36,.03-2.27,3-3.78,6.38-4.72,9.98-3.1,11.84-3.15,23.82-1.25,35.83,.87,5.5,2.47,10.78,5.84,15.35,6.82,9.24,19.87,9.22,26.68-.02,1.49-2.02,2.61-4.23,3.49-6.57,2.9-7.7,3.39-15.75,3.58-23.59Z"/>
      <path class="cls-1" d="M711.35,54.02c0-16.86,.03-33.72-.05-50.58,0-1.67,.46-1.96,2.01-1.95,17.55,.06,35.1,.05,52.65,0,1.45,0,1.99,.24,1.94,1.84-.12,4.62-.1,9.25,0,13.88,.03,1.39-.38,1.72-1.74,1.71-10.6-.06-21.21,0-31.81-.07-1.6-.01-1.86,.5-1.85,1.95,.08,7.06,.08,14.12,0,21.18-.02,1.54,.26,2.04,1.95,2.02,9.81-.1,19.62-.02,29.43-.08,1.52-.01,2.11,.22,2.05,1.94-.15,4.5-.11,9.01-.01,13.51,.03,1.53-.25,2.05-1.95,2.04-9.87-.1-19.74,0-29.62-.09-1.57-.01-1.87,.44-1.86,1.92,.08,8.09,.08,16.19,0,24.28-.01,1.48,.31,1.94,1.87,1.93,11.03-.07,22.06,0,33.09-.07,1.49,0,1.95,.36,1.92,1.89-.11,4.68-.08,9.37-.01,14.06,.02,1.15-.33,1.41-1.43,1.41-18.4-.03-36.81-.04-55.21,.01-1.58,0-1.39-.81-1.39-1.8,0-16.98,0-33.96,0-50.95Z"/>
      <path class="cls-1" d="M186.19,54.11c0-16.92,.02-33.84-.04-50.76,0-1.53,.38-1.87,1.89-1.87,17.61,.06,35.22,.05,52.83,0,1.37,0,1.85,.26,1.82,1.75-.11,4.68-.09,9.37,0,14.06,.02,1.3-.38,1.62-1.64,1.61-10.66-.05-21.33,0-31.99-.06-1.37,0-1.7,.32-1.69,1.69,.08,7.24,.09,14.49,0,21.73-.02,1.55,.53,1.72,1.84,1.71,9.87-.05,19.74,.02,29.61-.07,1.7-.02,1.98,.5,1.95,2.03-.1,4.62-.09,9.25,0,13.88,.02,1.33-.4,1.58-1.64,1.57-9.99-.05-19.99,0-29.98-.06-1.44,0-1.78,.37-1.77,1.78,.07,8.22,.07,16.43,0,24.65-.01,1.38,.35,1.7,1.71,1.7,11.09-.06,22.18,0,33.27-.06,1.39,0,1.88,.28,1.84,1.78-.1,4.68-.07,9.37-.01,14.06,.02,1.16-.26,1.53-1.5,1.53-18.34-.04-36.68-.05-55.02,0-1.47,0-1.47-.61-1.47-1.71,.03-16.98,.02-33.96,.02-50.94Z"/>
      <path class="cls-1" d="M102.96,54.11c0-16.92,.02-33.83-.04-50.75,0-1.55,.42-1.88,1.91-1.87,9.69,.07,19.37,.01,29.06,.05,6.4,.02,12.61,1.03,18.34,4.07,8.05,4.27,12.48,11.21,14.11,19.96,1.52,8.16,1.16,16.27-2.22,23.98-4.2,9.59-12.04,14.43-22.05,16.25-5.31,.97-10.68,.74-16.04,.68-1.48-.01-1.93,.3-1.92,1.86,.07,12.23,.02,24.46,.07,36.69,0,1.29-.2,1.75-1.65,1.73-5.97-.1-11.94-.09-17.91,0-1.4,.02-1.69-.38-1.69-1.72,.05-16.98,.03-33.95,.03-50.93Zm21.19-20.21c0,4.8,.03,9.6-.02,14.4-.01,1.06,.17,1.53,1.37,1.47,2.19-.11,4.38,.02,6.57-.08,7.1-.32,11.56-3.45,13.07-9.25,1.04-4,1.11-8.05,.18-12.09-1.29-5.63-4.77-8.76-10.47-9.68-3.03-.49-6.07-.24-9.1-.38-1.25-.06-1.66,.27-1.63,1.58,.08,4.68,.03,9.36,.03,14.04Z"/>
      <path class="cls-1" d="M409.43,83.66c5.49,3.62,11.16,5.88,17.32,6.78,4.06,.59,8.08,.69,12.07-.73,8.98-3.19,10.63-16.59,3.63-21.79-3.93-2.92-8.21-5.19-12.44-7.58-4.7-2.66-9.63-4.99-13.61-8.76-8.8-8.33-11.28-18.62-8.37-30.03,2.92-11.44,11.08-17.81,22.31-20.36,9.8-2.23,19.49-1.1,29.03,1.71,3.88,1.14,3.88,1.17,3.67,5.22-.24,4.68-.5,9.35-.76,14.16-3.78-1.32-7.33-2.93-11.13-3.77-4.61-1.02-9.26-1.58-13.94-.55-4.03,.89-7.04,3.13-8.08,7.28-1.1,4.37-.22,8.34,3.21,11.5,2.08,1.91,4.56,3.21,6.99,4.61,5.42,3.13,11,5.97,16.25,9.39,8.6,5.6,12.76,13.52,12.94,23.73,.14,7.69-1.26,14.88-5.96,21.16-5.05,6.74-12.07,10.32-20.17,11.71-9.66,1.66-19.29,1.21-28.72-1.7-5.39-1.66-5.42-1.7-5.16-7.14,.23-4.84,.59-9.68,.9-14.83Z"/>
      <path class="cls-1" d="M829.26,237.4c0-.66,0-1.32,0-1.99,0-26.84,.02-53.69-.04-80.53,0-1.7,.46-2.15,2.11-2.07,2.92,.14,5.85,.09,8.77,.01,1.17-.03,1.59,.26,1.56,1.5-.08,3.22-.03,6.45-.03,9.68,0,29.95-.02,59.9,.04,89.84,0,1.65-.45,2-2.01,1.95-4.14-.12-8.29-.1-12.43,0-1.28,.03-1.88-.39-2.41-1.55-12.34-26.91-24.73-53.81-37.11-80.7-.27-.59-.56-1.17-.96-1.99-.43,.87-.27,1.58-.27,2.24,0,26.6-.03,53.2,.03,79.8,0,1.71-.31,2.32-2.14,2.2-2.79-.18-5.61-.13-8.41-.01-1.47,.06-1.92-.26-1.92-1.84,.07-13.7,.04-27.39,.04-41.09,0-19.36,.02-38.71-.04-58.07,0-1.63,.41-2.04,2.01-1.99,4.02,.12,8.05,.11,12.06,0,1.48-.04,2.23,.42,2.85,1.78,12.31,27.06,24.67,54.1,37.03,81.14,.27,.58,.57,1.15,.85,1.73,.14-.02,.27-.04,.41-.06Z"/>
      <path class="cls-1" d="M330.84,237.39c0-.66,0-1.33,0-1.99,0-26.84,.02-53.69-.04-80.53,0-1.72,.48-2.13,2.12-2.06,2.92,.13,5.85,.09,8.77,0,1.19-.03,1.58,.28,1.55,1.51-.08,3.59-.03,7.18-.03,10.77,0,29.52-.02,59.04,.05,88.57,0,1.82-.49,2.19-2.21,2.13-4.08-.14-8.17-.1-12.25,0-1.29,.03-1.88-.41-2.41-1.55-12.35-26.91-24.73-53.81-37.11-80.71-.27-.59-.56-1.17-1.24-1.74,0,.67,0,1.34,0,2.01,0,26.6-.02,53.2,.04,79.8,0,1.71-.32,2.31-2.15,2.2-2.79-.18-5.61-.14-8.41-.01-1.48,.07-1.91-.29-1.91-1.85,.07-15.03,.04-30.07,.04-45.1,0-18.02,.03-36.04-.04-54.05,0-1.65,.44-2.02,2.02-1.98,4.02,.12,8.05,.11,12.06,0,1.49-.04,2.23,.43,2.85,1.79,9.61,21.16,19.28,42.29,28.94,63.42,2.72,5.96,5.45,11.92,8.17,17.88,.24,.53,.5,1.05,.75,1.57,.14-.03,.28-.05,.43-.08Z"/>
      <path class="cls-1" d="M648.78,24.21c-3.88-1.87-7.46-3.95-11.49-4.97-9.81-2.49-19.02-1.63-26.9,5.32-5.24,4.63-7.75,10.81-8.94,17.54-1.7,9.64-1.71,19.26,1.16,28.71,4.2,13.81,15.36,20.95,29.73,19.33,5.92-.67,11.43-2.2,16.33-6.15,.12,1.34,.25,2.46,.32,3.57,.3,4.92,.51,9.85,.91,14.76,.12,1.52-.44,2.14-1.75,2.64-3.78,1.45-7.71,2.19-11.71,2.66-8.47,.99-16.91,.98-25.18-1.44-13.19-3.85-22.79-12.07-27.96-24.73-7.64-18.71-7.69-37.7,.85-56.11,7-15.1,19.5-23.16,36.04-24.95,9.68-1.04,19.03,.52,28.18,3.68,1.29,.45,1.62,1.06,1.53,2.35-.42,5.87-.74,11.75-1.11,17.79Z"/>
      <path class="cls-1" d="M847.08,1.53c7.54,0,14.78,.03,22.02-.03,1.14,0,1.24,.81,1.56,1.46,5.89,12.05,11.76,24.1,17.64,36.15,.29,.58,.59,1.16,.99,1.96,1.3-2.8,2.52-5.43,3.74-8.07,4.61-10.03,9.24-20.06,13.8-30.11,.48-1.05,1-1.39,2.14-1.39,7.07,.06,14.13,.03,21.23,.03,.01,.83-.48,1.41-.79,2.04-9.76,19.95-19.52,39.89-29.31,59.83-.55,1.11-.83,2.22-.83,3.48,.04,12.72,0,25.44,.05,38.16,0,1.3-.2,1.75-1.65,1.72-5.97-.1-11.94-.09-17.91,0-1.37,.02-1.7-.33-1.7-1.7,.06-12.96,.03-25.93,.05-38.89,0-1.13-.24-2.11-.74-3.13-9.82-19.85-19.6-39.72-29.39-59.59-.26-.53-.51-1.08-.91-1.92Z"/>
      <path class="cls-1" d="M375.94,204.22c0-16.49,.03-32.98-.05-49.46,0-1.68,.48-1.98,2.03-1.95,8.16,.16,16.32-.06,24.48,.19,23.24,.7,35.95,15.73,40.23,32.43,3.47,13.52,3.11,27.04-1.36,40.25-5.2,15.38-16.25,24.49-31.92,28.22-5.71,1.36-11.52,1.88-17.38,1.86-4.69-.02-9.38-.07-14.07,.03-1.53,.03-2.01-.25-2.01-1.93,.08-16.55,.05-33.1,.05-49.64Zm12.94-.02c0,12.83,.03,25.67-.04,38.5,0,1.54,.43,1.96,1.93,1.89,3.1-.15,6.22,.02,9.31-.19,12.78-.88,22.25-6.85,27.07-18.89,5.34-13.32,5.66-27.06,1.35-40.7-3.26-10.31-10.43-16.88-21.03-19.53-5.43-1.36-10.98-1.2-16.52-1.26-1.6-.02-2.13,.3-2.12,2.04,.09,12.71,.05,25.42,.05,38.14Z"/>
      <path class="cls-1" d="M76.88,201.92c.32-9.83,1.7-20.6,6.54-30.7,11.07-23.1,39.55-23.24,52.6-12.66,7.13,5.79,11.37,13.33,13.95,21.95,3.03,10.11,3.42,20.47,2.75,30.9-.53,8.23-2.07,16.23-5.28,23.9-10.66,25.49-40.09,25.5-53.3,15.02-7.42-5.88-11.74-13.64-14.35-22.51-2.37-8.07-3.06-16.35-2.91-25.89Zm62.52,1.78c.1-5.07-.3-10.1-1.19-15.08-1.16-6.5-3.03-12.76-7.07-18.16-6.68-8.94-19.17-10.71-28.07-3.95-5.61,4.27-8.43,10.3-10.11,16.88-3.11,12.2-3.31,24.54-1.24,36.92,1.05,6.28,2.94,12.29,6.72,17.54,5.47,7.61,14.52,10.35,23.32,7.06,7.05-2.63,10.98-8.18,13.58-14.87,3.29-8.47,3.99-17.36,4.06-26.34Z"/>
      <path class="cls-1" d="M748.65,203.86c-.09,10.77-1.24,21.35-5.54,31.37-9.03,21.06-35.28,28.52-53.23,15.09-7.58-5.67-11.8-13.58-14.4-22.46-2.8-9.57-3.33-19.38-2.76-29.27,.5-8.66,1.88-17.15,5.35-25.18,8.79-20.31,33.58-28.15,51.61-16.26,8.1,5.34,12.73,13.21,15.61,22.23,2.55,7.95,3.43,16.15,3.36,24.47Zm-13.57,0c.09-5.07-.31-10.1-1.18-15.09-1.09-6.26-2.93-12.26-6.55-17.62-8.18-12.1-24.73-10.75-32.32-1.13-3.11,3.94-5.16,8.38-6.37,13.18-3.11,12.27-3.34,24.66-1.27,37.11,1.04,6.22,2.91,12.17,6.63,17.38,6.94,9.74,20.22,11.42,29.38,3.71,3.63-3.06,5.96-7.02,7.63-11.39,3.23-8.42,3.96-17.25,4.05-26.16Z"/>
      <path class="cls-1" d="M799.45,62.7c0-14-.03-28,.04-41.99,0-1.57-.43-1.87-1.91-1.85-6.52,.09-13.04,0-19.56,.07-1.27,.01-1.65-.32-1.63-1.61,.08-4.75,.06-9.49,0-14.24-.01-1.09,.14-1.58,1.44-1.58,21.45,.04,42.9,.04,64.34,0,1.16,0,1.42,.34,1.41,1.44-.06,4.75-.08,9.49,0,14.24,.02,1.35-.3,1.76-1.7,1.75-6.4-.08-12.8,.02-19.19-.07-1.61-.02-2.11,.33-2.1,2.04,.06,27.93,.03,55.87,.08,83.8,0,1.63-.37,2.1-2.05,2.07-5.85-.11-11.7-.09-17.55,0-1.39,.02-1.68-.36-1.68-1.71,.05-14.12,.03-28.24,.03-42.36Z"/>
      <path class="cls-1" d="M243.17,190.86c0,9.98,.05,19.96-.02,29.95-.04,6.48-.75,12.84-3.54,18.84-4.65,9.97-12.62,15.29-23.32,16.79-6.88,.96-13.63,.33-20.02-2.55-9.41-4.24-14.44-11.92-16.65-21.69-.85-3.75-1.07-7.59-1.07-11.42-.03-22.09,0-44.19-.06-66.28,0-1.43,.44-1.71,1.75-1.67,3.11,.09,6.22,.12,9.32,0,1.58-.07,2.04,.32,2.04,1.98-.06,21.3-.03,42.61-.05,63.91,0,5.51,.5,10.92,2.68,16.07,4.52,10.65,16.61,14.8,26.03,8.87,4.89-3.08,7.28-7.85,8.7-13.22,1.02-3.85,1.21-7.8,1.21-11.76-.01-21.24,.01-42.48-.04-63.73,0-1.63,.35-2.2,2.08-2.12,3.1,.15,6.22,.12,9.32,0,1.38-.05,1.72,.34,1.71,1.71-.06,12.11-.03,24.22-.03,36.34h-.02Z"/>
      <path class="cls-1" d="M540.38,255.75c-4.35,0-8.54-.03-12.72,.02-1.14,.01-1.03-.88-1.22-1.49-2.41-7.76-4.82-15.53-7.14-23.32-.45-1.5-1.04-2.06-2.72-2.05-11.7,.09-23.39,.1-35.09,0-1.77-.02-2.34,.57-2.81,2.16-2.28,7.74-4.75,15.42-7.06,23.15-.37,1.23-.88,1.59-2.13,1.56-3.71-.1-7.42-.03-11.34-.03,1.7-5.08,3.33-10.01,4.99-14.94,9.59-28.58,19.2-57.15,28.74-85.75,.57-1.71,1.24-2.38,3.12-2.28,3.4,.19,6.82,.14,10.23,.01,1.32-.05,1.74,.47,2.11,1.6,8.74,26.82,17.51,53.62,26.28,80.42,2.09,6.4,4.18,12.8,6.26,19.2,.17,.51,.31,1.03,.51,1.72Zm-40.9-89.18c-.12-.02-.24-.03-.35-.05-5.39,17.02-10.77,34.04-16.17,51.1h32.24c-5.27-17.12-10.49-34.09-15.71-51.05Z"/>
      <path class="cls-1" d="M916.78,167.77c-4.9-2.78-9.88-4.21-15.17-4.62-4.83-.38-9.32,.42-13.23,3.52-5.91,4.7-7.75,15.77-.87,21.98,4.14,3.74,8.88,6.58,13.64,9.4,5.36,3.18,10.35,6.8,14.47,11.57,10.27,11.88,7.99,36.34-8.83,44.08-3.7,1.7-7.56,2.71-11.59,2.97-8.06,.52-15.89-.6-23.43-3.59-1.12-.44-1.53-1.02-1.5-2.27,.1-3.82,.04-7.64,.04-11.73,3.14,1.63,6.07,3.16,9.18,4.32,5.73,2.12,11.5,3.07,17.47,1.07,11.22-3.76,15.11-17.65,7.43-26.68-2.84-3.33-6.43-5.75-10.09-8.06-5.76-3.63-11.63-7.09-16.67-11.75-5.19-4.8-7.76-10.71-8.04-17.75-.29-7.3,.99-14.06,6.11-19.63,5.04-5.49,11.55-7.95,18.8-8.56,6.86-.58,13.59,.31,20.17,2.4,1.52,.49,2.27,1.05,2.17,2.86-.2,3.38-.06,6.79-.06,10.46Z"/>
      <path class="cls-1" d="M690.94,54.14c0,16.91-.02,33.82,.04,50.73,0,1.5-.32,1.92-1.86,1.89-5.91-.1-11.81-.07-17.72-.02-1.19,.01-1.68-.17-1.67-1.54,.04-34.07,.04-68.13,0-102.2,0-1.18,.3-1.53,1.52-1.52,6.03,.07,12.06,.09,18.09-.01,1.47-.02,1.64,.48,1.64,1.75-.04,16.97-.03,33.94-.03,50.92Z"/>
      <path class="cls-1" d="M10.3,204.21c0-16.49,.02-32.98-.03-49.47,0-1.48,.3-1.93,1.86-1.92,14.13,.07,28.27,.07,42.4,0,1.57,0,1.93,.44,1.86,1.92-.13,2.55-.12,5.11,0,7.66,.06,1.35-.28,1.71-1.67,1.7-9.87-.07-19.74-.01-29.61-.07-1.37,0-1.84,.26-1.83,1.75,.08,9.8,.07,19.59,0,29.39,0,1.42,.42,1.7,1.75,1.69,9.26-.06,18.52,.02,27.78-.08,1.69-.02,2.04,.48,1.96,2.03-.13,2.49-.12,4.99,0,7.48,.07,1.38-.36,1.72-1.72,1.71-9.26-.06-18.52,.01-27.78-.08-1.65-.02-1.99,.44-1.99,2.02,.06,14.67,.02,29.33,.07,44,0,1.38-.26,1.9-1.77,1.83-3.1-.13-6.22-.12-9.32,0-1.52,.06-2.02-.23-2.02-1.92,.08-16.55,.05-33.1,.05-49.66Z"/>
      <path class="cls-1" d="M571.28,209.81c0-14.66-.02-29.33,.03-43.99,0-1.42-.34-1.8-1.78-1.79-6.7,.08-13.4-.02-20.1,.08-1.5,.02-1.79-.46-1.74-1.82,.1-2.61,.1-5.23,0-7.85-.05-1.3,.38-1.61,1.64-1.61,12.43,.04,24.85,.03,37.28,.03,6.58,0,13.16,.02,19.74-.02,1.14,0,1.61,.2,1.56,1.48-.11,2.79-.1,5.6,0,8.39,.04,1.18-.35,1.39-1.43,1.38-6.76-.05-13.52,.02-20.28-.06-1.5-.02-1.9,.33-1.9,1.87,.05,29.26,.03,58.53,.07,87.79,0,1.59-.29,2.21-2.04,2.12-3.16-.16-6.33-.12-9.5-.01-1.33,.04-1.58-.4-1.57-1.63,.04-14.78,.03-29.57,.03-44.35Z"/>
      <path class="cls-1" d="M632.08,204.2c0-16.49,.02-32.97-.03-49.46,0-1.5,.35-1.99,1.9-1.93,3.16,.12,6.34,.12,9.5,0,1.4-.05,1.69,.38,1.69,1.72-.05,17.28-.03,34.55-.03,51.83,0,15.88-.02,31.75,.03,47.63,0,1.4-.3,1.85-1.76,1.8-3.16-.12-6.33-.11-9.5,0-1.4,.04-1.83-.29-1.83-1.77,.06-13.63,.04-27.25,.04-40.88v-8.94Z"/>
    </g>
  </g>
</svg>