<svg width="800" height="306" viewBox="0 0 800 306" fill="none" xmlns="http://www.w3.org/2000/svg">
<g clip-path="url(#clip0_206_84)">
<path d="M799.221 228.89V232.89C797.561 233.53 795.901 234.18 794.241 234.82C788.911 236.19 783.581 237.57 778.251 238.94C773.231 240.02 771.741 236.97 771.131 232.87V226.42C769.151 227.26 767.521 227.96 765.881 228.65C758.481 231.76 751.481 235.96 743.351 237.12C742.311 237.14 741.271 237.15 740.231 237.17C727.251 235.14 718.591 227.57 713.071 215.99C712.361 213.62 711.661 211.25 710.951 208.87C710.691 207.57 710.431 206.27 710.181 204.97C710.171 204.28 710.161 203.59 710.151 202.89C709.991 197.8 710.881 192.85 712.211 187.96C714.371 182.65 717.401 177.84 720.751 173.22C720.951 173.16 721.071 173.03 721.091 172.82C725.541 169.23 729.341 164.86 734.311 161.89C735.751 161.09 737.201 160.3 738.641 159.5L742.331 157.86C742.741 157.6 743.151 157.34 743.551 157.08L743.391 157.3C744.011 157.16 744.631 157.01 745.251 156.87C745.611 156.78 745.971 156.7 746.331 156.61C752.281 155.36 758.251 155.69 764.221 156.43C767.031 156.57 771.201 159.92 771.611 153.92C772.151 145.97 772.631 138 772.001 130.02C771.941 129.05 771.891 128.07 771.831 127.1C772.171 125.07 772.091 123.06 771.391 121.11C771.371 118.83 771.381 116.54 771.311 114.26C771.145 108.373 768.151 104.797 762.331 103.53C760.671 101.99 761.601 100.67 762.681 99.3602L764.611 98.6502C769.841 96.2202 774.751 93.2402 779.351 89.7502C784.481 87.1402 785.141 87.5302 785.151 93.2402C785.151 94.9102 784.991 96.5802 784.901 98.2502C784.781 103.2 784.661 108.15 784.541 113.1C784.501 118.4 784.451 123.69 784.411 128.99C784.411 131.69 784.411 134.39 784.411 137.09C784.171 164.25 783.921 191.4 784.521 218.56C784.461 218.89 784.521 219.19 784.711 219.45C784.911 220.93 785.101 222.41 785.301 223.9C785.341 224.59 785.371 225.28 785.411 225.97C785.291 226.27 785.311 226.57 785.471 226.85C785.641 231.31 787.811 231.8 791.251 229.77C792.561 229.64 793.691 229.22 794.381 228L794.351 228.04C796.071 227.79 797.651 228.33 799.221 228.92V228.89ZM763.411 167.54L763.541 167.62C759.841 165.14 755.711 164.18 751.321 164.11C750.641 164.03 749.961 163.95 749.291 163.87C734.631 162.45 724.511 172.73 723.691 185.94L723.651 186.94C723.661 187.59 723.681 188.23 723.691 188.88C723.061 193.68 723.591 198.38 724.881 203.01C726.221 209.13 728.281 214.85 733.621 218.76C737.611 223.8 743.081 225.91 749.241 226.67C749.931 226.69 750.631 226.71 751.321 226.73L751.771 226.82L752.221 226.73C756.481 226.81 760.531 226.01 764.261 223.85C766.921 222.57 770.981 222.68 770.111 217.92C770.251 217.63 770.301 217.32 770.281 217C772.281 214.5 770.841 211.6 771.231 208.91C772.041 207.28 771.841 205.63 771.371 203.97C771.551 201.62 771.731 199.27 771.911 196.92C772.271 195.59 772.401 194.27 771.871 192.95C771.721 191.26 771.581 189.57 771.431 187.87C771.391 185.06 771.541 182.24 771.241 179.46C770.991 177.22 772.441 174.46 769.571 172.86C768.991 169.38 766.301 168.33 763.411 167.53V167.54Z" fill="#9F9FA7"/>
<path d="M0 39.1198C0 38.7898 0 38.4498 0 38.1198C4.13 34.2698 8.25 30.4298 12.64 26.3398C14.05 29.4598 10.63 35.6998 17.92 33.9498C21.45 34.5498 25.04 32.6498 28.54 34.2498C28.89 38.1198 27.11 39.6598 23.28 39.2898C21.16 39.0898 19 39.2598 16.85 39.2598C14.2 39.2598 12.7 40.0198 12.74 43.2298C12.81 48.9898 12.31 54.7498 12.17 60.5098C12.12 62.6098 12.02 64.8598 14.22 66.2098L14.27 66.0998C14.42 67.3498 15.57 67.2798 16.36 67.6898L16.78 67.6598L16.84 67.2498C18.3 69.1298 20.14 68.4798 21.95 68.0198C23.85 69.2298 25.77 64.2298 27.66 68.0398C24.52 72.2898 19.79 73.3098 15.02 74.2398C11.65 74.2098 8.82 72.6298 5.98 71.0698C3.85 63.8098 6.29 56.3598 5.07 49.0598C4.98 48.3898 4.89 47.7098 4.8 47.0398C3.84 44.7798 7.34 41.3298 2.93 39.9798C1.95 39.6998 0.98 39.4098 0 39.1198Z" fill="#9F9FA7"/>
<path d="M35.4602 9.01C34.2502 7.54 33.7602 6.09 35.8402 4.97C38.8802 3.33 41.5002 0.92 44.9202 0C45.3102 0.41 45.7002 0.81 46.0802 1.22C46.1202 8.55 45.0002 15.86 45.7402 23.21C45.6802 27.14 45.6802 31.08 45.5302 35C45.4202 37.86 46.5402 37.86 48.7702 36.88C52.3502 35.32 56.0702 34.06 59.7302 32.67C69.0802 32.48 71.8302 34.75 73.4402 43.81C74.6502 50.6 73.0502 57.36 73.4402 64.14C73.5402 65.87 72.8202 67.93 75.2302 68.78C75.9502 69.09 76.6702 69.41 77.3902 69.72C79.4402 71.62 79.8702 73.02 76.3102 73.13C73.5402 73.21 70.7602 73.23 67.9902 73.28C65.4202 73.34 62.8502 73.39 60.2902 73.45C60.5802 72.39 59.4502 70.53 60.5602 70.34C67.9002 69.06 65.8502 63.22 66.5202 58.69C66.5502 58.16 66.5902 57.63 66.6202 57.1C66.8402 55.69 66.9402 54.29 66.3202 52.95C66.2102 52.01 66.1102 51.07 66.0002 50.13C65.9702 49.79 65.9302 49.46 65.9002 49.12C66.0502 45.9 66.0002 42.76 62.6602 40.91C58.7002 36.31 48.6402 37.79 45.4302 43.45C44.6902 46.65 44.8902 49.87 45.2502 53.09C45.5402 58.25 44.3502 63.63 47.4902 68.37L47.5902 68.31C47.8202 68.94 48.3102 69.01 48.8802 68.92C49.8402 69.07 50.7902 69.22 51.7502 69.37C52.3702 71.93 51.8202 73.25 48.7202 73.08C45.1702 72.88 41.5802 73.21 38.0102 73.3C37.1902 73.3 36.3402 73.16 35.5502 73.32C34.1902 73.59 32.7902 73.88 32.2302 72.24C31.6102 70.41 33.7102 70.4 34.4102 69.42C37.5702 68.09 37.9002 65.38 37.9002 62.43C37.8702 46.56 37.9002 30.69 37.8702 14.82C37.8702 13.54 38.2202 12.14 36.9902 11.13C37.0702 9.99 36.7302 9.16 35.4402 9.01H35.4602Z" fill="#9F9FA7"/>
<path d="M53.1794 157.03C52.4594 159.74 51.3594 162.41 51.0894 165.17C50.6294 169.88 48.2394 171.02 43.7794 171.05C33.8394 171.12 23.8994 169.64 13.9594 170.86C11.9394 170.35 9.94937 170.77 7.95937 171.09C6.98937 171.11 6.02937 171.14 5.05937 171.16C3.54937 170.91 1.36937 171.68 1.28937 169.1C1.21937 166.74 3.57937 167.51 4.65937 167.24C8.10937 166.36 9.78937 164.44 9.73937 160.94C10.2394 144.65 10.1894 128.36 9.75937 112.07C10.1294 108.06 7.43937 108.05 4.59937 107.97C3.44937 107.94 1.65937 108.87 1.19937 107.08C0.649371 104.94 2.25937 104.23 4.04937 103.92C5.68937 103.92 7.31937 103.92 8.95937 103.92C10.9794 103.91 13.0094 103.89 15.0294 103.88C17.9994 103.83 20.9794 103.86 23.9394 103.68C25.4694 103.59 27.1294 103.1 27.5194 105.15C28.0094 107.76 25.7794 106.88 24.5594 107.11C21.2194 107.73 18.2994 108.67 18.9894 113.04C17.7994 118.01 18.0494 123.04 18.2794 128.07C18.2794 133.03 18.2794 137.99 18.2794 142.95C18.2994 146.32 18.3294 149.69 18.3494 153.06C18.4594 156.36 18.5094 159.65 18.6994 162.95C18.7794 164.25 18.9594 165.76 20.7094 165.9C27.2094 166.41 33.7294 167.26 40.1194 165.12L40.2394 165.43C42.6294 164.66 45.4894 164.48 45.7094 161.03C45.3994 158.5 49.4494 159.15 49.0194 156.44C48.8494 155.34 49.5694 154.68 50.7794 154.7C52.3494 154.72 53.1394 155.48 53.1694 157.04L53.1794 157.03Z" fill="#9F9FA7"/>
<path d="M705.95 157.51C713.04 163.36 713.16 165.21 706.91 172.43L706.97 172.56C703.23 175.92 699.91 173.67 696.56 171.8C693.67 169.57 690.53 169.38 687.27 170.77C681.14 173.37 675.19 179.2 676.18 187.89C676.11 200.43 676.06 212.97 675.98 225.51C675.96 228.9 677.26 230.74 680.98 230.59C684.1 230.47 687.23 230.76 690.36 230.87C690.69 231.54 691.03 232.22 691.36 232.89C689.9 233.26 690.99 235.38 689.44 235.69C684.39 235.19 679.33 235.11 674.28 235.71C667.98 234.69 661.68 236.05 655.38 235.8L655.16 234.8C655.43 230.7 660.48 232.22 661.7 229.24L661.58 229.12C662.71 228.54 662.78 227.5 662.77 226.42L662.75 226.54C664.07 214.03 663.23 201.49 663.23 188.96C663.23 188.61 663.23 188.26 663.23 187.91C662.75 180.83 666.56 172.25 656.4 168.52C655.5 168.19 655.05 166.81 656.24 166.12C663.01 162.19 668.42 156 676.33 153.97C676.41 155.32 676.49 156.67 676.57 158.01C676.36 161.63 676.24 165.26 675.91 168.86C675.61 172.04 676.75 172.4 679.11 170.71C684.33 166.98 689.58 163.27 694.72 159.43C697.61 157.27 700.56 155.73 704.28 156.82C704.83 157.05 705.39 157.27 705.94 157.5L705.95 157.51Z" fill="#9F9FA7"/>
<path d="M95.9701 136.02C94.7001 143.28 94.9401 150.6 95.2101 157.92C95.2201 158.95 95.2401 159.99 95.2501 161.02C95.3401 161.76 95.4301 162.5 95.5201 163.24C95.4301 165 95.7801 166.11 98.0201 165.52C99.5801 165.12 101.25 165.17 102.87 165.02L102.9 166.95C101.69 170.46 98.2401 169.27 95.8501 170.29C94.8701 170.5 93.9001 170.73 92.9201 170.93C89.2101 171.7 85.7601 172.13 87.7201 166.11C83.8901 166.83 81.2401 168.88 78.2701 170.18C67.9801 174.68 61.0401 170.12 61.3201 158.99C61.4601 153.34 61.5601 147.69 61.6701 142.04C61.7101 139.83 61.6701 137.64 59.2901 136.48C57.9101 135.81 56.4701 135.04 56.7501 133.26C57.0301 131.47 58.9501 132.2 60.0301 131.59C60.6001 131.27 61.2701 131.11 61.8901 130.88C64.2801 131.49 66.7701 128.46 69.1001 131.07C68.8601 140.35 68.6101 149.62 68.3701 158.9C68.3101 163.12 71.0101 164.74 74.6001 165.52C83.3901 166.59 87.8801 163.02 87.8501 154.99C88.6601 151.02 88.4701 147.03 88.0701 143.04C88.3801 139.34 88.0201 136.14 83.3001 135.55C82.1101 135.4 80.6501 134.94 80.9001 133.08C81.1501 131.19 82.6401 132.09 83.5901 131.9C85.6701 131.49 87.7801 131.23 89.8801 130.9C92.2101 130.9 94.4901 131.03 95.8301 133.39C95.0101 133.97 94.7701 134.55 95.8601 135.1C95.8301 135.41 95.8601 135.71 95.9501 136.01L95.9701 136.02Z" fill="#9F9FA7"/>
<path d="M185.838 170.91C181.858 170.94 177.878 170.94 173.908 171.02C172.658 171.05 171.458 170.85 171.098 169.61C170.908 168.97 171.348 167.56 171.818 167.4C177.788 165.3 175.078 160.37 175.498 156.47L175.528 156.29C175.688 146.85 175.848 137.4 176.008 127.96C176.428 126.66 176.438 125.36 175.928 124.08C175.908 119.61 175.758 115.13 175.928 110.67C176.028 108.07 175.228 106.63 172.558 106.29C171.738 106.19 170.348 106.54 170.408 105.01C170.458 103.94 171.218 103.37 172.258 102.95C176.088 101.41 179.868 99.7501 183.668 98.1401C183.798 99.8101 183.938 101.47 184.068 103.14C184.188 111.44 182.048 119.65 183.058 127.98C183.028 138.61 182.858 149.24 183.038 159.87C183.098 163.27 182.628 167.86 188.698 166.6C189.748 166.38 190.718 166.66 190.738 168.04C190.748 169.11 190.428 170.02 189.238 170.28C188.118 170.52 186.988 170.7 185.858 170.91H185.838Z" fill="#9F9FA7"/>
<path d="M136.271 162.24C140.481 162.53 138.121 165.23 137.161 165.95C131.701 170.03 125.671 172.81 118.631 170.75C112.171 168.86 108.221 164.45 106.931 157.82C104.171 143.49 117.201 128.83 131.801 129.82C132.791 129.89 133.851 129.91 134.741 130.3C136.951 131.26 140.141 131.67 140.091 134.72C140.041 137.47 137.231 138.02 134.971 138.63C132.711 137.62 130.531 136.4 128.191 135.63C122.571 133.78 116.721 136.65 115.141 142.22C113.621 147.57 113.471 153 116.091 158.18C116.501 160.51 118.041 161.95 119.941 163.11C126.001 167.24 129.371 167.06 136.281 162.25L136.271 162.24Z" fill="#9F9FA7"/>
<path d="M164.751 166.14C165.721 169.68 164.311 170.85 160.761 170.71C156.621 170.55 152.461 170.91 148.311 170.99C147.231 171.01 145.881 171.39 145.731 169.56C145.621 168.13 146.241 167.25 147.611 167.17C150.871 166.96 150.991 164.51 151.291 162.2C152.261 154.91 151.581 147.58 151.801 140.28C151.861 138.38 150.771 137.72 149.251 137.16C148.081 136.73 145.831 138.06 145.951 135.41C146.041 133.52 147.741 133.26 149.131 132.75C149.421 132.64 149.651 132.36 149.901 132.16C152.841 131.27 157.021 128.75 158.441 129.84C160.901 131.71 158.441 135.88 158.851 139.07C158.891 139.39 158.941 139.72 158.981 140.04C158.931 148.01 158.201 155.97 158.931 163.94C159.271 168.86 162.971 164.94 164.731 166.15L164.751 166.14Z" fill="#9F9FA7"/>
<path d="M86.619 67.55C84.109 63.06 82.759 58.28 82.919 53.11C83.819 48.01 86.009 43.48 89.069 39.35C89.779 38.67 90.489 37.99 91.209 37.32C95.319 34.26 99.549 31.58 105.039 32.52C108.689 33.85 111.489 36.26 113.719 39.38C114.179 40.22 114.509 41.17 115.119 41.88C115.829 42.71 118.149 41.09 117.889 43.38C117.699 45.07 116.529 46.12 114.619 46.47C111.299 47.09 108.029 48.01 104.729 48.81C101.029 49.28 97.369 49.88 93.869 51.26C92.069 51.19 91.249 52.02 91.059 53.86C90.129 63.06 97.949 69.56 107.239 67.22C110.179 67.27 112.249 65.38 114.519 63.93C115.789 63.11 117.129 62.04 117.399 64.74C114.969 70.12 109.299 70.73 104.919 73.24C100.759 74.61 96.769 73.74 92.829 72.3C90.759 70.72 88.679 69.13 86.609 67.55H86.619ZM92.809 48.09C97.539 46.95 101.039 45.82 104.619 45.32C108.369 44.79 107.669 42.76 106.249 40.93C104.109 38.18 101.599 35.35 97.509 37.1C93.479 38.82 92.729 42.74 92.039 46.5C91.779 47.9 92.849 48.08 92.809 48.09Z" fill="#9F9FA7"/>
<path d="M194.6 159.04C194.74 158.19 194.56 157.44 193.9 156.85C193.22 141.09 202.05 130.2 215.76 129.91C218.51 131.34 221.23 132.8 223.37 135.13C223.46 138.68 227.36 139.2 228.65 141.81C227.55 142.44 227.27 144.08 225.74 144.17C220.09 145.41 214.43 146.65 208.78 147.89C206.28 148.53 202.64 147.28 201.88 150.98C200.41 158.13 206.17 165.1 213.43 165.39C217.72 165.56 221.61 164.49 224.88 161.59C225.74 161.22 226.63 160.24 227.54 161.12C228.32 161.88 228.09 163.2 227.48 163.84C226.12 165.26 224.47 166.42 222.95 167.68C220.57 168.78 218.19 169.87 215.81 170.97C204.32 172.27 198.38 168.93 194.62 159.04H194.6ZM213.8 142.93C218.84 142.03 218.96 141.69 215.84 137.39C214.72 135.41 212.88 134.6 210.75 134.26C206.66 134.6 201.36 140.72 203.07 144C204.64 147 207.76 143.84 210.22 143.92C210.8 143.94 211.39 143.52 211.98 143.3C212.59 143.18 213.2 143.06 213.81 142.93H213.8Z" fill="#9F9FA7"/>
<path d="M614.44 154.09C618.28 155.39 622.47 155.45 625.89 158.26C629.47 161.2 632.13 164.56 633.46 168.98C633.36 175.26 633.25 181.54 633.15 187.82C632.49 192.85 632.32 197.89 632.56 202.95C632.56 207.92 632.55 212.89 632.54 217.87C632.29 220.35 632.56 222.75 632.98 225.22C633.8 230.06 636.48 231.1 640.78 229.88C642.21 229.47 643.65 229.16 644.8 228.13C649.88 226.97 648.38 230.23 647.93 232.78C646.18 233.64 644.44 234.5 642.69 235.36C638 237.07 633.07 237.67 628.19 238.52C625 238.56 622.52 237.11 620.4 234.87C619.88 232.9 619.36 230.93 618.79 228.77C611.36 231.94 604.17 235.19 596.47 237.03C593.07 237.03 589.66 237.11 586.37 235.98C584.04 234.49 581.53 233.25 579.68 231.11C577.74 227.31 577.51 223.08 576.68 219.01C577.42 214.38 580.33 211.57 584.27 209.32C589.37 206.41 594.78 204.4 600.33 202.65C604.7 201.61 609.07 200.57 613.44 199.53C618.79 199.76 620.26 196.9 619.89 192C619.49 186.74 619.74 181.43 619.42 176.15C618.83 166.4 617.39 164.98 607.76 163.84C597.22 162.6 596.21 163.5 596.58 173.9C593.52 176.35 589.38 176.29 586.19 178.42L585.87 178.72C585.39 178.8 584.91 178.88 584.43 178.96C580.6 177.95 579 176.16 582.14 172.6C582.77 171.89 583.15 170.96 583.65 170.13C592.75 162.54 602.42 156.06 614.44 154.07V154.09ZM591.67 215.99C591.1 226.61 594.54 229.89 604.79 228.49C608.22 227.91 611.55 227.06 614.43 224.97C617.94 224.32 619.23 221.96 619.28 218.66C619.34 214.89 619.24 211.12 619.46 207.36C619.67 203.56 617.93 203.25 615.04 204.53C609.58 205.08 604.3 206.34 599.32 208.71C595.65 209.96 591.76 210.98 591.68 216L591.67 215.99Z" fill="#9F9FA7"/>
<path d="M179.81 72.16C174.89 73.26 169.87 73.08 164.89 73.38C163.19 73.34 161.48 73.31 159.78 73.27C157.49 73.27 155.2 73.25 152.91 73.25C152.21 73.23 151.52 73.22 150.82 73.2C149.16 73.15 147.43 73.37 145.86 72.97C143.7 72.42 140.45 74.82 139.46 71.45C138.44 67.96 143.08 69.45 143.94 67.33C144.76 67.22 144.87 66.71 144.68 66.02C145.96 50.59 144.73 35.13 145.31 19.69C145.48 15.11 146.1 10.21 139.45 9.44004C139.17 9.41004 138.98 8.61004 138.75 8.17004C139.13 7.46004 139.52 6.74004 139.9 6.03004C146.54 5.99004 153.18 5.96004 159.82 5.92004C161.39 6.13004 162.97 6.38004 164.45 5.54004L165.88 5.29004C168.49 6.09004 171.17 6.16004 173.87 5.99004C178.97 6.72004 183.93 7.96004 188.72 9.87004C190.31 10.79 191.91 11.7 193.5 12.62C205.79 22.3 212.41 35.83 204.19 53.62L204.35 53.66C203.14 54.48 202.56 55.72 202.09 57.02C195.78 63.7 188.83 69.46 179.81 72.15V72.16ZM163.86 10.28C154.51 10.21 153.85 10.87 154.03 20.21C153.99 32.43 153.83 44.65 153.95 56.87C154.06 67.74 157.36 70.45 168.33 69.21C168.82 69.15 169.31 69.06 169.8 68.98C171.11 69.19 172.4 69.29 173.6 68.56L174 68.35C175.82 68.41 177.46 67.94 178.86 66.76C185.61 64.18 191.29 60.4 194.03 53.3C194.36 52.63 194.7 51.97 195.03 51.3C199.61 41.5 198.42 32.11 193.03 23.01C190.06 17.65 185.64 14.08 179.8 12.25C174.72 9.73004 169.3 9.93004 163.86 10.27V10.28Z" fill="#9F9FA7"/>
<path d="M151.801 111.04C153.231 108.77 154.571 106.35 157.931 107.11C161.311 107.87 160.821 110.66 161.061 113.07C159.921 115.62 158.051 116.89 155.201 116.27C152.391 115.65 151.991 113.4 151.801 111.04Z" fill="#9F9FA7"/>
<path d="M672.18 277.79C670.95 274.77 673.55 269.47 667.19 269.47C666.56 269.47 666.3 268.59 666.44 267.87C666.66 266.72 667.62 266.93 668.38 266.91C672.02 266.81 675.65 266.75 679.29 266.68C680.34 267.25 680.91 268.42 679.67 268.8C675.38 270.13 675.52 273.47 675.53 276.86C675.51 286.16 675.49 295.45 675.47 304.75C675.18 304.95 675.03 305.24 675.02 305.6C673.59 306.1 672.5 305.75 671.63 304.45C666.03 296.12 658.11 289.95 651.33 282.73C649.59 280.88 647.74 279.14 645.08 276.49C644.94 285.46 644.48 293.02 645.69 300.53C645.96 302.21 646.89 304.02 644.71 304.61C643.11 305.05 640.96 305.64 639.56 304.26C637.99 302.7 640.03 301.73 640.68 300.54C640.98 299.99 641.2 299.31 641.22 298.68C641.45 290.4 642.11 282.13 641.52 273.84C641.42 272.46 641.01 271.32 639.95 270.33C638.83 269.27 635.78 269.78 636.51 267.63C637.17 265.71 639.72 267.33 641.4 266.95C642.35 266.73 643.37 266.81 644.37 266.76C647.16 266.88 647.24 270.07 649.25 271.07C649.6 271.44 649.96 271.82 650.31 272.19C650.62 273.06 651.19 273.66 652.1 273.91C652.83 274.62 653.55 275.33 654.28 276.05L654.17 275.89C654.55 276.3 654.93 276.72 655.32 277.13L655.98 277.93C657.01 279.26 657.98 280.65 659.67 281.25C659.99 282.6 660.87 283.42 662.13 283.89L663.31 285.14C665.81 288.18 668.67 290.85 672.19 293.54V289.77C672.34 289.48 672.35 289.18 672.22 288.87C672.22 285.18 672.22 281.49 672.21 277.8L672.18 277.79Z" fill="#9F9FA7"/>
<path d="M560.4 155.77C562.34 156.71 564.99 154.1 566.53 157C566.29 159.46 564.23 159.57 562.54 159.84C559.61 160.32 556.8 161.06 554.17 162.45C549.23 164.7 544.91 167.81 541.18 171.75C539.22 172.6 537.81 174.12 536.42 175.67C532.23 178.81 528.28 182.2 525.16 186.46L525.01 186.62C524.05 187.61 524.11 188.45 525.37 189.12C535.79 202.34 546.49 215.32 558.9 226.75C562.08 229.68 565.89 231.68 570.42 231.77C571.04 232.13 571.66 232.48 572.29 232.84C572.84 235.97 570.71 235.82 568.67 235.84C560.28 235.92 551.88 236.01 543.49 236.1C541.51 235.01 537.33 238.01 537.52 232.88C543.52 230.38 543.56 230.35 539.32 225.25C536.29 221.61 533.13 218.07 530.02 214.49C529.29 213.4 528.66 212.22 527.37 211.67C524 208.79 522.45 204.28 518.58 201.85C516.84 199.7 515.44 197.14 512.32 196.65C509.98 196.21 506.68 194.04 506.59 198.71C506.4 207.97 506.56 217.25 506.76 226.51C506.84 230.42 508.9 231.79 512.61 230.07C514.1 230.67 516.8 229.62 516.39 232.83C515.44 235.11 513.99 236.33 511.27 235.87C509.38 235.55 507.41 235.78 505.47 235.76C502.17 235.16 498.87 235.15 495.58 235.76C492.19 235.8 488.79 235.73 485.41 235.92C482.85 236.06 482.26 234.99 482.95 232.76C484.21 231.44 486.39 232.49 487.56 230.95C488.86 230.85 490.22 230.9 491.01 229.56V229.61C493.39 228.97 493.14 226.75 493.21 225.16C493.51 217.75 494.84 210.39 494.26 202.95C494.28 202.25 494.3 201.54 494.32 200.84C494.47 200.55 494.49 200.26 494.37 199.96C494.37 196.27 494.37 192.57 494.37 188.88C494.37 163.6 494.37 138.33 494.37 113.05C495.22 108.41 493.53 105.15 489.18 103.24C486.97 102.27 485.17 100.95 485.66 98.0998C488.68 96.5298 491.7 94.9598 494.72 93.3998C499.13 92.4798 502.56 88.6698 507.42 89.0698C507.53 89.7098 507.64 90.3498 507.75 90.9898C507.79 93.0198 507.83 95.0598 507.87 97.0898C507.8 102.38 507.74 107.68 507.67 112.97C507.67 118.32 507.67 123.67 507.67 129.02C507.65 133.67 507.62 138.31 507.6 142.96C507.54 147.61 507.48 152.26 507.41 156.92C507.26 162.58 507.11 168.23 506.96 173.89C506.83 178.79 506.84 183.69 506.54 188.58C506.32 192.2 508.16 192.44 510.73 191.42C511.88 190.97 512.8 189.92 513.82 189.14C522.78 182.81 529.67 174.36 537.02 166.38C537.97 165.34 539.7 164.28 539.24 162.78C538.61 160.76 536.43 161.49 534.93 161.49C531.5 161.49 530.61 160.37 532.7 157.46C533.3 157.25 533.91 157.04 534.51 156.83C543.17 157.3 551.79 156.5 560.4 155.74V155.77Z" fill="#9F9FA7"/>
<path d="M215.792 41.1201C219.282 38.5201 222.772 35.9201 226.262 33.3201C230.402 32.3801 234.532 31.2401 238.682 33.2801C240.012 34.9001 241.352 36.5201 242.682 38.1401C242.752 38.4801 242.822 38.8201 242.892 39.1601C242.892 43.1301 242.892 47.1001 242.882 51.0701C242.882 51.4201 242.882 51.7801 242.872 52.1301C242.822 54.9301 242.722 57.7301 242.722 60.5301C242.708 66.0567 245.375 68.5801 250.722 68.1001C251.522 70.7101 250.312 72.2301 247.902 72.8001C245.212 73.4401 242.452 73.8201 239.722 74.3201C239.082 74.2001 238.032 74.2701 237.862 73.9201C234.772 67.5801 230.712 71.4001 226.872 72.7801C226.102 73.0501 225.312 73.2401 224.522 73.4701C220.942 74.0001 217.752 73.1401 214.992 70.7801C212.422 62.4901 213.372 60.3601 221.422 57.2401C224.492 56.0501 227.642 55.0301 230.832 54.2301C235.512 53.0601 237.142 48.9001 235.472 41.8601C234.662 38.4701 230.922 36.4901 226.892 37.2601C225.702 37.4901 224.172 37.8701 224.192 39.0401C224.312 45.1601 219.512 44.1401 215.962 44.9701L215.992 45.0201C215.202 43.7601 215.642 42.4301 215.802 41.1201H215.792ZM235.532 59.7601C236.422 57.2701 234.852 56.5601 232.402 57.1401C229.542 57.8201 226.672 58.6001 223.942 59.6901C221.222 60.7801 221.622 63.3901 221.842 65.6701C222.052 67.8301 223.642 68.7801 225.592 68.9301C230.522 69.3201 235.162 65.2001 235.532 59.7601Z" fill="#9F9FA7"/>
<path d="M254.822 221.92C256.512 212.05 255.932 202.06 256.122 192.14C256.472 173.69 256.262 155.23 256.182 136.77C256.152 130.13 255.922 123.48 255.632 116.84C255.542 114.76 255.602 112.5 253.782 110.9C254.362 105.83 250.472 105.83 247.192 104.94C244.952 104.33 241.622 105.88 240.852 102.04C241.122 101.83 241.252 101.55 241.232 101.21C244.032 99.74 246.972 101.44 249.812 100.85C266.752 101.85 283.752 99.87 300.672 101.83C305.232 103.09 309.792 104.36 314.342 105.62C325.312 110.2 334.232 117.06 339.362 128.13C340.422 132.74 341.482 137.35 342.542 141.96C341.852 148.49 340.432 154.82 337.482 160.74H337.542C336.482 161.53 335.822 162.59 335.422 163.84L335.552 163.74C334.652 164.19 334.242 165 333.982 165.92C332.432 167.18 330.392 168.07 330.542 170.58C329.492 171.02 328.812 171.81 328.392 172.85C324.232 175.35 320.082 177.84 315.922 180.34C306.812 183.81 297.522 186.53 287.722 187.15C287.382 187.17 287.042 187.2 286.702 187.22C282.612 187.17 278.512 187.23 274.432 187.03C270.842 186.85 269.112 188.11 269.892 191.87C269.892 193.58 269.892 195.28 269.892 196.99C269.582 205.68 270.062 214.3 271.962 222.81C273.892 229.22 279.452 229.72 284.742 230.68C286.652 231.76 290.682 230.28 290.332 233.82C289.972 237.53 286.322 235.72 284.172 235.74C271.082 235.82 257.972 234.94 244.902 236.18C242.162 236.44 241.242 235.46 241.302 232.97C247.532 231.4 254.002 230.14 254.792 221.92H254.822ZM313.132 170.39C313.462 170.06 313.802 169.72 314.132 169.39C317.802 165.94 320.852 162.12 321.722 156.96C323.332 155.26 323.622 153.15 323.612 150.95C323.702 150.26 323.792 149.57 323.882 148.87C324.712 148.02 324.662 147 324.482 145.94C325.052 138.87 324.292 132.03 320.812 125.7C320.412 123.33 319.262 121.38 317.472 119.81C309.202 108.78 297.512 106.39 284.692 106.88C283.002 106.52 281.342 106.56 279.712 107.15C276.952 107.13 274.022 106.64 272.372 109.75L272.272 109.69C271.202 112.52 271.222 115.47 271.262 118.43C271.182 118.96 271.102 119.49 271.022 120.02C271.012 122.67 270.992 125.32 270.982 127.96C270.972 128.33 270.952 128.69 270.942 129.06C270.802 129.35 270.792 129.65 270.912 129.95C270.912 132.32 270.912 134.69 270.912 137.05C270.722 147.7 270.052 158.35 270.652 169L270.342 169.39L270.572 169.83C270.162 173.87 267.522 179.14 273.982 180.39C287.932 183.09 301.052 181.21 312.182 171.4C312.502 171.06 312.822 170.72 313.152 170.38L313.132 170.39Z" fill="#9F9FA7"/>
<path d="M628.91 289.64C628.4 291.37 627.891 293.09 627.381 294.82C624.251 299.7 620.271 303.53 614.561 305.24C606.621 307.01 599.8 304.52 593.601 299.7C592.801 298.73 592.01 297.76 591.22 296.79C587.27 289.16 587.041 281.6 591.631 274.12L591.591 274.1C592.951 272.74 594.321 271.37 595.681 270.01L595.761 270.09C601.591 266.92 607.641 264.95 614.371 266.7C626.261 271.63 630.67 278.58 628.91 289.65V289.64ZM617.731 299.2L618.671 298.21C620.131 297.21 620.531 295.67 620.761 294.05C623.051 286.4 622.22 279.22 616.97 273.02C611.24 266.26 601.341 267.6 597.741 275.69C594.401 283.2 594.991 290.65 599.981 297.33C604.971 304.01 612.481 304.7 617.761 299.25L617.731 299.2Z" fill="#9F9FA7"/>
<path d="M522.51 264.69C523.54 266.26 524.81 266.99 526.87 266.95C534.68 266.8 542.52 266.5 550.28 267.11C553.16 267.34 554.43 263.63 557.26 265.33C556.09 268.41 555.8 271.65 555.47 274.88C554.98 274.85 554.06 274.86 554.05 274.78C553.53 268.84 549.06 270.13 545.32 269.85C542.32 269.62 541.23 270.57 541.32 273.71C541.53 281.16 541.39 288.63 541.38 296.09C541.38 299.48 541.4 302.8 546.19 302.87C546.6 302.87 547.6 303.75 546.81 305H530.56C529.82 304.82 528.83 305.05 528.56 304.07C528.27 303.01 528.98 302.68 529.89 302.64C534.57 302.4 534.55 299.14 534.32 295.75C534.39 289.94 534.64 284.13 534.46 278.33C534.37 275.56 535.6 272.55 533.51 269.98C532.82 269.98 532.13 269.98 531.45 269.99C531.15 269.87 530.85 269.88 530.55 270.01C529.51 270.06 528.48 270.11 527.44 270.16C524.62 270.54 521.26 269.93 520.5 274.04C520.36 274.82 519.75 275.08 519.02 274.77C518.14 274.4 517.84 273.73 518.22 272.8C519.31 270.1 520.39 267.4 521.48 264.7C521.83 264.7 522.17 264.68 522.52 264.67L522.51 264.69Z" fill="#9F9FA7"/>
<path d="M567.509 270.25C567.099 270.02 566.719 269.72 566.289 269.58C565.309 269.28 563.639 269.72 563.819 268.07C563.979 266.53 565.539 267.1 566.579 266.97C567.209 266.89 567.839 266.81 568.479 266.73C572.679 266.73 576.889 266.73 581.249 266.73C581.009 268.14 580.989 268.68 580.909 268.69C576.109 269.23 575.139 272.12 575.359 276.5C575.699 283.44 575.519 290.41 575.439 297.37C575.409 299.9 575.559 302.06 578.729 302.4C579.559 302.49 580.459 302.72 580.349 303.82C580.229 304.96 579.219 304.82 578.439 304.84C575.459 304.9 572.479 304.92 569.499 304.95C567.539 303.97 564.299 306.35 563.519 303.71C562.919 301.71 566.879 303.55 567.519 301.39C569.519 298.74 568.569 295.58 568.629 292.75C568.779 285.24 569.969 277.63 567.529 270.24L567.509 270.25Z" fill="#9F9FA7"/>
<path d="M256.372 46.7202C254.532 43.1902 255.102 38.1902 250.172 36.5302C250.582 34.3502 251.452 32.9302 254.102 33.0902C257.412 33.2902 260.752 33.0502 264.082 33.1002C265.102 33.1202 266.612 32.4502 266.902 34.1902C267.082 35.2702 266.432 36.2302 265.412 36.5302C260.672 37.9202 261.842 41.1002 262.932 44.3002C264.902 50.0902 266.852 55.8802 268.992 62.2202C271.742 59.2802 272.812 56.0902 274.062 53.0002C276.542 49.2302 277.712 44.8802 279.382 40.7602C280.012 39.2102 280.462 37.3402 277.662 37.2802C276.822 36.4402 274.682 36.9302 274.972 35.0602C275.252 33.2502 276.882 33.1602 278.412 33.1502C281.502 33.1502 284.592 33.0802 287.672 33.0402C288.072 33.7402 288.462 34.4502 288.862 35.1502C286.792 38.8002 284.732 42.4502 282.662 46.1002C280.862 48.1502 279.662 50.5502 278.732 53.1002C276.212 58.0702 273.702 63.0402 271.182 68.0002C270.422 69.4502 269.402 70.8202 269.552 72.5902C267.312 74.5902 265.622 74.6702 264.652 71.3502C264.302 70.1502 263.552 69.0702 262.982 67.9302C262.852 67.3002 262.722 66.6702 262.592 66.0302C262.322 65.5502 262.052 65.0602 261.782 64.5802C261.602 60.5202 259.882 56.9202 258.432 53.2402C257.732 51.0602 257.042 48.8802 256.342 46.7102L256.372 46.7202Z" fill="#9F9FA7"/>
<path d="M345.939 177.53C345.569 173.34 348.449 170.95 351.089 168.56C358.139 162.18 366.209 157.53 375.369 154.83C379.519 154.53 383.629 154.7 387.639 155.93C389.429 157.1 391.209 158.27 392.999 159.43C395.079 162.01 397.119 164.61 398.339 167.74C398.999 175.81 398.119 183.87 397.999 191.93C397.949 193.63 397.899 195.32 397.849 197.02C397.839 205.29 397.829 213.57 397.819 221.84C397.549 224.45 398.179 226.81 399.749 228.91C403.359 231.75 406.719 229.5 410.129 228.39C411.029 228.1 411.909 227.38 412.859 228.12C413.979 228.99 413.439 230.2 413.359 231.3C413.249 232.8 411.909 233.37 411.039 234.3C405.229 236.21 399.399 238.01 393.219 238.33C389.209 238.54 385.889 236.95 385.299 233.08C384.489 227.83 382.249 228.98 379.239 230.78C377.989 231.53 376.649 232.13 375.349 232.8C375.069 232.65 374.839 232.7 374.649 232.95C369.979 234.29 365.539 236.4 360.679 237.09C358.379 236.87 356.009 236.92 353.779 236.38C344.059 234.03 342.349 226.41 341.969 217.99C342.889 215.2 344.499 212.87 346.689 210.94C350.359 208.99 354.029 207.04 357.699 205.08C358.429 204.83 359.169 204.59 359.899 204.34C360.239 204.44 360.469 204.33 360.609 204C360.949 203.93 361.279 203.86 361.619 203.78C365.909 202.64 370.199 201.5 374.489 200.37C376.439 200 378.379 199.38 380.329 199.32C383.869 199.21 384.759 197.74 384.829 194.16C384.959 186.85 384.709 179.58 384.299 172.31C383.889 166.86 380.269 164.72 375.479 164.05C373.219 163.73 370.879 163.91 368.579 163.86C365.199 164.11 360.959 163.22 361.809 169.01C361.619 172.06 362.009 175.44 357.729 176.16C353.779 176.45 350.279 180.62 345.939 177.52V177.53ZM384.299 216.97C384.389 215.5 384.559 214.02 384.569 212.55C384.649 202.4 384.549 202.33 374.669 205.79C370.099 206.45 365.499 207.02 361.649 209.95C359.839 210.21 358.269 210.5 357.549 212.72C355.969 217.55 355.809 222.36 358.939 226.37C361.839 230.07 366.369 229.24 370.459 228.6C371.879 228.38 373.209 227.58 374.579 227.05C382.029 224.69 384.609 223.68 384.279 216.98L384.299 216.97Z" fill="#9F9FA7"/>
<path d="M293.48 37.1299C295.31 34.6299 298.74 35.1699 300.88 33.2399C304.787 32.2466 306.734 33.7366 306.72 37.7099C306.72 41.5099 306.72 45.2999 306.73 49.0999C305.97 50.3799 306.17 51.7099 306.55 53.0499C306.45 56.3199 306.63 59.6299 306.2 62.8599C305.54 67.7799 307.48 69.4499 312.15 68.4099C313.02 70.0799 312.98 71.6699 311.68 73.1299C306.69 73.1399 301.7 73.1999 296.71 73.1299C295.55 73.1099 293.92 74.0399 293.38 72.0699C292.72 69.6699 294.89 70.0799 296.03 69.4299C296.41 69.2099 296.58 68.6499 296.85 68.2499L296.77 68.2799C297.16 67.8999 297.56 67.5199 297.95 67.1399L297.85 67.2899C298.88 66.8399 298.73 65.9599 298.64 65.0999C299.18 64.1499 299.21 63.1599 298.83 62.1499C299.45 60.5299 299.51 58.8499 299.3 57.1499C299.32 55.8699 299.34 54.5799 299.35 53.2999C299.45 53.1099 299.46 52.9099 299.39 52.7099C299.41 51.8399 299.43 50.9799 299.44 50.1099C299.58 45.2499 301.38 39.5499 293.69 38.5499C293.56 38.5299 293.54 37.6199 293.47 37.1299H293.48Z" fill="#9F9FA7"/>
<path d="M480.499 164.88C474.059 171.22 473.699 171.26 465.919 166.95C464.969 166.42 464.009 165.04 462.679 166.4L462.519 166.52C461.459 163.18 458.299 164.15 456.009 163.36V163.34C443.299 162.05 432.979 168.94 430.609 181.36C428.419 192.81 428.309 204.36 434.119 215.12C434.249 216.38 434.769 217.39 435.949 217.98C439.529 222.62 443.979 226 449.749 227.45C454.429 229.5 459.029 228.91 463.579 226.98C467.449 226.42 470.489 224.1 473.739 222.2C474.939 221.5 476.289 219.85 477.539 221.52C478.489 222.8 477.399 224.36 476.409 225.48C473.959 228.25 470.479 229.56 467.479 231.54C466.809 231.98 466.119 232.41 465.449 232.84L464.969 232.79L464.549 233.03C459.689 235.26 454.639 236.83 449.289 237.31C444.909 237.31 440.689 236.36 436.529 235.06C434.239 233.99 431.939 232.92 429.649 231.85C426.709 229.31 423.769 226.77 421.409 223.65C419.049 220.73 418.599 216.92 416.759 213.76L416.799 213.87C416.689 213.24 416.579 212.6 416.469 211.97C416.599 210.84 416.469 209.77 415.619 208.92C415.439 201.9 415.539 194.9 417.179 188.01C418.919 182.83 421.279 178.02 424.919 173.83C428.979 169.16 434.189 165.95 438.959 162.19C440.589 161.24 442.219 160.3 443.849 159.35C445.929 159.04 447.469 157.65 449.229 156.71C455.449 154.12 461.829 152.97 468.509 154.69C468.869 154.77 469.229 154.85 469.589 154.93C473.219 156.04 476.319 158.15 479.539 160.06C479.999 161.64 480.839 163.15 480.529 164.89L480.499 164.88Z" fill="#9F9FA7"/>
<path d="M495.071 274.18C495.161 274.04 495.241 273.89 495.351 273.76C497.201 271.42 496.531 266.31 500.281 266.63C503.681 266.92 503.131 271.68 504.291 274.43C506.731 280.21 508.391 286.32 511.541 291.81C511.761 292.25 511.991 292.7 512.211 293.14L511.991 293.23C513.541 297.29 514.571 301.71 520.091 303.49C516.241 305.85 512.741 304.31 509.531 304.94C508.061 304.33 506.211 305.73 504.911 304.11C508.011 300.74 507.531 297 503.431 292.05C502.811 292.02 502.191 291.98 501.571 291.95C499.541 291.95 497.511 291.97 495.481 291.98C492.581 291.56 490.711 292.72 489.851 295.55C489.251 297.55 487.641 299.5 489.141 301.61C489.791 302.53 492.131 302.47 491.261 304.24C490.621 305.54 488.871 304.76 487.631 304.8C485.321 304.87 483.001 304.73 480.691 304.67C480.701 303.95 480.711 303.22 480.721 302.5C485.001 300.72 485.361 296.31 487.201 292.88C488.741 289.14 490.951 285.67 491.791 281.64C492.881 279.14 493.981 276.65 495.071 274.15V274.18ZM497.601 275.46C496.191 279.34 495.111 282.58 493.831 285.73C492.791 288.29 493.701 288.99 496.181 288.78C497.661 288.65 499.171 288.68 500.651 288.78C502.691 288.91 502.931 287.73 502.341 286.31C500.921 282.85 500.441 278.97 497.601 275.46Z" fill="#9F9FA7"/>
<path d="M447.571 95.0398C449.941 95.3298 452.191 94.7098 454.381 93.9998C456.381 93.3498 457.921 92.1198 457.341 89.6498C457.091 88.5798 456.111 87.3798 457.791 86.7498C459.051 86.2798 459.961 87.2398 460.781 88.0398C464.171 91.3098 464.051 94.5798 460.681 97.7998C458.971 98.5498 457.261 99.2998 455.561 100.04C454.331 100.19 452.861 99.4898 451.991 100.99L452.151 100.77L451.951 100.58C449.181 101.01 445.961 100.69 443.761 102.03C440.761 103.87 444.421 106.94 443.711 109.57C443.341 110.95 443.681 112.52 443.701 114.01C442.001 119.36 438.351 123.26 434.141 126.72C433.741 127.08 433.341 127.43 432.941 127.79C428.821 129.54 424.711 131.29 420.591 133.04C414.941 133.54 409.301 134.16 403.641 133.16C399.921 131.7 396.201 130.24 392.481 128.79C391.621 128.14 390.761 127.49 389.901 126.84C386.191 122.81 383.321 118.27 381.621 113.03C381.231 107.55 381.811 102.22 383.921 97.0998C388.041 91.5598 393.991 88.3598 400.381 84.8798C396.361 82.5998 392.981 80.5398 390.961 76.9798C389.531 68.2498 391.551 64.1398 399.211 60.2098C400.661 59.4698 402.151 58.7998 403.621 58.0998C408.631 57.0498 413.641 56.3498 418.691 57.8098C421.111 58.9798 424.271 59.3998 424.901 62.6398C425.361 65.0498 423.811 66.5598 421.651 67.4298C421.281 67.4698 420.911 67.5198 420.541 67.5598C419.641 66.7798 418.741 65.9998 417.831 65.2198C414.181 60.3198 410.151 59.0798 404.601 61.1498C398.901 64.0598 397.121 69.5498 399.571 76.6598C399.551 79.4898 400.601 81.4798 403.671 81.8898C408.741 83.0898 413.551 79.8198 418.621 81.0498C418.721 81.7198 418.811 82.3898 418.911 83.0598C418.661 84.3298 418.411 85.6098 418.161 86.8798C415.961 86.9898 413.761 87.1098 411.561 87.2198C400.921 86.2898 396.201 88.8598 391.771 98.0098C389.111 102.92 389.431 107.98 391.011 113.1C394.031 120.69 399.681 125.13 407.581 126.85C411.551 128.25 415.551 128.66 419.581 127.1C428.611 126.18 435.021 121.57 438.691 113.29C442.151 105.48 439.841 102.2 431.641 103.06C431.311 103.09 430.991 103.18 430.661 103.24C428.201 104.23 424.661 103.04 423.551 106.76C422.531 107.64 422.641 108.86 422.591 110.03L422.351 110.19L422.441 110.46C420.651 110.95 418.751 111.47 417.751 109.28C416.941 107.49 418.151 106.18 419.301 104.96C419.861 104.37 420.411 103.76 420.971 103.16C423.841 101.7 426.721 100.23 429.591 98.7698C431.241 98.4398 432.901 98.1098 434.551 97.7798C438.851 96.6298 443.411 96.7698 447.581 95.0198L447.571 95.0398Z" fill="#9F9FA7"/>
<path d="M306.629 9.37C308.729 11.84 309.869 14.43 307.349 17.29C305.059 19.89 302.649 19.02 300.249 17.43C299.289 15.55 299.709 13.6 299.989 11.66C300.909 10.86 301.819 10.05 302.739 9.25C304.039 9.29 305.339 9.34 306.639 9.38L306.629 9.37Z" fill="#9F9FA7"/>
<path d="M351.529 297.93C359.829 304.82 368.839 301.73 370.939 291.34C372.139 285.41 371.109 279.46 371.449 273.54C371.699 269.19 367.449 270.19 365.249 268.11C369.449 265.75 373.689 267.58 377.589 266.7C378.489 266.96 379.259 268.11 378.649 268.38C374.339 270.3 375.299 274.15 374.989 277.55C374.679 283.32 374.369 289.09 374.049 294.86C372.989 296.51 372.049 298.26 370.829 299.8C366.679 305.05 359.199 307.05 351.979 304.94C346.059 303.22 342.949 299.3 342.379 292.86C342.419 287.51 342.449 282.16 342.489 276.82C342.239 274.02 344.129 270.58 339.809 269.04C338.629 268.62 339.009 267.31 340.279 267.06C341.699 266.79 343.189 266.84 344.649 266.75C347.929 267.52 351.549 265.71 355.949 268.2C349.809 269.06 348.429 272.18 349.389 276.7C348.459 279.02 348.799 281.42 348.899 283.81C348.869 287.24 347.909 290.73 349.509 294.06C349.419 294.35 349.489 294.58 349.719 294.77C349.629 295.6 349.469 296.46 350.529 296.83L351.619 297.95L351.509 297.92L351.529 297.93Z" fill="#9F9FA7"/>
<path d="M326.819 36.3902C327.619 36.3002 328.329 36.0702 328.719 35.2802C333.769 32.7602 339.119 32.2902 344.629 32.9502C345.309 32.9902 345.989 33.0202 346.659 33.0602C348.689 25.5702 347.289 17.9602 347.349 10.4002C347.359 8.72022 345.689 9.30022 344.659 9.16022C343.859 8.30022 342.799 8.19022 341.719 8.13022C341.429 3.56022 346.429 4.97022 348.039 2.55022C352.399 0.91689 354.679 2.62356 354.879 7.67022C354.879 7.83022 354.939 7.99022 354.969 8.15022C354.589 27.4502 354.339 46.7402 354.869 66.0402C354.969 70.3702 357.209 69.3802 359.639 67.9602C360.569 68.0302 361.509 68.1102 362.439 68.1802C363.239 70.7602 361.619 71.9402 359.679 72.9402C357.459 73.3402 355.179 73.5502 353.019 74.1902C349.609 75.1902 347.309 75.2002 347.529 70.5702C347.689 67.2202 345.789 68.9502 344.449 69.6402C339.749 71.3402 335.369 74.3002 329.999 73.4902C325.359 72.3802 321.859 69.6102 319.019 65.9002C318.179 63.9502 317.339 62.0002 316.489 60.0502C316.349 59.4202 316.199 58.7902 316.059 58.1602C316.109 56.4502 316.169 54.7402 316.219 53.0202C316.929 47.1302 320.089 42.5502 324.049 38.4002C324.049 38.4002 323.999 38.5302 323.999 38.5202C324.719 37.8902 325.449 37.2502 326.179 36.6202L326.229 36.6802C326.519 36.7402 326.709 36.6302 326.819 36.3602V36.3902ZM323.969 54.0502C323.939 57.2102 325.209 59.8402 327.239 62.1702C331.799 67.6102 338.899 68.9902 344.929 65.6302C345.939 65.0702 346.979 64.5902 347.119 63.2102C347.819 56.2902 348.069 49.3702 346.929 42.4702C346.729 41.2502 345.899 40.4602 344.669 40.1502C343.819 39.4702 343.029 38.6202 341.759 38.9602C339.579 37.7002 337.209 37.2702 334.719 37.3702C333.509 37.0202 332.649 37.8702 331.649 38.2502C330.959 38.2202 330.379 38.3902 330.069 39.0802L329.689 39.1002C324.489 41.4202 323.009 45.2902 323.979 54.0402L323.969 54.0502Z" fill="#9F9FA7"/>
<path d="M328.43 276.89L328.85 278.79C330.39 282.03 330.09 285.46 329.95 288.88C329.75 289.15 329.71 289.45 329.83 289.76C329.71 290.4 329.59 291.04 329.46 291.67L328.41 294.4C325.14 299.17 321.4 303.38 315.62 305.16C310.13 306.91 305.03 305.01 299.88 303.49L299.91 303.68C299.22 302.78 298.41 302.16 297.19 302.55C295.28 299.12 291.7 296.94 290.17 293.22C288.1 286.89 288.68 280.8 291.84 274.94L291.77 274.97C292.24 274.32 292.71 273.66 293.18 273.01L293.06 273.26C294.7 272.16 296.3 271.02 297.25 269.21L297.32 269.3C303.79 266.44 310.42 265.13 317.42 267.12V267C318.49 267.58 319.57 268.16 320.64 268.74L320.79 268.98L321.06 268.9C321.54 269.25 322.02 269.6 322.5 269.95C324.47 272.27 326.43 274.58 328.4 276.9L328.43 276.89ZM321.85 292.86C323.35 287.07 323.35 281.46 319.89 276.25C319.07 273.57 317.36 271.72 314.73 270.73C307.76 267.01 301.62 268.95 298.47 276C295.33 283.03 296.04 289.94 300.01 296.36C303.82 302.52 310.38 304.39 316.1 301.38C319.72 299.68 321.33 296.64 321.85 292.85V292.86Z" fill="#9F9FA7"/>
<path d="M267.691 304.94C263.541 304.91 259.391 304.88 255.241 304.83C254.461 304.83 253.501 305.05 253.061 304.16C252.761 303.55 252.871 302.7 253.651 302.53C256.571 301.9 255.701 299.55 255.841 297.75C256.481 289.98 257.011 282.21 256.131 274.41C255.851 271.93 256.271 269.26 252.371 268.66C255.341 265.97 258.111 266.98 260.611 266.91C266.091 266.74 271.581 266.87 277.061 266.87C278.341 266.87 280.011 266.4 279.831 268.54C279.631 270.92 280.731 273.48 279.151 275.65C278.781 276.16 277.791 275.73 277.621 275.01C276.121 268.75 271.211 269.92 266.801 269.99C266.101 269.99 265.411 270 264.711 270.01C264.071 269.95 263.661 270.15 263.681 270.88C262.671 271.72 262.851 272.82 263.031 273.92C262.961 275.23 262.701 276.56 262.861 277.84C263.151 280.17 261.491 283.88 263.781 284.55C267.011 285.49 270.881 285.46 274.351 284.2C274.601 284.11 274.581 283.31 274.691 282.83C275.941 282.16 277.711 279.2 277.761 283.59C277.791 286.19 278.021 288.79 278.171 291.39C277.361 291.56 276.541 291.74 275.731 291.91C274.351 288.71 266.411 286.12 263.531 287.96C263.161 288.2 262.761 288.74 262.761 289.14C262.791 292.94 262.461 296.82 263.161 300.5C263.641 302.99 267.021 301.6 268.771 302.79C268.691 303.43 268.611 304.07 268.541 304.71C268.221 304.61 267.941 304.69 267.711 304.93L267.691 304.94Z" fill="#9F9FA7"/>
<path d="M464.462 268.28C469.532 270.73 473.772 274.05 476.102 279.37C477.662 284.65 477.152 289.76 474.822 294.72C471.702 298.55 467.852 301.46 463.532 303.79C456.652 305.71 449.592 304.54 442.622 304.97C442.132 304.91 441.622 304.92 441.162 304.78C439.912 304.39 438.032 305.8 437.442 303.64C436.952 301.81 439.092 301.98 439.732 300.98C439.982 300.59 440.132 300.14 440.322 299.71C440.382 294.56 440.672 289.41 440.442 284.27C440.242 279.74 441.562 275.11 439.702 270.67L439.812 270.64C438.742 270.15 437.672 269.66 436.602 269.17C437.382 268.44 437.062 266.8 438.622 266.71C447.232 267.24 455.962 265.78 464.462 268.27V268.28ZM446.972 285.22C447.122 287.89 447.222 290.7 447.432 293.5C448.142 302.73 451.912 304.71 460.442 300.68C463.512 299.23 465.012 296.69 466.692 294.03C470.492 287.99 470.542 282.27 466.522 276.21C463.022 270.94 457.102 268.66 450.552 269.68C448.242 270.04 447.542 270.97 447.512 273.17C447.462 277.14 447.172 281.1 446.962 285.21L446.972 285.22Z" fill="#9F9FA7"/>
<path d="M389.629 266.77C393.079 266.57 395.709 267.48 397.659 270.8C399.359 273.69 402.059 275.95 404.819 277.97L404.859 278.01C408.219 283.31 414.509 285.97 417.249 291.84C417.739 292.88 418.879 293.05 419.819 292.9C421.539 292.62 420.879 291.1 420.869 290.1C420.839 284.67 420.709 279.25 420.609 273.82C421.039 271.39 420.699 269.72 417.589 269.66C415.149 269.61 414.969 268.32 416.639 266.69H430.479C421.129 273.9 425.399 282.92 424.479 290.87C424.459 291.5 424.439 292.14 424.419 292.77C423.289 295.85 424.349 298.99 424.179 302.1C424.109 303.43 424.469 305 423.109 305.7C421.579 306.49 421.039 304.36 419.779 304.09C417.269 298.88 412.699 295.46 408.829 291.44C407.399 290.19 405.979 288.94 404.549 287.69C402.189 284.61 399.559 281.8 396.349 279.59C395.819 278.99 395.339 277.92 394.749 277.86C393.149 277.7 393.719 279.16 393.709 279.95C393.669 283.22 393.739 286.49 393.769 289.77C393.769 290.8 393.769 291.83 393.769 292.87C393.219 297.77 393.429 302.31 400.239 303.73C399.879 304.13 399.529 304.53 399.169 304.92H386.659C386.049 304.26 385.599 303.19 386.549 302.91C390.389 301.79 389.949 298.64 390.239 295.79C390.429 287.89 391.279 279.98 389.849 272.11C389.639 269.17 385.569 270.22 384.859 267.66C386.449 266.29 388.179 267.47 389.609 266.8L389.629 266.77Z" fill="#9F9FA7"/>
</g>
<defs>
<clipPath id="clip0_206_84">
<rect width="799.22" height="305.87" fill="white"/>
</clipPath>
</defs>
</svg>
