<?xml version="1.0" encoding="UTF-8" standalone="no"?>
<!-- Created with Inkscape (http://www.inkscape.org/) -->

<svg
   version="1.1"
   id="svg9"
   width="25.336426"
   height="27.821228"
   viewBox="0 0 25.336426 27.821227"
   sodipodi:docname="WEB Diseño-xd.pdf"
   xmlns:inkscape="http://www.inkscape.org/namespaces/inkscape"
   xmlns:sodipodi="http://sodipodi.sourceforge.net/DTD/sodipodi-0.dtd"
   xmlns="http://www.w3.org/2000/svg"
   xmlns:svg="http://www.w3.org/2000/svg">
  <defs
     id="defs13" />
  <sodipodi:namedview
     id="namedview11"
     pagecolor="#ffffff"
     bordercolor="#000000"
     borderopacity="0.25"
     inkscape:showpageshadow="2"
     inkscape:pageopacity="0.0"
     inkscape:pagecheckerboard="0"
     inkscape:deskcolor="#d1d1d1"
     showgrid="false" />
  <g
     id="g3837"
     inkscape:groupmode="layer"
     inkscape:label="Page 5"
     transform="matrix(1.3333333,0,0,-1.3333333,-51.074463,2376.1576)">
    <path
       d="m 50.89,1769.15 c -3.3,-0.32 -6.23,2.09 -6.55,5.39 -0.32,3.3 2.09,6.23 5.39,6.55 3.3,0.32 6.23,-2.09 6.55,-5.39 0.32,-3.3 -2.09,-6.23 -5.39,-6.55 z"
       style="fill:none;stroke:#c8ccd5;stroke-width:2;stroke-linecap:round;stroke-linejoin:miter;stroke-miterlimit:100;stroke-dasharray:none;stroke-opacity:1"
       id="path4467" />
    <path
       d="m 53.52,1772.48 c -1.46,-1.77 -4.08,-2.02 -5.85,-0.57 -1.76,1.46 -2.02,4.08 -0.56,5.85 1.45,1.77 4.07,2.02 5.84,0.56 1.77,-1.45 2.02,-4.07 0.57,-5.84 z"
       style="fill:none;stroke:#c8ccd5;stroke-width:2;stroke-linecap:round;stroke-linejoin:miter;stroke-miterlimit:100;stroke-dasharray:none;stroke-opacity:1"
       id="path4469" />
    <path
       d="m 47.77,1775.7 c 0.08,0.35 0.24,0.65 0.46,0.93 0.46,0.57 1.16,0.89 1.89,0.89"
       style="fill:none;stroke:#c8ccd5;stroke-width:2;stroke-linecap:round;stroke-linejoin:miter;stroke-miterlimit:100;stroke-dasharray:none;stroke-opacity:1"
       id="path4471" />
    <path
       d="m 48.08,1773.74 c -0.17,0.27 -0.29,0.55 -0.35,0.86"
       style="fill:none;stroke:#c8ccd5;stroke-width:2;stroke-linecap:round;stroke-linejoin:miter;stroke-miterlimit:100;stroke-dasharray:none;stroke-opacity:1"
       id="path4473" />
    <path
       d="m 42.19,1762.67 -2.49,2.09 4.22,5.23 2.54,-2.09 z"
       style="fill:none;stroke:#c8ccd5;stroke-width:2;stroke-linecap:round;stroke-linejoin:miter;stroke-miterlimit:100;stroke-dasharray:none;stroke-opacity:1"
       id="path4475" />
    <path
       d="m 42.75,1768.57 2.56,-2.08"
       style="fill:none;stroke:#c8ccd5;stroke-width:2;stroke-linecap:round;stroke-linejoin:miter;stroke-miterlimit:100;stroke-dasharray:none;stroke-opacity:1"
       id="path4477" />
    <path
       d="m 45.72,1770.97 -1.21,-1.48"
       style="fill:none;stroke:#c8ccd5;stroke-width:2;stroke-linecap:round;stroke-linejoin:miter;stroke-miterlimit:100;stroke-dasharray:none;stroke-opacity:1"
       id="path4479" />
    <path
       d="m 47.17,1769.81 -1.23,-1.49"
       style="fill:none;stroke:#c8ccd5;stroke-width:2;stroke-linecap:round;stroke-linejoin:miter;stroke-miterlimit:100;stroke-dasharray:none;stroke-opacity:1"
       id="path4481" />
  </g>
</svg>
