<?xml version="1.0" encoding="UTF-8"?>
<svg id="Capa_2" data-name="Capa 2" xmlns="http://www.w3.org/2000/svg" viewBox="0 0 698.9 345.25">
  <defs>
    <style>
      .cls-1 {
        fill: #e4e8ef;
      }
    </style>
  </defs>
  <g id="Capa_1-2" data-name="Capa 1">
    <g>
      <path class="cls-1" d="M0,193.64c.77-.09,1.06-.61,1.25-1.3,5.54-20.2,20.16-31.28,39.05-37.03,33.15-10.09,65.7-6.49,97.53,6.22,1.65,.66,2.95,1.31,2.81,3.47-.8,11.71-1.52,23.42-2.3,35.65-12.59-5.39-25.21-9.35-38.33-11.55-10.91-1.83-21.81-2.31-32.67,.42-2.76,.69-5.41,1.66-7.76,3.28-7.03,4.85-7.5,13.54-.96,19.04,4.25,3.58,9.31,5.76,14.42,7.77,11.9,4.68,23.89,9.13,35.72,13.98,8.32,3.42,16.12,7.87,23.17,13.54,26.29,21.15,26.45,59.02,.29,80.45-12.1,9.91-26.4,14.59-41.62,16.48-30.18,3.74-58.91-1.45-86.22-14.76-1.94-.95-3.81-1.49-3.35-4.55,1.84-12.1,3.39-24.25,5.13-36.96,3.67,1.9,6.85,3.61,10.08,5.22,20.32,10.1,41.59,15.71,64.49,13.5,4.51-.44,8.84-1.56,12.69-4.07,8.22-5.35,8.92-15.64,1.42-21.92-4.67-3.91-10.29-6.05-15.92-8.09-13.11-4.77-26.35-9.18-39.06-14.99-7.89-3.6-15.45-7.74-22.08-13.41-7.79-6.67-13.19-14.85-15.86-24.8-.35-1.3,.04-3.13-1.91-3.65v-21.94Z"/>
      <path class="cls-1" d="M344.66,339.92c-21.13,0-41.37-.04-61.62,.04-2.93,.01-3.45-2.24-4.49-3.98-15.73-26.2-31.4-52.43-47.1-78.65-.93-1.55-1.92-3.07-2.96-4.74-1.6,1.51-.83,3.24-.83,4.74-.06,25.93-.14,51.85,.05,77.77,.03,3.99-1.08,4.97-4.97,4.91-14.14-.23-28.28-.23-42.41,0-3.85,.06-5.01-.88-4.99-4.89,.18-31.24,.1-62.49,.1-93.73,0-78.61,.05-157.21-.12-235.82-.01-4.69,1.35-5.62,5.71-5.53,13.8,.28,27.62,.35,41.41-.03,4.65-.13,5.27,1.39,5.26,5.52-.13,68.3-.09,136.61-.09,204.91v5.83c2.15-.5,2.96-2.24,4.04-3.47,15.87-18.14,31.73-36.29,47.46-54.56,2.13-2.47,4.2-3.61,7.55-3.58,17.8,.18,35.6,.08,53.39,.08h5.28c-1.74,2.09-2.8,3.47-3.96,4.75-20.19,22.53-40.34,45.1-60.68,67.5-2.66,2.93-3.08,4.8-.86,8.33,20.82,33.21,41.4,66.57,62.05,99.89,.78,1.26,1.51,2.56,2.76,4.7Z"/>
      <path class="cls-1" d="M608.82,169.99c0,54.85-.06,109.71,.11,164.56,.01,4.37-1,5.59-5.45,5.49-13.97-.32-27.95-.21-41.92-.05-3.26,.04-4.6-.49-4.6-4.24,.11-110.54,.1-221.07,0-331.61,0-3.32,.94-4.11,4.14-4.07,14.31,.17,28.62,.22,42.92-.03,3.93-.07,4.9,.98,4.89,4.89-.14,55.02-.09,110.04-.09,165.06Z"/>
      <path class="cls-1" d="M648.36,170.2c0-55.02,.05-110.03-.11-165.04-.01-4.22,1.08-5.2,5.19-5.12,13.8,.28,27.62,.23,41.42,.02,3.37-.05,4.02,.99,4.01,4.14-.08,110.53-.09,221.06,.02,331.59,0,3.75-1.3,4.25-4.56,4.21-13.64-.17-27.29-.25-40.92,.03-4.23,.09-5.16-1.24-5.15-5.28,.13-54.85,.09-109.7,.09-164.55Z"/>
      <path class="cls-1" d="M443.33,258.85c-24.77-.31-46.02-9.11-62.93-27.41-29.84-32.29-27.7-81.25,4.63-111.4,32.75-30.53,85.64-30.42,117.68,.87,22.86,22.33,30.76,49.61,21.17,80.25-9.84,31.45-32.63,49.46-64.59,56.27-2.11,.45-4.26,.76-6.41,.94-3.15,.26-6.31,.33-9.56,.49Zm-36.23-80.54c.12,20.15,16.4,36.26,36.59,36.19,20.04-.07,36.46-16.63,36.28-36.58-.18-20.06-16.67-36.36-36.67-36.25-20.05,.11-36.31,16.57-36.2,36.64Z"/>
      <path class="cls-1" d="M443.34,339.95c-23.11,0-46.21-.08-69.32,.08-3.71,.03-4.8-.93-4.74-4.71,.22-14.78,.2-29.56,.01-44.34-.04-3.56,.68-4.83,4.59-4.82,46.38,.14,92.76,.13,139.14,.02,3.41,0,4.57,.82,4.53,4.39-.19,14.94-.22,29.9,.02,44.84,.06,3.95-1.37,4.63-4.9,4.61-23.11-.14-46.21-.07-69.32-.07Z"/>
    </g>
  </g>
</svg>