<?xml version="1.0" encoding="UTF-8" standalone="no"?>
<!-- Created with Inkscape (http://www.inkscape.org/) -->

<svg
   version="1.1"
   id="svg9"
   width="26.293457"
   height="23.667297"
   viewBox="0 0 26.293457 23.667297"
   sodipodi:docname="WEB Diseño-xd.pdf"
   xmlns:inkscape="http://www.inkscape.org/namespaces/inkscape"
   xmlns:sodipodi="http://sodipodi.sourceforge.net/DTD/sodipodi-0.dtd"
   xmlns="http://www.w3.org/2000/svg"
   xmlns:svg="http://www.w3.org/2000/svg">
  <defs
     id="defs13" />
  <sodipodi:namedview
     id="namedview11"
     pagecolor="#ffffff"
     bordercolor="#000000"
     borderopacity="0.25"
     inkscape:showpageshadow="2"
     inkscape:pageopacity="0.0"
     inkscape:pagecheckerboard="0"
     inkscape:deskcolor="#d1d1d1"
     showgrid="false" />
  <g
     id="g3837"
     inkscape:groupmode="layer"
     inkscape:label="Page 5"
     transform="matrix(1.3333333,0,0,-1.3333333,-50.853271,2538.7199)">
    <path
       d="m 52.44,1902.59 c 0,0.25 0.2,0.45 0.45,0.45 h 1.51 c 0.24,0 0.44,-0.2 0.44,-0.45 v -11.87 c 0,-0.24 -0.2,-0.44 -0.44,-0.44 h -1.51 c -0.25,0 -0.45,0.2 -0.45,0.44 z"
       style="fill:none;stroke:#c8ccd5;stroke-width:2;stroke-linecap:round;stroke-linejoin:miter;stroke-miterlimit:100;stroke-dasharray:none;stroke-opacity:1"
       id="path4559" />
    <path
       d="m 54.89,1897.63 h 0.89 c 0.59,-0.01 1.08,-0.49 1.08,-1.09 v -0.29 c 0,-0.6 -0.49,-1.08 -1.08,-1.08 h -0.89"
       style="fill:none;stroke:#c8ccd5;stroke-width:2;stroke-linecap:round;stroke-linejoin:miter;stroke-miterlimit:100;stroke-dasharray:none;stroke-opacity:1"
       id="path4561" />
    <path
       d="m 52.42,1890.9 c -0.63,0.53 -3.69,2.83 -9.35,2.83 v 5.37 c 5.5,0 8.29,2.02 9.16,2.8"
       style="fill:none;stroke:#c8ccd5;stroke-width:2;stroke-linecap:round;stroke-linejoin:miter;stroke-miterlimit:100;stroke-dasharray:none;stroke-opacity:1"
       id="path4563" />
    <path
       d="m 43.08,1893.69 h -1.23 c -1.5,0 -2.71,1.21 -2.71,2.71 v 0 c 0,1.49 1.21,2.7 2.71,2.7 h 1.23"
       style="fill:none;stroke:#c8ccd5;stroke-width:2;stroke-linecap:round;stroke-linejoin:miter;stroke-miterlimit:100;stroke-dasharray:none;stroke-opacity:1"
       id="path4565" />
    <path
       d="m 46.91,1893.35 c -1.01,0 -1.8,-1.19 -1.59,-2.1 l 0.65,-2.71 c 0.09,-0.3 0.02,-0.63 -0.17,-0.87 -0.2,-0.25 -0.5,-0.39 -0.81,-0.38 -0.47,0 -0.88,0.32 -0.99,0.78 l -1.35,5.62"
       style="fill:none;stroke:#c8ccd5;stroke-width:2;stroke-linecap:round;stroke-linejoin:miter;stroke-miterlimit:100;stroke-dasharray:none;stroke-opacity:1"
       id="path4567" />
  </g>
</svg>
