<?xml version="1.0" encoding="UTF-8" standalone="no"?>
<!-- Created with Inkscape (http://www.inkscape.org/) -->

<svg
   version="1.1"
   id="svg9"
   width="29.243164"
   height="29.253174"
   viewBox="0 0 29.243164 29.253173"
   sodipodi:docname="WEB Diseño-xd.pdf"
   xmlns:inkscape="http://www.inkscape.org/namespaces/inkscape"
   xmlns:sodipodi="http://sodipodi.sourceforge.net/DTD/sodipodi-0.dtd"
   xmlns="http://www.w3.org/2000/svg"
   xmlns:svg="http://www.w3.org/2000/svg">
  <defs
     id="defs13" />
  <sodipodi:namedview
     id="namedview11"
     pagecolor="#ffffff"
     bordercolor="#000000"
     borderopacity="0.25"
     inkscape:showpageshadow="2"
     inkscape:pageopacity="0.0"
     inkscape:pagecheckerboard="0"
     inkscape:deskcolor="#d1d1d1"
     showgrid="false" />
  <g
     id="g3837"
     inkscape:groupmode="layer"
     inkscape:label="Page 5"
     transform="matrix(1.3333333,0,0,-1.3333333,-512.05566,2542.6322)">
    <path
       d="m 398.93,1898.38 c 2.43,-3.24 1.95,-7.81 -1.11,-10.46 -3.06,-2.66 -7.66,-2.49 -10.52,0.37 -2.87,2.87 -3.03,7.46 -0.37,10.52 2.65,3.06 7.22,3.55 10.46,1.12"
       style="fill:none;stroke:#c8ccd5;stroke-width:2;stroke-linecap:round;stroke-linejoin:miter;stroke-miterlimit:100;stroke-dasharray:none;stroke-opacity:1"
       id="path4501" />
    <path
       d="m 396.91,1895.81 c 1.01,-2.05 0.38,-4.53 -1.49,-5.85 -1.88,-1.31 -4.43,-1.06 -6.01,0.59 -1.58,1.65 -1.72,4.21 -0.33,6.02 1.39,1.82 3.9,2.35 5.9,1.25"
       style="fill:none;stroke:#c8ccd5;stroke-width:2;stroke-linecap:round;stroke-linejoin:miter;stroke-miterlimit:100;stroke-dasharray:none;stroke-opacity:1"
       id="path4503" />
    <path
       d="m 394.77,1894.17 c 0.03,-0.14 0.05,-0.28 0.05,-0.42 0,-1.14 -0.93,-2.06 -2.06,-2.06 -1.14,0 -2.06,0.92 -2.06,2.06 0,1.14 0.92,2.06 2.06,2.06 0.17,0 0.34,-0.02 0.51,-0.07"
       style="fill:none;stroke:#c8ccd5;stroke-width:2;stroke-linecap:round;stroke-linejoin:miter;stroke-miterlimit:100;stroke-dasharray:none;stroke-opacity:1"
       id="path4505" />
    <path
       d="m 392.72,1893.77 6.32,6.32"
       style="fill:none;stroke:#c8ccd5;stroke-width:2;stroke-linecap:round;stroke-linejoin:miter;stroke-miterlimit:100;stroke-dasharray:none;stroke-opacity:1"
       id="path4507" />
    <path
       d="m 398.93,1901.98 2.58,2.58 v -2.06 h 2.05 l -2.57,-2.57 h -2.06 z"
       style="fill:none;stroke:#c8ccd5;stroke-width:2;stroke-linecap:round;stroke-linejoin:miter;stroke-miterlimit:100;stroke-dasharray:none;stroke-opacity:1"
       id="path4509" />
  </g>
</svg>
