<?xml version="1.0" encoding="UTF-8"?>
<svg id="Capa_2" data-name="Capa 2" xmlns="http://www.w3.org/2000/svg" viewBox="0 0 4836.35 136.56">
  <defs>
    <style>
      .cls-1 {
        fill: rgba(143, 139, 255, 0.50);
      }
    </style>
  </defs>
  <g id="Capa_1-2" data-name="Capa 1">
    <g id="Trazado_593" data-name="Trazado 593">
      <path class="cls-1" d="M4836.35,136.56c-219.24,0-366.36-35.75-496.16-67.29-112.74-27.39-219.22-53.27-357.18-53.27-82.16,0-179.7,22.61-282.98,46.55-115.21,26.71-245.8,56.98-374.41,59.22-5.15,.09-10.32,.13-15.46,.13-125.31,0-248.01-26.02-366.85-51.22-108.43-22.99-210.84-44.71-313.36-47.64-120.81-3.46-236.54,15.28-370.54,36.97-134,21.69-285.89,46.28-467.96,50.5-204.55,4.75-321.15-25.74-424.02-52.63-78.58-20.54-152.8-39.95-256.09-41.75-152.86-2.67-298.44,32.29-426.91,63.12-71.58,17.18-139.2,33.41-196.93,39.92-87.54,9.87-179.02-12.32-267.49-33.77C147.23,67.77,71.97,49.52,0,49.52v-16c73.89,0,150.09,18.48,223.79,36.35,87.12,21.12,177.2,42.96,261.92,33.42,56.75-6.4,123.9-22.51,194.99-39.58C810.09,32.65,956.76-2.55,1111.62,.15c105.2,1.83,180.33,21.47,259.86,42.26,52.36,13.69,106.5,27.84,173.04,38.04,75.45,11.57,156.1,16.17,246.57,14.07,180.98-4.2,332.28-28.69,465.78-50.3,134.81-21.82,251.23-40.67,373.56-37.17,103.97,2.97,207.07,24.83,316.22,47.98,122.84,26.05,249.88,52.98,378.71,50.74,126.92-2.21,251.04-30.98,371.07-58.81C3800.61,22.82,3899.02,0,3983.01,0c139.87,0,247.26,26.09,360.96,53.72,135.23,32.86,275.06,66.84,492.38,66.84v16Z"/>
    </g>
  </g>
</svg>