<?xml version="1.0" encoding="UTF-8"?>
<svg id="Capa_2" data-name="Capa 2" xmlns="http://www.w3.org/2000/svg" viewBox="0 0 176.81 34.68">
  <defs>
    <style>
      .cls-1 {
        fill: #e4e8ef;
      }
    </style>
  </defs>
  <g id="Capa_1-2" data-name="Capa 1">
    <g id="Group_1990" data-name="Group 1990">
      <g id="Group_1989" data-name="Group 1989">
        <path id="Path_15076" data-name="Path 15076" class="cls-1" d="M51.43,28.42h3.3v.79h-2.41v1.73h2.41v.79h-2.41v2.88h-.89v-6.19Z"/>
        <path id="Path_15077" data-name="Path 15077" class="cls-1" d="M60.53,28.33c.89-.03,1.74,.3,2.39,.91,.63,.59,.98,1.42,.95,2.28,.02,.86-.33,1.69-.96,2.27-.66,.61-1.53,.93-2.43,.9-.87,.02-1.71-.3-2.33-.9-.61-.58-.95-1.4-.93-2.25-.03-.86,.32-1.7,.94-2.29,.64-.61,1.49-.94,2.37-.91Zm.04,.84c-.65-.02-1.28,.22-1.74,.66-.46,.45-.71,1.06-.68,1.7-.02,.63,.23,1.23,.69,1.67,.98,.89,2.47,.88,3.44-.01,.46-.44,.71-1.05,.69-1.69,.01-.62-.24-1.23-.69-1.65-.45-.45-1.07-.69-1.7-.67h0Z"/>
        <path id="Path_15078" data-name="Path 15078" class="cls-1" d="M71.08,28.42h.89v3.51c.01,.36-.02,.72-.1,1.08-.06,.21-.14,.41-.26,.6-.1,.16-.23,.31-.37,.43-.54,.44-1.23,.67-1.92,.63-.7,.03-1.39-.19-1.94-.63-.14-.13-.27-.27-.37-.44-.11-.18-.2-.38-.25-.59-.08-.36-.11-.73-.1-1.1v-3.5h.89v3.51c-.03,.41,.04,.83,.2,1.21,.14,.24,.35,.43,.61,.55,.3,.14,.63,.21,.96,.21,.46,.02,.92-.13,1.28-.41,.17-.14,.3-.32,.38-.52,.09-.34,.13-.68,.11-1.03v-3.51Z"/>
        <path id="Path_15079" data-name="Path 15079" class="cls-1" d="M79.93,28.42h.84v6.19h-.76l-4.14-4.76v4.76h-.83v-6.19h.72l4.17,4.8v-4.8Z"/>
        <path id="Path_15080" data-name="Path 15080" class="cls-1" d="M83.91,34.6v-6.18h2.09c.69-.03,1.37,.1,2,.38,.49,.25,.89,.64,1.17,1.11,.29,.48,.44,1.04,.43,1.6,0,.82-.33,1.61-.92,2.18-.3,.29-.66,.52-1.05,.67-.21,.08-.42,.15-.64,.18-.37,.04-.74,.06-1.12,.05h-1.96Zm1.99-5.39h-1.11v4.6h1.13c.35,0,.69-.02,1.03-.09,.21-.05,.42-.13,.61-.23,.16-.09,.32-.21,.45-.34,.44-.45,.68-1.05,.65-1.68,.02-.61-.22-1.21-.67-1.62-.17-.16-.36-.29-.57-.39-.19-.09-.4-.16-.61-.2-.31-.04-.62-.06-.93-.05h0Z"/>
        <path id="Path_15081" data-name="Path 15081" class="cls-1" d="M93.99,28.38h.62l2.77,6.22h-.91l-.82-1.83h-2.64l-.77,1.83h-.91l2.66-6.22Zm1.3,3.6l-1-2.24-.93,2.24h1.93Z"/>
        <path id="Path_15082" data-name="Path 15082" class="cls-1" d="M98.45,28.41h5.17v.79h-2.16v5.41h-.89v-5.41h-2.12v-.79Z"/>
        <path id="Path_15083" data-name="Path 15083" class="cls-1" d="M106.27,28.42h.89v6.19h-.89v-6.19Z"/>
        <path id="Path_15087" data-name="Path 15087" class="cls-1" d="M113.38,28.33c.89-.03,1.74,.3,2.39,.91,.63,.59,.98,1.42,.95,2.28,.02,.86-.33,1.69-.96,2.27-.66,.61-1.53,.93-2.43,.9-.87,.03-1.71-.3-2.33-.9-.61-.58-.95-1.4-.93-2.25-.03-.86,.32-1.7,.94-2.29,.64-.61,1.49-.94,2.37-.91Zm.04,.84c-.65-.02-1.28,.22-1.74,.66-.46,.44-.71,1.06-.68,1.7-.02,.63,.23,1.23,.69,1.67,.98,.89,2.47,.88,3.44-.01,.46-.44,.71-1.05,.69-1.69,.01-.62-.24-1.23-.69-1.65-.45-.45-1.07-.69-1.7-.67Z"/>
        <path id="Path_15088" data-name="Path 15088" class="cls-1" d="M124.54,28.42h.84v6.19h-.76l-4.14-4.76v4.76h-.83v-6.19h.72l4.17,4.8v-4.8Z"/>
        <path id="Path_15074" data-name="Path 15074" class="cls-1" d="M19.68,17.07v3.44c-2.45,1.29-5.18,1.93-7.95,1.88-2.16,.07-4.31-.44-6.21-1.47-1.68-.96-3.08-2.36-4.04-4.05C.5,15.17,0,13.24,0,11.28-.06,8.25,1.18,5.33,3.4,3.26,5.65,1.1,8.68-.08,11.8,0c2.65,.08,5.25,.69,7.65,1.8v3.36c-2.26-1.38-4.85-2.13-7.49-2.19-2.31-.07-4.56,.78-6.23,2.37-3.28,3.25-3.31,8.55-.06,11.83,0,0,.01,.01,.02,.02,1.69,1.57,3.94,2.4,6.24,2.32,2.77-.04,5.47-.89,7.76-2.44Z"/>
        <path id="Path_15075" data-name="Path 15075" class="cls-1" d="M40.13,.28h3.13V22.14h-3.13V12.63h-12.28v9.51h-3.13V.28h3.13V9.73h12.28V.28Z"/>
        <path id="Path_15084" data-name="Path 15084" class="cls-1" d="M56.57,.16h2.2l9.8,21.98h-3.2l-2.91-6.48h-9.33l-2.73,6.48h-3.22L56.57,.16Zm4.6,12.72l-3.53-7.92-3.27,7.92h6.8Z"/>
        <path id="Path_15085" data-name="Path 15085" class="cls-1" d="M90.07,.28h2.97V22.14h-2.69l-14.61-16.83V22.14h-2.94V.28h2.53l14.74,16.98V.28Z"/>
        <path id="Path_15086" data-name="Path 15086" class="cls-1" d="M99.02,22.11V.28h7.37c2.42-.11,4.84,.35,7.06,1.34,1.73,.89,3.16,2.25,4.13,3.93,1.02,1.71,1.55,3.67,1.53,5.66,0,4.48-2.77,8.49-6.96,10.08-.73,.3-1.49,.51-2.27,.65-1.31,.14-2.63,.19-3.94,.16h-6.92Zm7.04-19.04h-3.91V19.32h4.01c1.22,.03,2.45-.07,3.64-.32,.76-.17,1.48-.45,2.17-.81,.58-.33,1.12-.74,1.59-1.21,1.55-1.58,2.39-3.72,2.32-5.93,.07-2.17-.79-4.26-2.38-5.74-.59-.56-1.27-1.02-2.01-1.36-.68-.33-1.41-.56-2.15-.7-1.09-.14-2.18-.2-3.28-.18h0Z"/>
        <path id="Path_15089" data-name="Path 15089" class="cls-1" d="M123.74,.28h3.13V19.29h9.84v2.85h-12.97V.28Z"/>
        <path id="Path_15090" data-name="Path 15090" class="cls-1" d="M141.33,.28h12.39V3.07h-9.26v6.67h8.95v2.8h-8.95v6.79h9.56v2.79h-12.69V.28Z"/>
        <path id="Path_15091" data-name="Path 15091" class="cls-1" d="M159.96,22.14V.28h5.47c1.9-.1,3.76,.48,5.27,1.64,1.3,1.1,2.02,2.74,1.95,4.44,.09,2.41-1.41,4.6-3.69,5.38,.77,.52,1.46,1.16,2.05,1.88,1.03,1.32,1.97,2.7,2.82,4.15,.76,1.24,1.37,2.17,1.83,2.8l1.16,1.56h-3.72l-.95-1.44c-.03-.05-.09-.14-.19-.27l-.61-.86-.97-1.6-1.05-1.71c-.53-.76-1.13-1.48-1.78-2.14-.43-.45-.92-.83-1.46-1.15-.69-.28-1.44-.4-2.18-.35h-.81v9.52h-3.13Zm4.07-19.2h-.94v6.9h1.19c1.1,.07,2.21-.07,3.26-.41,.57-.26,1.06-.69,1.38-1.23,.33-.57,.5-1.21,.49-1.87,0-.66-.18-1.31-.55-1.87-.36-.56-.91-.97-1.54-1.18-1.07-.28-2.18-.4-3.29-.35h0Z"/>
      </g>
    </g>
  </g>
</svg>