<?xml version="1.0" encoding="UTF-8"?>
<svg id="Capa_2" data-name="Capa 2" xmlns="http://www.w3.org/2000/svg" viewBox="0 0 304.94 105.18">
  <defs>
    <style>
      .cls-1 {
        fill: #e4e8ef;
      }
    </style>
  </defs>
  <g id="Capa_1-2" data-name="Capa 1">
    <g>
      <path class="cls-1" d="M120.57,105.18c-.02-.23-.05-.47-.05-.7,0-6.2,0-12.4,0-18.6,0-.25,.02-.51,.03-.8h2.3c.03,.57,.05,1.12,.08,1.76,1.84-2.26,4.17-2.47,6.64-1.84,2.57,.66,3.9,2.57,4.47,5.02,.53,2.29,.38,4.57-.73,6.69-1.93,3.69-7.25,4.4-10.1,1.35-.06-.06-.13-.11-.37-.33v7.45h-2.28Zm2.07-12.96c.06,.02,.13,.04,.19,.06-.04,1.31,.21,2.55,.92,3.66,1.54,2.41,5.3,2.56,6.94,.29,1.42-1.96,1.42-5.7,.01-7.68-1.81-2.54-5.79-2.29-7.14,.52-.47,.97-.63,2.1-.93,3.15Z"/>
      <path class="cls-1" d="M0,.01H2.26V99.46H0V.01Z"/>
      <path class="cls-1" d="M29.36,22.9c-.13-.28-.24-.51-.33-.72-.33,.4-.6,.73-.88,1.07-.06-.05-.12-.09-.19-.14,.05-.24,.11-.47,.19-.84-.52,.28-.94,.77-1.42,.15,.16-.11,.32-.22,.53-.36-.42-.47-.57-.9,.11-1.24,.11-.06,.1-.36,.14-.54-.23,.03-.47,.06-.77,.1-.02-.17-.05-.41-.09-.71-.21,.12-.4,.23-.69,.39-.06-.38-.1-.7-.17-1.14-.28,.63-.67,.71-1.26,.61-.49-.08-1.02,.13-1.54,.21,0,.08-.01,.16-.02,.24,.24,.17,.48,.34,.72,.51,.38,.28,.79,.53,1.14,.84,.98,.86,.94,1.96-.05,2.77-1.23,1-1.24,1.34-.07,2.41,.35,.32,.75,.58,1.15,.83,.38,.24,.73,.26,1.18,0,.3-.17,.91-.17,1.16,.03,.37,.29,1.09,.57,.69,1.33-.28-.12-.55-.24-.78-.34-.2,.47-.36,.84-.52,1.22-.07,0-.14,0-.21,.01,.08-.7-.11-.81-.71-.54-.45,.21-.97,.18-1.3-.38-.11-.18-.32-.3-.57-.52-.06,.33-.1,.51-.14,.69-1.1-.07-.78-1.22-1.37-1.8-.03,.34-.06,.61-.09,.87-.06,.03-.11,.07-.17,.1-.28-.46-.56-.92-.82-1.39-.17-.3-.33-.6-.44-.92-.05-.14-.01-.42,.09-.49,1.19-.9,1.14-2.28-.18-3.13-.02,.26-.05,.48-.04,.7,.08,1.86-.79,3.22-2.28,4.22-.37,.25-.78,.45-1.19,.62-1.62,.68-1.98,2.4-.74,3.68,.4,.41,.8,.64,1.33,.12,.41-.4,1.82-.12,2.06,.41,.1,.22-.01,.53-.04,.91-.34-.28-.54-.44-.78-.64-.09,.52-.17,.92-.24,1.32-.07-.06-.14-.13-.21-.19-.26,.04-.53,.07-.79,.11-.35,.05-.71,.17-1.06,.15-.44-.03-.88-.26-1.21,.26,0,0-.49-.19-.49-.29,0-.33,.12-.67,.24-1.18-.33,.06-.63,.12-1.1,.22,.08-.69,.16-1.41,.26-2.26-.28,.37-.48,.64-.76,1-.32-1.04-.45-1.92,.15-2.8,.19-.28,.17-.7,.23-.98,.51-.14,1.16-.12,1.45-.44,.42-.45,.73-1.13,.83-1.75,.21-1.31,.65-2.51,1.29-3.65,.07-.12,.11-.25,.1-.44-.1,.1-.21,.19-.28,.31-.59,.87-1.17,1.75-1.76,2.63-.51,.77-1.59,1.06-2.41,.65,.3-.18,.61-.37,.91-.56-.71-.3-1.63,.11-2.03-.91,.27,.02,.49,.03,.8,.05-.64-1.39-.17-2.52,.66-3.52,.72-.87,1.56-1.65,2.28-2.53,.43-.52,.83-1.11,1.04-1.74,.12-.36-.05-.95-.3-1.28-.32-.42-.85-.27-1.29-.02,.41,1.16,.16,1.95-.88,2.59-.56,.34-1.2,.56-1.78,.87-.55,.29-1.09,.63-1.63,.95-.04-.68,.46-1.07,1.02-1.44,.54-.35,1.04-.75,1.56-1.12-.04-.06-.08-.11-.11-.17-.45,.28-.91,.56-1.46,.9,.37-.8,.67-1.44,.97-2.08,.28-.61,.68-1.01,1.44-.88,.2,.03,.44-.1,.64-.2,.64-.34,1.27-.36,1.88,.05,.58,.4,.78,1.01,.61,1.63-.18,.67-.44,1.36-.86,1.9-.69,.9-1.54,1.66-2.3,2.51-.59,.65-1.19,1.35-1.14,2.29,.02,.42,.24,1.04,.54,1.17,.39,.17,1.04,.08,1.43-.15,.46-.27,.82-.78,1.14-1.24,1.83-2.68,3.5-5.46,4.33-8.64,.03-.11,.06-.21,.14-.51-.53,.8-.94,1.42-1.36,2.05-.06-.04-.13-.07-.19-.11,.13-1.17,.26-2.33,.39-3.5l-.13-.03c-.26,.9-.52,1.8-.78,2.7-.66-1.42-.35-2.73,.21-4.03-.55,.46-.41,1.41-1.31,1.58,.18-.88,.35-1.71,.53-2.63-.05-.04-.2-.15-.33-.28-.55-.54-.47-.86,.24-1.11,.09-.03,.25-.01,.27-.06,.34-.92,1.33-.71,1.97-1.11,.66-.42,1.62-.42,2.21-.89,.63-.5,1.27-.09,1.86-.37,.09-.04,.45,.21,.49,.37,.08,.31,.02,.65,.02,1.04,.37,.17,.75,.34,1.26,.57-.33,.13-.59,.24-.84,.34,.59,.62,1.21,1.27,1.9,2-.34,.04-.58,.07-.89,.1,.4,.52,.78,1.01,1.22,1.59h-.86c.34,1,.7,2.07,1.09,3.2,.16-.03,.42-.07,.65-.11-.66,1.01-1.32,2.01-2,3.04-.39-.3-.86-.66-1.32-1.01-.05,.06-.1,.11-.15,.17,.64,.7,1.28,1.4,1.92,2.1,.59,.64,1.18,1.26,1.26,2.23,.05,.55,.39,1.08,.57,1.63,.15,.45,.1,.51-.41,.77Zm-6.98-14.03c.13,.15,.23,.37,.35,.38,.71,.03,.64,.31,.47,.88-.09,.32,.19,.81,.43,1.12,.08,.11,.79-.05,.81-.16,.07-.37-.02-.78-.11-1.16-.02-.1-.27-.16-.41-.22-.4-.16-.49-.38-.22-.76,.11-.15,.12-.38,.19-.63,.1-.01,.28-.03,.52-.05-.48-.38-2.11-.02-2.45,.48-.07,.11-.05,.28-.09,.53,.23-.18,.37-.29,.51-.4Zm-.34-1.41c-.06-.05-.13-.11-.19-.16-.42,.15-.85,.3-1.27,.45,0,.08,0,.16,0,.24,.33,.08,.7,.27,.99,.2,.21-.05,.32-.47,.47-.73Zm1.2-.69c0,.1-.01,.19-.02,.29,.31,.05,.71,.25,.92,.12,.24-.14,.32-.56,.46-.86-.06-.03-.11-.06-.17-.1l-1.19,.55Z"/>
      <path class="cls-1" d="M60.09,17.92c-.45-.26-.9-.53-1.3-.76,.18,1.16,1.92,1,2.24,2.29-.95-.44-1.84-.78-2.67-1.24-1.11-.61-1.36-1.46-.86-2.63-.81-.43-1.83,.2-1.96,1.23-.11,.89,.22,1.64,.82,2.26,.49,.51,1.05,.96,1.55,1.46,.89,.86,1.49,1.86,1.22,3.16-.07,.34-.25,.65-.4,1.02,.18-.04,.38-.08,.59-.12-.36,.82-.54,.87-2,.59-.05,.05-.1,.1-.16,.15,.28,.23,.56,.47,.84,.7-.76,.51-1.71,.05-1.94-.97-.05-.23-.03-.49-.13-.69-.19-.37-.44-.71-.67-1.09-.29,.84-.61,1.63-.83,2.45-.26,.98,.49,1.73,1.53,1.53,.04,.82,.07,1.63,.12,2.53,.53-.43,1.03-.77,1.53-.34,.19,.16,.26,.7,.14,.94-.31,.63-.89,.7-1.53,.42-.09,.51-.17,1-.26,1.55-.32-.11-.51-.23-.69-.23-.1,0-.3,.24-.28,.33,.22,1.04-.08,1.41-1.31,1.47,.02-.16,.04-.31,.07-.46,.03-.16,.08-.31,.03-.51-.07,.12-.14,.23-.21,.35-.07,.12-.09,.29-.19,.38-.1,.09-.27,.11-.41,.15-.05-.06-.1-.12-.15-.18,.51-.6,1.08-1.16,1.52-1.81,.3-.44,.54-.99,.61-1.52,.08-.6-.02-1.23-.12-1.83-.03-.19-.28-.45-.46-.49-1.81-.32-3.24-1.83-3.34-3.64-.57-.1-1.12-.01-1.42,.49-.4,.67-.3,1.36,.33,1.99-.19,.13-.32,.25-.48,.32-1.15,.49-2.3,1-3.48,1.44-.26,.1-.62-.08-.93-.16-.16-.04-.31-.13-.52-.22,.23,1.18-.08,1.43-1.43,1.29,.08-.21,.15-.42,.26-.72-.36,.32-.62,.55-.89,.79l-.16-.2c.7-.72,1.27-1.58,2.43-1.74,.91-.13,1.82-.32,2.69-.6,1.05-.34,1.14-.85,.4-1.65-1.19-1.28-.71-3.01,1-3.47,.61-.16,1.25-.19,1.96-.3-.35-.77-.94-1.18-1.66-1.37-.89-.24-1.6-.68-2.03-1.52-.47,.67-.94,.81-1.5,.46-.42-.26-.58-.63-.38-1.09,.21-.47,.78-.47,1.72-.18-.14-.11-.27-.29-.42-.32-.72-.12-1.45-.2-2.18-.27-.49-.05-.65,.19-.37,.58,.3,.43,.69,.79,1,1.21,.12,.17,.12,.43,.18,.66,.99-.16,1.18-.05,1.69,1.08-.21-.04-.38-.06-.57-.1,.07,.2,.14,.4,.25,.7-.66-.32-1.19-.56-1.71-.83-.18-.1-.38-.24-.47-.41-.48-.87-.95-1.74-1.39-2.63-.25-.52,.17-1.09,.77-1.11,.41-.02,.82-.05,1.36-.08-.58-.74-1.04-1.36-1.55-1.95-.11-.13-.36-.16-.55-.21-.28-.08-.57-.14-.95-.23,.99-1.12,1.27-1.14,2.29-.31,.29,.23,.52,.44,.99,.28,.55-.18,.75,.26,.86,.77,.07,.31,.29,.59,.52,1.04,.69-1.66,1.27-3.06,1.88-4.54,.63,.54,1.15,.12,1.7-.27,.52-.37,1.1-.66,1.61-1.04,.44-.32,.69-.76,.47-1.34-.29,.35-.49,.8-.84,.97-.32,.16-.85,.16-1.18,0-.5-.23-.73-.27-.79,.36-.01,.17-.16,.33-.28,.57-.1-.22-.15-.35-.21-.47-.23,.41-.45,.81-.68,1.21-.07-.03-.14-.06-.2-.09,0-.18,.02-.36,.03-.52-.29-.13-.58-.26-1.01-.46,.52-.31,.93-.55,1.33-.8l-.09-.23c-.52,.21-1.05,.42-1.58,.63-.44-.68-.16-1.13,.45-1.54,.86-.58,1.7-1.2,2.62-1.86-1.32-1.67-2.69-3.39-4.06-5.12,.05-.05,.1-.1,.16-.15,1.62,1.57,3.23,3.14,4.92,4.78,.07-.4,.12-.69,.18-1.04,.17,.11,.4,.16,.46,.3,.57,1.27,1.98,1.15,2.95,1.82-.11,.12-.22,.25-.25,.28,.6,.65,1.17,1.29,1.78,1.95-.14,.08-.29,.16-.34,.19,.13,1.08,.25,2.12,.38,3.26-.25-.13-.48-.25-.76-.4-.04,.74-.09,1.47-.14,2.32-.28-.22-.47-.37-.85-.66,.08,.44,.13,.7,.2,1.12-.43,.39-.98,.9-1.54,1.39-.63,.55-.79,1.31-.39,2.05,.15,.27,.32,.53,.49,.78,.19,.27,.39,.53,.65,.89,.13-.62,.44-.94,1.03-.79,.52,.13,.89,.52,.76,1.03-.09,.34-.52,.6-.83,.93,.44,.74,.97,1.66,1.54,2.55,.48,.76,.97,.94,1.59,.69,.64-.27,.91-.9,.75-1.72-.18-.95-.81-1.58-1.47-2.2-.46-.44-.95-.86-1.37-1.34-.67-.75-.89-1.66-.77-2.64,.16-1.38,1.7-2.2,2.93-1.54,.06,.03,.12,.12,.18,.11,1.26-.08,1.41,.82,1.59,1.74,.06,.3,.3,.56,.46,.84-.02,.05-.04,.1-.06,.16Zm-9.65-6.23c-.41,.31-.77,.59-1.15,.88,.08,.12,.21,.3,.41,.59-.66,0-1.08-.07-1.13-.71,.18-.02,.32-.03,.34-.04v-.77c-.07,.01-.27,0-.3,.06-.16,.39-.3,.8-.4,1.21-.02,.1,.12,.3,.23,.36,1.49,.87,2.98,1.74,4.48,2.58,.13,.07,.42,.04,.54-.05,.27-.22,.5-.5,.71-.78,.06-.08-.02-.26-.03-.39-.07-.01-.15-.03-.22-.04,.27,.5-1.04,.06-.27,.84-.65,.09-1.01-.07-1.12-.77,.29,.07,.49,.12,.78,.19-.1-.31-.23-.52-.21-.72,.03-.24,.19-.47,.34-.83-.6,.28-1.03,.48-1.49,.69,.1,.14,.23,.3,.37,.48-.72,.24-.96,.06-1.01-.59,.17-.06,.45-.14,.45-.18-.03-.31-.12-.62-.19-.93-.09,0-.17,0-.26,0,.3,.51-.98,.27-.32,1.03-.37-.04-.68-.12-.98-.25-.07-.03-.08-.2-.12-.3,.24-.05,.47-.09,.63-.13-.03-.47-.07-.93-.1-1.45Zm2.18,14.51c.27-.37,.51-.59,.6-.86,.03-.1-.28-.32-.44-.48-.2,.23-.46,.43-.59,.69-.05,.09,.21,.33,.42,.65Zm5.17,3.81c-.36-.21-.61-.44-.71-.39-.26,.14-.45,.4-.66,.62,.16,.13,.37,.39,.47,.36,.27-.09,.5-.31,.9-.59Zm-2.32-9.72c-.35-.28-.57-.51-.83-.63-.06-.03-.43,.36-.41,.39,.16,.25,.37,.49,.61,.66,.06,.04,.32-.21,.63-.42Zm-.57,2.75c-.29-.22-.53-.49-.6-.45-.25,.15-.48,.37-.63,.62-.03,.05,.35,.48,.4,.45,.26-.12,.48-.35,.82-.62Zm-8.9-5.16c-.25,.27-.39,.42-.53,.58,.23,.2,.44,.44,.7,.57,.07,.04,.46-.33,.44-.37-.14-.25-.35-.47-.61-.79Zm.07-2.83c-.05-.11-.11-.21-.16-.32-.15-.13-.3-.27-.45-.4-.13,.16-.37,.32-.37,.49,0,.17,.21,.45,.36,.47,.19,.03,.41-.15,.62-.24Zm3.12-7.03c.44-.13,.79-.23,1.17-.34-.71-.55-.94-.5-1.17,.34Z"/>
      <path class="cls-1" d="M39.13,99.48v-19.9c.1-.03,.17-.07,.23-.07,2.68,.02,5.37-.11,8.03,.09,5.18,.38,7.87,3.16,8.25,8.34,.15,2.07,0,4.12-.68,6.1-1.12,3.3-3.52,5.12-6.89,5.4-2.94,.24-5.91,.05-8.95,.05Zm2.73-2.2c1.82,0,3.6,.14,5.36-.03,2.98-.28,4.82-2.03,5.48-4.93,.45-1.99,.44-3.99-.02-5.98-.61-2.66-2.36-4.26-5.09-4.47-1.86-.15-3.73-.07-5.6-.09-.04,0-.07,.05-.13,.09v15.41Z"/>
      <path class="cls-1" d="M29.43,36c2.48,1.53,9.82,1.57,12.82,.1-.25-.17-.44-.31-.64-.43-.36-.23-.74-.43-1.07-.69-.49-.39-.58-.9-.28-1.46,.38-.71,.75-1.42,1.15-2.11,.54-.92,1.63-1.45,2.75-1.18,.82,.19,1.62,.53,2.36,.93,.96,.51,1.84,1.16,2.76,1.74,1.69,1.06,3.33,2.3,5.53,1.97,.03,.07,.05,.13,.08,.2-1.01,.64-1.98,1.39-3.06,1.89-.84,.39-1.73-.08-2.48-.52-1.22-.72-2.38-1.55-3.6-2.27-.76-.45-1.59-.78-2.38-1.17-.05,.07-.09,.14-.14,.21,.13,.14,.25,.28,.39,.41,.65,.64,.73,1.22,.37,2.06-.31,.74-.63,1.48-.84,2.24-.25,.88-.77,1.49-1.61,1.73-.97,.28-1.97,.55-2.97,.63-2.46,.2-4.92,.25-7.35-.3-1.46-.33-2.51-1.03-2.72-2.66-.06-.48-.33-.93-.54-1.38-.53-1.16-.45-1.62,.42-2.53,.06-.06,.1-.14,.07-.37-.58,.24-1.19,.42-1.73,.73-1.08,.64-2.09,1.4-3.18,2.01-.88,.49-1.83,.85-2.76,1.23-.2,.08-.52,.11-.69,0-1.08-.62-2.14-1.28-3.17-2.04,2.44,.24,4.14-1.21,5.98-2.34,1.17-.72,2.32-1.49,3.56-2.05,.67-.3,1.51-.32,2.26-.3,.81,.03,1.37,.59,1.75,1.29,.33,.6,.64,1.21,.97,1.81,.42,.78,.31,1.25-.45,1.73-.47,.29-.97,.55-1.55,.88Z"/>
      <path class="cls-1" d="M224.02,89.31c-.07,3.44-.89,6.34-3.34,8.51-5.46,4.82-14.05,1.9-15.6-5.27-.57-2.63-.47-5.22,.55-7.74,1.79-4.41,5.72-6.28,10.12-5.69,4.47,.6,7.43,3.7,8.08,8.2,.11,.75,.15,1.5,.19,1.99Zm-16.58,.32c-.03,1.47,.25,2.95,.91,4.34,1.14,2.38,3,3.72,5.68,3.83,2.86,.11,5.04-1.06,6.27-3.66,1.49-3.16,1.45-6.39-.17-9.5-1.13-2.17-3.02-3.26-5.48-3.34-2.62-.08-4.65,.95-5.98,3.23-.9,1.55-1.26,3.25-1.23,5.1Z"/>
      <path class="cls-1" d="M21.11,88.99c1.07,1.31,2.23,2.7,3.53,4.29,.25-1.15,.45-2.1,.67-3.12h2.18c-.06,1.4-.29,2.77-.94,4.01-.35,.68-.24,1.12,.26,1.66,1.09,1.18,2.11,2.42,3.27,3.77-1.09,0-2.02,.02-2.95-.02-.19,0-.4-.23-.55-.39-.58-.65-1.14-1.32-1.68-1.95-.46,.43-.87,.85-1.32,1.21-2.16,1.74-5.84,1.99-8.25,.61-2.86-1.64-3.58-6.41-.47-8.94,.8-.65,1.7-1.19,2.58-1.81-.46-.68-.97-1.35-1.4-2.08-.81-1.36-1.02-2.8-.37-4.28,.74-1.71,2.61-2.67,4.71-2.44,.33,.04,.66,.08,.98,.16,3.19,.78,4.43,3.95,2.49,6.62-.72,.99-1.76,1.75-2.74,2.7Zm2.33,6.41c-1.37-1.65-2.76-3.32-4.15-4.99-.08-.09-.14-.23-.23-.26-.17-.05-.41-.12-.53-.04-.63,.41-1.3,.79-1.85,1.3-2.05,1.91-1.62,4.95,.83,6.04,2.08,.92,4.66,.05,5.93-2.05Zm-3.86-8.13c1.17-.77,2.18-1.44,2.6-2.66,.35-1.02,.04-2.04-.77-2.59-.85-.58-2.11-.53-2.93,.11-.76,.6-1.02,1.57-.52,2.56,.44,.88,1.04,1.67,1.62,2.58Z"/>
      <path class="cls-1" d="M83.2,57.21s.03-.08,.04-.14c.04-.51-.03-1.41,.14-1.46,.63-.18,1.33-.07,2.03-.07,.02,.13,.06,.24,.06,.35,0,4.64,.08,9.29-.06,13.93-.12,4.17-2.7,6.34-6.89,6.13-1.37-.07-2.69-.28-3.87-1.01-1.19-.73-1.87-1.76-1.93-3.24h2.31c.53,1.94,2.13,2.26,3.78,2.33,1.68,.06,3.05-.61,3.8-2.23,.59-1.26,.63-2.59,.63-3.95-.1,0-.17-.02-.18,0-1.67,3.17-7.32,3.22-9.61-.23-1.89-2.84-1.74-7.58,.37-10.24,1.69-2.14,5.08-2.92,7.47-1.65,.69,.37,1.25,.97,1.9,1.48Zm-.06,5.18c-.04-.38-.07-.83-.14-1.27-.35-2.24-1.77-3.73-3.64-3.84-2.25-.13-3.83,.99-4.41,3.18-.46,1.71-.39,3.43,.24,5.09,.56,1.47,1.59,2.4,3.21,2.53,1.6,.13,2.87-.46,3.75-1.82,.75-1.15,.92-2.46,.99-3.87Z"/>
      <path class="cls-1" d="M156.95,99.56h-2.43v-.87c0-2.87,0-5.73,0-8.6,0-2.89-2.09-4.16-4.71-2.85-1.46,.73-1.91,2.02-1.91,3.53-.01,2.65,0,5.3,0,7.96,0,.26,0,.51,0,.82h-2.39v-9.02c0-.17,0-.33,0-.5-.02-1.25-.15-2.46-1.52-3.01-1.33-.53-3.07-.07-4.02,1.04-.68,.8-1.07,1.71-1.06,2.79,.02,2.63,0,5.26,0,7.89,0,.26,0,.51,0,.82h-2.35v-14.48h2.19v2.14c1.2-1.66,2.66-2.46,4.5-2.5,1.86-.04,3.43,.45,4.27,2.39,.91-1.26,2.07-2.07,3.57-2.31,1.19-.19,2.36-.1,3.5,.33,1.6,.61,2.23,1.88,2.34,3.49,.01,.21,.02,.43,.02,.64,0,3.41,0,6.82,0,10.31Z"/>
      <path class="cls-1" d="M188.15,70h-2.39v-.8c0-2.75,0-5.49,0-8.24,0-.19,0-.38,0-.57-.05-1.25-.22-2.45-1.61-2.95-1.32-.48-3.04,0-3.95,1.09-.67,.8-1.05,1.71-1.04,2.79,.03,2.68,.01,5.35,0,8.03,0,.21-.02,.42-.03,.66h-2.33v-14.49h2.21v1.96c3.57-3.2,6.77-3.18,8.79,.01,1.72-2.29,4.02-2.76,6.65-2.05,1.62,.44,2.57,1.53,2.64,3.21,.11,2.53,.08,5.06,.1,7.6,.01,1.23,0,2.46,0,3.74h-2.38c-.02-.26-.05-.53-.05-.8,0-2.75,0-5.49,0-8.24,0-.05,0-.09,0-.14,0-2.5-.76-3.5-2.67-3.53-2.41-.03-3.92,1.35-3.95,3.68-.03,2.75,0,5.49,0,8.24,0,.26,0,.51,0,.81Z"/>
      <path class="cls-1" d="M155.81,70.01h-2.34v-14.47h2.17v1.86c1.23-1.42,2.7-2.2,4.54-2.24,1.86-.04,3.42,.48,4.25,2.37,1.76-2.33,4.07-2.79,6.69-2.08,1.64,.45,2.61,1.59,2.64,3.29,.07,3.67,.04,7.34,.04,11.01,0,.07-.03,.14-.07,.25h-2.24c-.02-.27-.05-.54-.05-.81-.02-3.1,0-6.2-.08-9.3-.04-1.79-.98-2.6-2.77-2.6-2.32,0-3.77,1.4-3.8,3.75-.03,2.72,0,5.45,0,8.17,0,.25,0,.51,0,.8h-2.4v-.78c0-2.82,0-5.64,0-8.45,0-.14,0-.28,0-.43-.02-1.1-.17-2.19-1.26-2.75-1.13-.58-2.32-.45-3.4,.2-1.24,.75-1.92,1.88-1.93,3.35-.02,2.68,0,5.35,0,8.03,0,.26,0,.51,0,.84Z"/>
      <path class="cls-1" d="M132.94,62.47h2.63c-.07,.47-.11,.9-.2,1.32-.86,4.16-3.71,6.56-7.97,6.71-4.64,.17-7.94-2.08-9.23-6.31-.73-2.4-.79-4.85-.24-7.3,.44-1.96,1.32-3.68,2.79-5.09,3.32-3.18,9.65-3.15,12.76,.08,1.07,1.11,1.81,2.72,1.85,4.07h-2.54s-.08-.05-.09-.09c-.86-3.42-3.8-4.51-6.75-4.06-2.91,.44-4.75,2.37-5.42,5.62-.51,2.49-.35,4.95,.74,7.29,1.69,3.62,5.63,4.07,8.06,3.14,2.09-.8,3.08-2.47,3.48-4.58,.05-.25,.08-.51,.13-.81Z"/>
      <path class="cls-1" d="M238.92,58.65c-.96,3.78-1.92,7.55-2.89,11.39-.78,0-1.53,.02-2.29-.02-.15,0-.37-.2-.42-.35-1.5-4.63-2.99-9.27-4.47-13.91-.02-.06,.01-.14,.03-.28,.75,0,1.51-.04,2.25,.03,.17,.01,.38,.36,.44,.59,.99,3.5,1.96,7.01,2.93,10.52,.05,.18,.11,.36,.3,.55,.96-3.87,1.91-7.75,2.88-11.66h2.64c.99,3.88,2,7.78,3,11.68,.05,0,.09,0,.14-.01,.68-2.46,1.35-4.91,2.03-7.37,.34-1.25,.7-2.51,1.02-3.77,.11-.44,.31-.62,.78-.59,.59,.04,1.18,.01,1.88,.01-.2,.62-.37,1.17-.55,1.72-1.3,4.08-2.61,8.15-3.89,12.24-.14,.45-.33,.66-.84,.62-.61-.05-1.23-.01-1.91-.01-.98-3.81-1.95-7.6-2.92-11.38h-.12Z"/>
      <path class="cls-1" d="M29.74,8.31c.31-.11,.62-.21,1-.34-.04,.36-.08,.68-.14,1.19,.32-.3,.52-.48,.72-.66,.1,.29,.2,.58,.32,.91h-.72c.43,.62,1.2,.74,1.77,.28,.13-.1,.21-.3,.23-.47,.01-.07-.22-.27-.27-.25-.15,.06-.26,.21-.56,.47v-1.12c.36,.1,.72,.2,1.04,.29,.21-.13,.5-.3,.79-.47,.1,.32,.2,.64,.33,1.06-.38-.16-.55-.25-.73-.28-.03,0-.18,.27-.15,.33,.11,.16,.26,.34,.43,.41,.79,.3,1.53-.05,1.84-.94-.32,.13-.56,.23-.86,.35v-1.11c.25,.11,.47,.22,.7,.32,.04-.03,.07-.06,.11-.09-.17-.27-.35-.54-.57-.9h1.66c-.19,.33-.36,.61-.63,1.07,.44-.19,.68-.3,.96-.42v1.17c-.28-.13-.54-.25-.85-.39,.17,.9,1.42,1.37,2.04,.81,.11-.1,.09-.36,.12-.55-.2,.01-.39,.03-.74,.05,.08-.26,.17-.58,.26-.9,.29,.18,.58,.35,.8,.48,.32-.11,.65-.22,.99-.33,.03,.32,.05,.64,.09,1.06-.34-.18-.52-.3-.71-.35-.04-.01-.24,.26-.21,.31,.12,.19,.26,.4,.45,.49,.58,.28,1.14,.25,1.68-.35h-.79c.11-.33,.19-.61,.3-.95,.21,.2,.38,.36,.7,.67-.06-.5-.1-.8-.15-1.22,.33,.14,.62,.26,.88,.36-.42,.91-.83,1.75-1.21,2.61-.08,.18-.15,.46-.07,.59,.41,.68,.17,1.21-.25,1.66,.9,.97,1.78,1.91,2.72,2.93-1.18,.79-.72,1.57-.24,2.36,.46,.77,.92,1.53,1.37,2.31,.08,.13,.12,.31,.12,.46,.02,2.98-.96,5.56-3.16,7.64-.42,.39-.86,.56-1.41,.46-.74-.14-1.48-.28-2.23-.42,0-.75,.34-1.15,.89-1.48,2.12-1.3,3-3.31,3.2-5.76h-5.45v6c.37,.06,.73,.11,1.14,.18-.11,.31-.21,.57-.32,.87-.59-.22-1.16-.43-1.9-.7,.83-.25,.72-.81,.71-1.32,0-1.66,0-3.31,0-5.08-.3,0-.58,0-.85,0-1.37,0-2.75,0-4.12,0-.38,0-.57-.06-.77-.48-.53-1.1-.66-2.43-1.76-3.24-.1-.07-.07-.44,0-.62,.69-1.62,1.76-2.95,3.25-4-.58-.53-.81-1.09-.36-1.79,.07-.11,0-.37-.08-.53-.44-.89-.89-1.77-1.34-2.65,0,0-.02,.02-.02,.02Zm6,12.93v-6.51c-3.02-.01-6.12,3.72-5.42,6.51h5.42Zm.38-6.49c0,2.07,0,4.09,.02,6.12,0,.13,.23,.37,.36,.38,1.68,.03,3.35,.02,5.02,.02,.22-3.15-2.37-6.54-5.4-6.52Zm-.15-3.81s0,.1-.01,.14c-.66,0-1.33-.07-1.98,.02-.74,.1-1.48,.29-2.19,.52-.35,.11-.56,.46-.32,.86,.21,.36,.44,.5,.91,.27,2.33-1.14,4.69-1.14,7.02,0,.42,.21,.66,.12,.88-.21,.24-.36,.13-.69-.23-.9-.22-.13-.47-.26-.71-.29-1.12-.16-2.24-.28-3.36-.41Z"/>
      <path class="cls-1" d="M277.77,68.19v.89c0,1.04-.09,1.15-1.12,1.26-1.64,.19-2.36-.35-2.65-2.05-.13,.1-.24,.17-.33,.26-1.97,1.84-4.29,2.19-6.81,1.53-1.72-.45-2.65-1.68-2.75-3.37-.12-2.06,.57-3.54,2.3-4.13,1.62-.55,3.35-.79,5.03-1.16,.37-.08,.74-.13,1.11-.23,.71-.19,1.3-.53,1.36-1.34,.07-.88-.16-1.72-1-2.11-1.59-.73-3.22-.72-4.77,.14-.76,.42-.99,1.22-1.1,2.08h-2.26c-.28-1.39,.68-3.16,2.16-3.96,1.7-.92,3.54-.94,5.4-.78,.35,.03,.7,.11,1.04,.2,1.97,.5,2.92,1.7,2.92,3.72,0,2.41,0,4.83,0,7.24,0,.19,0,.38,0,.57,.02,1.23,.15,1.35,1.47,1.24Zm-3.88-5.4c-1.5,.25-2.99,.46-4.46,.76-.61,.12-1.24,.34-1.78,.64-.89,.5-1.1,1.39-.96,2.33,.13,.87,.73,1.36,1.55,1.56,1.28,.32,2.54,.21,3.73-.38,1.06-.52,1.8-1.34,1.92-2.54,.08-.81,.02-1.64,.02-2.37Z"/>
      <path class="cls-1" d="M262.95,63.5h-10.83c-.33,2.04,1.04,4.1,3.04,4.57,2.11,.5,4.45,.11,5.19-2.64,.74,0,1.49,0,2.24,0,.06,1.6-1.41,3.62-3.2,4.38-4.58,1.97-9.19-.71-9.8-5.68-.34-2.72,.16-5.18,2.15-7.2,2.56-2.59,8.41-2.81,10.4,2.07,.57,1.4,.81,2.86,.79,4.5Zm-2.62-2.2c-.13-2.49-2.04-4.17-4.51-4.02-2.06,.12-3.82,2.03-3.69,4.02h8.2Z"/>
      <path class="cls-1" d="M275.94,94.96c-.26,1.55-.94,2.76-2.1,3.73-2.19,1.81-7.66,2.03-9.77-1.58-1.68-2.87-1.86-5.89-.35-8.89,1.29-2.54,3.92-3.82,6.76-3.47,2.72,.33,4.66,2.2,5.39,5.22,.15,.62,.22,1.26,.3,1.89,.04,.37,0,.75,0,1.19h-10.75c-.42,1.43,.5,3.4,1.94,4.18,1.3,.7,2.67,.78,4.06,.32,1.05-.34,1.7-1.11,2.02-2.13,.12-.37,.29-.48,.65-.46,.59,.02,1.18,0,1.83,0Zm-10.57-4.09h8.2c.06-2.15-1.82-4.01-4.03-4.03-2.35-.02-4.2,1.75-4.16,4.03Z"/>
      <path class="cls-1" d="M70.6,93.06h-10.74c-.37,1.49,.54,3.41,1.98,4.18,1.3,.7,2.67,.77,4.06,.31,1.05-.35,1.65-1.13,2.04-2.13,.07-.19,.36-.41,.57-.43,.59-.06,1.18-.02,1.91-.02-.13,.47-.22,.9-.37,1.3-.65,1.67-1.82,2.81-3.53,3.35-4.65,1.46-8.75-1.27-9.24-6.11-.21-2.04,.02-3.98,1.15-5.72,1.5-2.31,3.68-3.27,6.38-3.02,2.58,.24,4.23,1.73,5.15,4.09,.52,1.33,.75,2.72,.65,4.22Zm-2.59-2.19c.05-2.2-1.84-4.03-4.11-4.03-2.3,0-4.14,1.79-4.09,4.03h8.19Z"/>
      <path class="cls-1" d="M97.49,93.07h-10.77c-.24,2.16,1.03,4.06,3.02,4.57,2.53,.66,4.17-.17,5.26-2.65h2.24c-.22,2.65-2.53,4.74-5.41,4.92-4.44,.29-7.33-2.23-7.68-6.68-.19-2.38,.27-4.56,1.89-6.41,2.56-2.94,8.46-3.19,10.59,1.45,.68,1.48,.99,3.04,.86,4.79Zm-2.52-2.19c-.11-1.53-.75-2.72-2.04-3.47-1.47-.86-3-.83-4.43,.11-1.18,.77-1.72,1.93-1.83,3.37h8.3Z"/>
      <path class="cls-1" d="M172.25,94.96c-.24,1.44-.81,2.61-1.84,3.51-2.59,2.27-7.38,1.89-9.59-.75-2.37-2.83-2.34-8.05,.12-10.81,1.81-2.04,4.14-2.61,6.72-1.99,2.59,.63,3.89,2.56,4.51,5,.25,.99,.29,2.03,.44,3.13h-10.88c-.37,1.53,.63,3.52,2.11,4.25,1.22,.6,2.51,.67,3.81,.29,1.04-.31,1.77-1.02,2.08-2.06,.15-.49,.39-.62,.86-.58,.52,.04,1.04,0,1.67,0Zm-2.35-4.08c-.08-2.49-2.11-4.24-4.59-4.04-2.05,.16-3.81,2.13-3.59,4.04h8.18Z"/>
      <path class="cls-1" d="M65.49,63.52h-10.79c-.37,2.33,1.41,4.5,3.81,4.7,2.25,.19,3.81-.65,4.33-2.49,.04-.14,.28-.31,.44-.32,.64-.04,1.27-.02,2-.02-.42,2.04-1.37,3.57-3.27,4.4-4.24,1.86-8.62-.31-9.65-4.8-.56-2.44-.4-4.81,1.05-6.95,1.53-2.26,3.74-3.14,6.4-2.85,2.54,.28,4.15,1.79,5.05,4.12,.51,1.32,.73,2.68,.63,4.2Zm-10.81-2.22h8.23c-.06-2.29-1.88-4.03-4.15-4.03-2.27,0-4.01,1.69-4.08,4.03Z"/>
      <path class="cls-1" d="M295.36,57.55c1.77-2.37,5.04-3.1,7.51-1.81,1.26,.66,1.99,1.8,2.02,3.15,.09,3.69,.03,7.37,.03,11.11h-2.24c-.01-.25-.04-.5-.04-.74,0-2.96,0-5.92,0-8.88,0-2.04-1.09-3.11-3.13-3.09-2.45,.02-4.1,1.72-4.12,4.29-.02,2.53,0,5.07,0,7.6,0,.26,0,.51,0,.82h-2.34v-20.02h2.32v7.58Z"/>
      <path class="cls-1" d="M14.15,70.04v-20.06h13.14v2.17h-10.46v6.43h9.14v2.23h-9.2c0,.34,0,.62,0,.89,0,2.56-.01,5.11,.01,7.67,0,.52-.14,.72-.68,.68-.63-.04-1.27-.01-1.94-.01Z"/>
      <path class="cls-1" d="M118.36,92.5c-.12,.73-.18,1.61-.4,2.45-.77,2.85-2.86,4.67-5.74,4.94-2.95,.28-5.53-.49-7.01-3.26-1.54-2.89-1.49-5.9,.09-8.77,1.39-2.52,4.3-3.6,7.6-2.99,2.72,.5,4.75,2.65,5.23,5.58,.1,.63,.15,1.27,.23,2.05Zm-11.63-.24c-.04,1.42,.24,2.72,1.08,3.85,1.54,2.09,4.59,2.31,6.42,.48,1.88-1.88,2.07-5.9,.38-8.09-1.88-2.44-5.58-2.17-7.11,.53-.57,1.01-.81,2.11-.77,3.23Z"/>
      <path class="cls-1" d="M27.97,62.73c0-2.58,.7-4.89,2.94-6.42,4.62-3.15,10.72-.15,11.1,5.46,.07,1.07,.03,2.2-.21,3.24-.86,3.84-4.15,5.96-8.06,5.28-3.37-.58-5.53-3.02-5.77-6.5-.02-.35,0-.71,0-1.06Zm2.44-.09c.1,.74,.13,1.38,.28,2,.5,2.13,2.16,3.57,4.1,3.6,2.22,.04,3.82-1.18,4.45-3.42,.4-1.42,.39-2.85-.04-4.27-.62-2.02-2.21-3.27-4.14-3.28-2-.02-3.62,1.18-4.24,3.23-.22,.71-.28,1.48-.4,2.13Z"/>
      <path class="cls-1" d="M213.45,62.77c.03,2.26-.51,4.35-2.26,5.9-2.18,1.92-4.75,2.12-7.4,1.26-2.5-.82-3.84-2.75-4.22-5.24-.21-1.35-.21-2.81,.06-4.15,.85-4.11,4.19-5.86,8.02-5.3,3.41,.5,5.58,3.03,5.8,6.54,.02,.33,0,.66,0,.99Zm-2.35-.04c-.26-.98-.39-2.01-.79-2.92-.71-1.63-2.03-2.52-3.85-2.54-1.85-.02-3.18,.89-3.94,2.52-.88,1.89-.89,3.87-.07,5.78,.72,1.69,2.04,2.64,3.93,2.65,1.91,.01,3.27-.91,3.99-2.64,.36-.88,.48-1.85,.73-2.86Z"/>
      <path class="cls-1" d="M144.18,70.37c-4.14,0-6.95-2.81-7.07-7.09-.06-2.29,.35-4.45,2.02-6.16,3.69-3.79,10.35-2.09,11.76,2.99,.61,2.22,.53,4.41-.45,6.51-1.13,2.44-3.35,3.74-6.26,3.74Zm-4.7-7.69c.25,1.04,.38,1.99,.72,2.85,.68,1.75,2.19,2.71,4.03,2.7,1.77,0,3.27-1.01,3.95-2.73,.77-1.94,.76-3.89-.14-5.78-.75-1.56-2.02-2.42-3.77-2.45-1.78-.03-3.14,.78-3.89,2.36-.45,.96-.62,2.06-.9,3.05Z"/>
      <path class="cls-1" d="M215.68,55.51h2.16v2.04c.08,.05,.15,.1,.23,.15,.06-.14,.11-.3,.2-.42,1.63-2.21,5.13-2.88,7.48-1.43,1.27,.78,1.84,2.03,1.88,3.41,.09,3.53,.04,7.05,.04,10.58,0,.04-.04,.08-.08,.16h-2.25c-.01-.25-.04-.5-.04-.75,0-2.84,0-5.68,0-8.53,0-1.9-.55-2.87-1.86-3.3-1.59-.52-3.6,.11-4.54,1.4-.72,.99-.88,2.13-.88,3.3-.01,2.46,0,4.93,0,7.39,0,.14-.02,.28-.04,.47h-2.3v-14.48Z"/>
      <path class="cls-1" d="M176.82,99.56h-2.28v-14.48h2.19v2.03c.97-1.25,2.11-2.19,3.66-2.29,1.13-.08,2.33-.02,3.42,.27,1.65,.44,2.35,1.81,2.6,3.4,.09,.58,.12,1.18,.12,1.77,.01,2.82,0,5.64,0,8.46,0,.26,0,.51,0,.82h-2.36c-.01-.26-.03-.51-.03-.76,0-2.79,0-5.59,0-8.38,0-2.13-.67-3.18-2.25-3.51-1.91-.4-3.92,.54-4.57,2.28-.29,.78-.41,1.65-.43,2.49-.05,2.46-.02,4.93-.02,7.39,0,.16-.03,.32-.04,.52Z"/>
      <path class="cls-1" d="M88.46,55.51h2.17v2.25c.32-.4,.49-.64,.68-.86,1.64-1.87,5.06-2.36,7.18-1.04,1.21,.76,1.73,1.92,1.86,3.27,.1,1.03,.11,2.08,.12,3.12,.02,2.56,0,5.11,0,7.73h-2.35c-.01-.23-.04-.47-.04-.72,0-2.75,0-5.49,0-8.24,0-.19,0-.38,0-.57-.08-2.39-1.57-3.56-3.92-3.1-1.97,.39-3.26,1.8-3.31,3.87-.07,2.63-.03,5.26-.04,7.89,0,.28,0,.56,0,.89h-2.34v-14.48Z"/>
      <path class="cls-1" d="M261.34,89.67h-2.42c-.04-.07-.08-.13-.1-.19-.69-1.84-1.67-2.61-3.35-2.64-2.08-.04-3.48,.77-4.18,2.54-.77,1.97-.81,3.98-.01,5.96,.71,1.76,2.16,2.58,4.21,2.46,1.7-.1,2.89-1.14,3.38-2.95,.05-.18,.11-.36,.17-.55h2.38c-.21,1.63-.81,3.01-1.98,4.14-2.22,2.15-8.24,2.39-10.25-1.69-1.55-3.15-1.47-6.37,.42-9.34,1.61-2.53,4.18-2.99,6.96-2.57,2.33,.35,3.99,1.55,4.61,3.92,.07,.27,.1,.56,.16,.92Z"/>
      <path class="cls-1" d="M77.43,97.18c.52-1.59,1-3.02,1.47-4.45,.78-2.38,1.57-4.76,2.33-7.14,.13-.4,.3-.58,.74-.56,.61,.04,1.22,0,1.93,0-.11,.33-.17,.57-.26,.8-1.6,4.37-3.21,8.74-4.78,13.12-.19,.52-.44,.66-.97,.65-1.85-.03-1.85,0-2.49-1.72-1.51-4.05-3.01-8.11-4.52-12.16-.07-.19-.14-.39-.25-.69,.85,0,1.62-.04,2.39,.03,.18,.01,.4,.34,.48,.56,1.19,3.49,2.36,6.98,3.54,10.48,.1,.3,.22,.6,.39,1.08Z"/>
      <path class="cls-1" d="M238.48,99.56h-2.45v-12.43h-2.44v-2.06h2.44c0-.62,.03-1.15,0-1.68-.26-3.92,2.98-4.56,5.56-3.85v1.88c-.6,0-1.18-.03-1.76,0-.89,.06-1.34,.53-1.36,1.4-.02,.61,0,1.23,0,1.85,0,.09,.03,.18,.05,.34h2.67v2.11h-2.71v12.43Z"/>
      <path class="cls-1" d="M227.56,87.14h-2.39v-2.07h2.38c0-.76,0-1.44,0-2.12,.02-2.35,1.31-3.65,3.67-3.65,2.37,0,1.88-.03,1.9,2.02,0,.04-.03,.09-.03,.1-.61,0-1.22-.04-1.82,0-.81,.07-1.24,.53-1.29,1.33-.03,.47,0,.95,0,1.42,0,.23,0,.47,0,.81h2.79v2.13h-2.78v12.42h-2.41v-12.42Z"/>
      <path class="cls-1" d="M192.68,85.06h2.82v2.04h-2.78c-.02,.31-.04,.54-.04,.76,0,2.75,0,5.49,0,8.24,0,1.05,.22,1.29,1.27,1.37,.49,.04,.99,0,1.6,0v2.21c-1.32-.12-2.59-.12-3.82-.37-1.01-.2-1.44-1.08-1.44-2.49-.01-2.94,0-5.87,0-8.81,0-.26,0-.52,0-.88h-2.43v-2.1h2.4v-4.32h2.43v4.32Z"/>
      <path class="cls-1" d="M283.48,57.58v-2.11h2.42c0-1.28,.03-2.48-.01-3.68-.02-.54,.16-.72,.69-.68,.54,.04,1.08,0,1.69,0v4.32h2.85v2.13h-2.74c-.04,.17-.07,.26-.07,.35,0,2.94-.01,5.87,0,8.81,0,.81,.23,1.06,1.03,1.16,.58,.07,1.17,.06,1.8,.09v2.13c-1.22-.08-2.41-.06-3.56-.25-1.16-.19-1.66-1.12-1.67-2.69,0-2.91,0-5.82,0-8.74,0-.25,0-.51,0-.84h-2.42Z"/>
      <path class="cls-1" d="M44.22,55.51h2.21v2.76c1.23-2.03,2.86-3.26,5.37-3.1v2.48c-.47,.06-.92,.08-1.35,.16-2.14,.4-3.42,1.66-3.69,3.82-.16,1.28-.14,2.59-.17,3.89-.03,1.48,0,2.97,0,4.48h-2.36v-14.49Z"/>
      <path class="cls-1" d="M99.6,79.53h2.28v20.02h-2.28v-20.02Z"/>
      <path class="cls-1" d="M279.61,49.97h2.28v20.01h-2.28v-20.01Z"/>
      <path class="cls-1" d="M69.88,70h-2.33v-14.47h2.33v14.47Z"/>
      <path class="cls-1" d="M245.86,99.57h-2.29v-14.48h2.29v14.48Z"/>
      <path class="cls-1" d="M40.29,29.75c-1.32,1.18-2.72,1.68-4.34,1.33-.9-.19-1.78-.47-2.66-.75-.46-.15-.86-.36-1.4-.22-.55,.14-.89-.3-1.13-.78-.17-.33-.35-.66-.6-.92-1.29-1.38-2.1-2.99-2.48-4.83,.9-.18,1.89,.2,2.43-.56,.62,1.07,1.21,2.18,1.88,3.24,.15,.23,.56,.36,.87,.42,.53,.1,.82,.39,1.02,.87,.09,.21,.25,.47,.44,.55,1.87,.81,3.78,1.51,5.97,1.66Zm-6.81-2.43c-.3-.45-.73-.52-1.23-.2-.2,.12-.36,.4-.56,.41-.48,.03-.37,.39-.45,.64-.1,.33-.31,.69-.25,1,.09,.45,.43,.77,.9,.7-.14-.36-.42-.75-.32-.94,.14-.26,.56-.36,.81-.49,.06-.3,.04-.7,.22-.93,.13-.17,.55-.13,.88-.18Zm.74,2.8c.26-.35,.52-.55,.52-.74,0-.17-.29-.35-.45-.52-.18,.17-.46,.32-.52,.53-.04,.14,.21,.37,.45,.74Zm3.1,.01c-.37-.22-.57-.42-.75-.41-.15,.01-.4,.29-.4,.43,0,.16,.26,.43,.41,.43,.18,0,.37-.22,.73-.45Z"/>
      <path class="cls-1" d="M103.69,74.15c-.11-.8-.11-1.4,.67-1.88,.71-.43,.92-1.28,.9-2.21h-1.58v-3.12h3.18c-.12,1.52-.12,3.04-.39,4.5-.27,1.43-1.34,2.27-2.78,2.7Z"/>
      <path class="cls-1" d="M33.96,26.17c-1.34-.41-2.27-1.53-2.44-3.05-.03-.29-.17-.56-.25-.84,.03-.02,.07-.08,.1-.07,1.04,.21,2.06,.28,3.09-.14,.39-.16,.8,.46,.76,.92-.09,.97-.12,1.95-.2,2.92-.03,.28-.11,.6-.28,.81-.1,.13-.42,.15-.62,.1-.08-.02-.09-.35-.15-.65Zm0-.56c-.57-.82-1.14-1.64-1.72-2.46-.07,1.28,.58,2.05,1.72,2.46Zm-1.29-2.76c-.07,.06-.15,.11-.22,.17,.55,.8,1.11,1.59,1.66,2.39l.21-.15c-.41-.9-1-1.67-1.65-2.41Zm.38,0c.44,.63,.82,1.17,1.29,1.85,.03-.85-.61-1.77-1.29-1.85Zm1.56-.55c-.3,.12-.57,.23-.9,.36,.26,.38,.48,.7,.8,1.18,.04-.61,.07-1.02,.1-1.53Z"/>
      <path class="cls-1" d="M34.03,34.84c-.64-1.05-.42-1.58,.77-1.79v-1.7c.76,.12,1.46,.22,2.2,.34v1.28c1.21,.44,1.38,.89,.73,1.88-.12-.1-.23-.2-.35-.3-.32,.6-.63,1.18-.94,1.75-.23,.43-.8,.47-1.04,.06-.33-.57-.64-1.16-.98-1.79-.1,.07-.22,.15-.38,.26Zm3.94-.39c-.22-.48-.27-.85-.47-.96-.79-.44-.68,.7-1.37,.82,.28-.78,.9-1.61-.28-2.04-.76,.6-.81,.79-.43,1.43,.09,.15,.07,.36,.09,.54-.14-.11-.28-.24-.43-.34-.24-.17-.49-.32-.74-.48-.16,.25-.32,.5-.47,.76,.02,.09,.03,.19,.05,.28,.74-.48,.79,.01,.93,.39,.05,.16,.07,.34,.18,.45,.11,.12,.32,.23,.45,.2,.1-.02,.18-.26,.22-.42,.03-.12-.02-.25-.04-.38,.08-.02,.16-.05,.25-.07,.05,.16,.08,.32,.14,.47,.07,.15,.14,.4,.25,.42,.13,.03,.33-.11,.45-.22,.09-.09,.12-.25,.15-.39,.1-.45,.24-.83,1.06-.46Z"/>
      <path class="cls-1" d="M67.57,49.97h2.32v2.86h-2.32v-2.86Z"/>
      <path class="cls-1" d="M245.87,79.54v2.85h-2.31v-2.85h2.31Z"/>
      <path class="cls-1" d="M21.8,4.88c.3-.08,.6-.16,.91-.24,0-.08-.01-.15-.02-.23-.11-.05-.22-.1-.36-.16,.03-.31,.07-.66,.12-1.14,.32,.39,.67,.63,.47,1.14-.03,.07,.06,.22,.13,.28,.04,.04,.22,.01,.24-.03,.05-.1,.04-.23,.05-.35,.04-.26,.09-.51,.14-.77,.08,.02,.16,.03,.24,.05v1.38c-1.17,.48-2.36,.97-3.59,1.47-.33-.35-.68-.73-1.03-1.11,.03-.05,.07-.09,.1-.14,.24,.08,.49,.15,.84,.27-.06-.36-.11-.69-.17-1.03,.22,.35,1.02,.19,.77,.89-.01,.03,.24,.24,.29,.21,.24-.11,.44-.29,.66-.44-.04-.06-.08-.13-.12-.19-.14,.04-.29,.08-.61,.17,.23-.47,.38-.8,.53-1.12,.11,.02,.22,.03,.33,.05-.68,.41,1,.3,.07,.76,0,.09,0,.18,0,.27Z"/>
      <path class="cls-1" d="M37.18,22.87c-.2-.31-.39-.58-.57-.85,.05-.04,.11-.07,.16-.11,.13,.17,.26,.34,.37,.49,.22-.18,.41-.33,.6-.49,.13,.16,.26,.33,.42,.52h2.25v.84c-.36-.57-.68-.45-1.08-.08-.06,.06-.35-.11-.5-.26-.7-.02-1.38,.6-2.16,0,.19-.03,.37-.06,.5-.08Z"/>
      <path class="cls-1" d="M35.71,.91c-.14-.37-.24-.61-.36-.91h1.07c-.13,.27-.24,.52-.43,.92,.38-.16,.63-.27,.9-.39V1.59c-.26-.13-.49-.24-.9-.44,.17,.36,.27,.57,.39,.84h-1.01c.09-.22,.18-.42,.33-.77-.35,.14-.59,.24-.86,.35V.54c.25,.11,.49,.21,.85,.37Z"/>
      <path class="cls-1" d="M58.96,29.9c-.7,0-1.22-.51-1.23-1.2-.01-.71,.53-1.26,1.25-1.25,.68,0,1.22,.53,1.23,1.2,.01,.71-.54,1.26-1.25,1.25Zm.91-1.23c-.05-.54-.34-.88-.9-.88-.54,0-.89,.31-.89,.88,0,.56,.33,.88,.88,.89,.56,0,.84-.34,.9-.9Z"/>
      <path class="cls-1" d="M38.57,23.94c.25,.06,.65,.11,1,.27,.15,.07,.2,.35,.29,.54l-.29,.05c.01-.09,.02-.19,.05-.41-.27,.16-.47,.3-.7,.4-.12,.05-.27,.04-.4,.06,0-.13-.02-.26-.03-.38q-1.6,.41-1.95,.1c.24-.03,.42-.05,.61-.07-.16-.22-.31-.41-.45-.61l.13-.12c.1,.08,.2,.16,.35,.28,.22-.03,.56-1.17,.8,.02,.15-.03,.3-.06,.59-.12Z"/>
      <path class="cls-1" d="M38.92,25.95c-.19,.81-1.64,1.06-2.4,.4h.65c-.22-.35-.4-.63-.58-.91,.05-.03,.1-.06,.15-.09,.11,.15,.21,.29,.33,.45,.31-.6,.25-.54,.74-.12,.26,.22,.73,.19,1.11,.28Z"/>
      <path class="cls-1" d="M36.68,4.54c-1.24,.27-1.56,.16-2-.77h2.39c-.1,.22-.2,.44-.3,.66-.03,.04-.06,.07-.09,.11Z"/>
      <path class="cls-1" d="M51.2,28.7c.22-.64,.34-1.12,.96-1.12,.62,0,.79,.47,.79,.96,0,.51-.25,1-.83,.89-.34-.06-.61-.48-.92-.74Zm1.6-.2c-.29-.26-.47-.42-.65-.59-.15,.21-.42,.41-.42,.62,0,.2,.28,.4,.44,.59,.18-.17,.36-.35,.64-.62Z"/>
      <path class="cls-1" d="M54.1,31.26c-.84,0-1.31-.39-1.28-.87,.03-.55,.39-.72,.87-.72,.59-.01,1.12,.39,.99,.84-.09,.33-.45,.59-.58,.75Zm-.41-1.46c-.24,.28-.39,.45-.54,.62,.23,.17,.44,.42,.69,.47,.16,.03,.37-.26,.55-.41-.2-.2-.4-.39-.7-.68Z"/>
      <path class="cls-1" d="M46.35,13.82c-.1-.15-.37-.39-.42-.67-.08-.44,.54-1.01,.98-.88,.26,.07,.59,.4,.64,.66,.1,.47-.46,.92-1.2,.89Zm.5-1.41c-.26,.31-.45,.49-.57,.71-.03,.06,.19,.25,.29,.38,.21-.18,.44-.35,.61-.56,.03-.04-.16-.26-.33-.53Z"/>
      <path class="cls-1" d="M20.96,2.71s.14,.11,.19,.21c.08,.17,.14,.36,.15,.55,0,.05-.3,.18-.33,.15-.13-.13-.22-.31-.31-.48-.04-.08-.05-.25-.06-.25-.92,.05-.03-.61-.31-.8,.08-.07,.21-.21,.25-.19,.23,.11,.45,.26,.65,.42,.02,.01-.13,.23-.22,.39Z"/>
      <path class="cls-1" d="M32.92,6.69c.7,.65,.72,.8,.19,1.64-.74-.61-.77-.88-.19-1.64Z"/>
      <path class="cls-1" d="M38.68,8.38c-.53-.82-.51-.97,.13-1.74,.57,.73,.56,.99-.13,1.74Z"/>
      <path class="cls-1" d="M35.21,5.1c.4,.29,.61,1.64,.35,1.8-.05,.03-.32-.14-.33-.24-.03-.49-.02-.98-.02-1.56Z"/>
      <path class="cls-1" d="M34.49,3.19c.38-.42,.65-.71,.92-1l.16,.1v.9h-1.09Z"/>
      <path class="cls-1" d="M36.46,5.2v1.8c-.53-.42-.48-1.53,0-1.8Z"/>
      <path class="cls-1" d="M37.01,3.21h-.79v-1.13c.4,.41,.66,.67,.92,.94-.04,.06-.08,.13-.12,.19Z"/>
      <path class="cls-1" d="M40.01,3.38c.19,.29,.4,.47,.37,.6-.03,.15-.25,.31-.41,.36-.08,.02-.32-.23-.32-.35,0-.16,.17-.31,.36-.61Z"/>
      <path class="cls-1" d="M30.12,5.84c-.28,.2-.43,.38-.59,.39-.12,0-.38-.23-.37-.3,.04-.17,.19-.4,.34-.43,.13-.03,.32,.17,.61,.34Z"/>
      <path class="cls-1" d="M41.56,4.28c-.27,.18-.44,.38-.58,.36-.14-.02-.31-.25-.34-.41-.02-.09,.22-.33,.34-.32,.16,0,.31,.18,.58,.37Z"/>
      <path class="cls-1" d="M42.36,4.95c-.29,.2-.46,.41-.59,.38-.15-.03-.32-.24-.37-.4-.02-.08,.22-.33,.35-.33,.15,0,.31,.17,.61,.35Z"/>
      <path class="cls-1" d="M30.01,4.38c.17,.3,.34,.46,.33,.62,0,.13-.26,.36-.34,.33-.16-.05-.37-.23-.39-.38-.02-.13,.2-.3,.41-.57Z"/>
      <path class="cls-1" d="M42.72,7.77c-.26,.2-.4,.39-.56,.41-.12,.01-.38-.21-.37-.31,.02-.16,.18-.4,.32-.43,.14-.03,.32,.16,.6,.33Z"/>
      <path class="cls-1" d="M42.93,6.81c-.28,.21-.44,.42-.58,.4-.15-.02-.33-.23-.38-.39-.02-.08,.21-.34,.34-.35,.15-.01,.32,.16,.62,.33Z"/>
      <path class="cls-1" d="M29.97,6.78c-.26,.22-.41,.44-.55,.43-.15-.01-.35-.21-.4-.37-.03-.09,.19-.35,.32-.36,.15-.02,.33,.15,.62,.31Z"/>
      <path class="cls-1" d="M31.77,4.55c-.19-.28-.39-.44-.37-.57,.02-.14,.21-.32,.37-.37,.07-.02,.33,.21,.33,.33,0,.16-.16,.32-.32,.62Z"/>
      <path class="cls-1" d="M42.79,5.93c-.3,.15-.47,.32-.62,.3-.13-.01-.36-.28-.33-.35,.06-.16,.25-.37,.4-.38,.13-.01,.29,.21,.55,.43Z"/>
      <path class="cls-1" d="M36.68,4.54s.06-.07,.09-.11c.16,0,.37-.04,.46,.04,.11,.09,.21,.34,.16,.45-.05,.12-.28,.15-.43,.22-.09-.2-.18-.41-.27-.61Z"/>
      <path class="cls-1" d="M32.19,4.03c.31-.16,.48-.32,.63-.31,.12,0,.35,.27,.32,.33-.06,.16-.24,.35-.38,.37-.14,.01-.29-.19-.57-.39Z"/>
      <path class="cls-1" d="M34.34,4.45c-.31,.13-.49,.27-.65,.25-.12-.02-.32-.3-.29-.36,.08-.15,.27-.32,.42-.32,.13,0,.27,.22,.52,.44Z"/>
      <path class="cls-1" d="M29.76,8.3c-.08-.04-.2-.05-.24-.11-.1-.17-.17-.37-.26-.55,.16-.07,.31-.13,.47-.2,.07,.19,.16,.39,.19,.59,.01,.09-.11,.2-.17,.3,0,0,.01-.01,.01-.01Z"/>
      <path class="cls-1" d="M31.3,4.28c-.27,.18-.44,.39-.56,.36-.14-.03-.31-.25-.33-.41-.02-.1,.22-.33,.33-.33,.15,0,.3,.18,.56,.37Z"/>
      <path class="cls-1" d="M37.98,4.9c-.18-.26-.38-.42-.35-.52,.04-.15,.22-.33,.37-.37,.08-.02,.34,.21,.33,.32,0,.15-.18,.3-.36,.58Z"/>
      <path class="cls-1" d="M34.77,20.39c-.37,.09-.78,.18-1.19,.28,.04-.1,.08-.2,.14-.35-.85,.06-1.66,.77-2.51,.29,0-.07,0-.14,0-.21h.63c-.22-.32-.4-.59-.59-.86,.05-.04,.11-.08,.16-.12,.13,.16,.25,.32,.42,.52,.29-.29,.63-1.1,.89-.02,.01,.04,.29,.09,.31,.06,.46-.93,1.29-.34,1.96-.43-.1,.04-.21,.08-.33,.13,.62,.23,.57,.63,.22,1.1-.03-.13-.06-.27-.09-.39Z"/>
      <path class="cls-1" d="M31.65,18.69c.22,.02,.43,.04,.68,.06-.2-.34-.38-.64-.56-.94,.07-.04,.14-.08,.22-.12,.08,.17,.15,.34,.22,.49,.25-.18,.47-.34,.69-.5,.11,.18,.23,.35,.37,.57,.46-.72,1.18-.52,1.87-.44,.01,.01,.03,.03,.04,.05-.08,.04-.17,.07-.31,.13,.18,.07,.32,.13,.6,.24h-1.36c1.4,.25,1.41,.26,.92,.95-.03-.2-.04-.33-.08-.58-.25,.14-.49,.3-.74,.41-.13,.06-.3,.04-.45,.06v-.46c-.65,.03-1.35,.84-2.1,.07Z"/>
      <path class="cls-1" d="M32.46,17.02h.76c-.06-.23-.11-.4-.14-.51,.18-.14,.31-.29,.47-.35,.14-.05,.46-.01,.46,0,.04,.53,.46,.43,.78,.47,.42,.05,.6,.22,.47,.53h-1.21c0-.07,0-.14,.01-.21-.52,.28-1.05,.57-1.61,.05Z"/>
      <path class="cls-1" d="M40.9,20.56c-.14,.07-.32,.24-.5,.24-1.14,.03-2.27,.02-3.41,0-.13,0-.31-.04-.37-.13-.08-.11-.08-.3-.06-.44,.04-.26,.16-.52,.17-.78,.02-.9,.02-1.81,0-2.71,0-.29-.13-.57-.16-.86-.01-.13,.04-.31,.13-.41,.06-.06,.27-.06,.35,0,.89,.62,1.81,1.2,2.62,1.91,.31,.27,.38,.84,.55,1.27,.23,.6,.44,1.2,.69,1.9Zm-1.29-.25c.76,.11,.96-.09,.69-.76-.27-.65-.77-1.21-1.03-1.87-.31-.77-.92-1.17-1.57-1.55-.62-.36-.79-.25-.76,.48,.02,.49,.17,.98,.17,1.47,0,.53-.12,1.05-.17,1.58-.06,.56,.22,.78,.75,.74,.65-.04,1.3-.07,1.95-.11Z"/>
      <path class="cls-1" d="M37.36,17c.21,.25,.42,.49,.62,.74,.06-.04,.11-.07,.17-.11-.09-.2-.18-.4-.27-.6,.54-.26,.9-.01,.88,.65-.01,.39,.02,.67,.41,.85,.4,.19,.15,.88,.69,.99-.06,.17-.13,.33-.19,.5-.09-.1-.16-.22-.26-.31-.22-.19-.46-.37-.75-.6-.1,.55-.39,.78-.94,.56,.28-.3,.54-.57,.98-1.03-.62,.04-1.05,.07-1.48,.1,0-.05,0-.1-.01-.16,.19-.1,.39-.2,.59-.3-.2-.44-.39-.85-.58-1.26,.05-.01,.1-.02,.14-.03Z"/>
    </g>
  </g>
</svg>