<?xml version="1.0" encoding="UTF-8"?>
<svg id="Capa_2" data-name="Capa 2" xmlns="http://www.w3.org/2000/svg" viewBox="0 0 431.17 326.45">
  <defs>
    <style>
      .logo-footer-cls-layer1 {
        fill: #8f8bff;
      }

      .logo-footer-cls-layer1, .logo-footer-cls-layer2 {
        stroke-width: 0px;
      }

      .logo-footer-cls-layer2 {
        fill: #fff;
      }
    </style>
  </defs>
  <g id="Capa_1-2" data-name="Capa 1">
    <g>
      <g>
        <path class="logo-footer-cls-layer2" d="m2.25,302.71c0-14.93,5.17-23.71,17.83-23.71,9.39,0,14.4,4.98,15.72,14.91l-9.25,1.83c-.82-6.24-2.62-9.5-6.52-9.5-5.29,0-7.76,4.56-7.76,16.48s2.47,16.51,7.76,16.51c3.99,0,5.77-3.35,6.55-9.53l9.17,1.83c-1.41,9.87-6.3,14.93-15.66,14.93-12.65,0-17.83-8.83-17.83-23.74Z"/>
        <path class="logo-footer-cls-layer2" d="m40.21,302.74c0-15.95,6.41-23.74,17.77-23.74s17.77,7.82,17.77,23.74-6.41,23.71-17.77,23.71-17.77-7.79-17.77-23.71Zm25.62,0c0-11.95-3.12-16.17-7.85-16.17s-7.85,4.22-7.85,16.17,3.12,16.14,7.85,16.14,7.85-4.22,7.85-16.14Z"/>
        <path class="logo-footer-cls-layer2" d="m81.83,279.76h9.11v38.36h13.08v7.56h-22.19v-45.92Z"/>
        <path class="logo-footer-cls-layer2" d="m109.17,279.76h9.11v38.36h13.08v7.56h-22.19v-45.92Z"/>
        <path class="logo-footer-cls-layer2" d="m157.23,315.9h-11.81l-2,9.79h-9.45l10.6-45.92h13.5l10.6,45.92h-9.45l-2-9.79Zm-1.52-7.4l-1.29-6.3c-1.04-5.2-1.91-9.84-3.01-15.72h-.14c-1.1,5.88-2,10.52-3.04,15.72l-1.29,6.3h8.77Z"/>
        <path class="logo-footer-cls-layer2" d="m203.74,312.61c0,8.3-4.05,13.08-13.61,13.08h-16.34v-45.92h15.47c9.67,0,12.74,4.39,12.74,11.47,0,5.15-2.39,8.86-6.61,10.15,5.79.84,8.35,4.95,8.35,11.22Zm-20.84-13.55h4.47c3.49,0,5.29-1.74,5.29-6.5,0-4.08-1.18-5.82-4.72-5.82h-5.03v12.32Zm11.45,12.77c0-4.87-1.91-6.55-5.43-6.55h-6.02v13.44h6.16c3.6,0,5.29-2.08,5.29-6.89Z"/>
        <path class="logo-footer-cls-layer2" d="m208.52,302.74c0-15.95,6.41-23.74,17.77-23.74s17.77,7.82,17.77,23.74-6.41,23.71-17.77,23.71-17.77-7.79-17.77-23.71Zm25.62,0c0-11.95-3.12-16.17-7.85-16.17s-7.85,4.22-7.85,16.17,3.12,16.14,7.85,16.14,7.85-4.22,7.85-16.14Z"/>
        <path class="logo-footer-cls-layer2" d="m270.62,325.69l-6.05-17.69h-5.43v17.69h-9v-45.92h16.14c9.5,0,13.1,5.09,13.1,13.86,0,6.02-2.05,10.4-6.24,12.65l7.23,19.4h-9.76Zm-11.47-24.55h5.65c3.77,0,5.46-2.08,5.46-7.48,0-4.92-1.46-6.72-5.01-6.72h-6.1v14.2Z"/>
        <path class="logo-footer-cls-layer2" d="m306.84,315.9h-11.81l-2,9.79h-9.45l10.6-45.92h13.5l10.6,45.92h-9.45l-2-9.79Zm-1.52-7.4l-1.29-6.3c-1.04-5.2-1.91-9.84-3.01-15.72h-.14c-1.1,5.88-2,10.52-3.04,15.72l-1.29,6.3h8.77Z"/>
        <path class="logo-footer-cls-layer2" d="m344.35,287.41h-9.31v38.27h-9.14v-38.27h-9.31v-7.65h27.76v7.65Z"/>
        <path class="logo-footer-cls-layer2" d="m349.28,279.76h9.11v45.92h-9.11v-45.92Z"/>
        <path class="logo-footer-cls-layer2" d="m363.5,279.76h9.45l4.81,23.23c1.04,5.15,1.94,9.53,3.04,15.38h.14c1.1-5.68,2-10.43,3.07-15.38l4.75-23.23h9.45l-10.66,45.92h-13.36l-10.69-45.92Z"/>
        <path class="logo-footer-cls-layer2" d="m403.33,279.76h25.51v7.48h-16.4v11.28h14.54v7.28h-14.54v12.4h16.4v7.48h-25.51v-45.92Z"/>
      </g>
      <path class="logo-footer-cls-layer1" d="m299.17,147.66c-2.39,26.21-24.43,46.74-51.26,46.74-28.44,0-51.48-23.05-51.48-51.48,0-26.83,20.53-48.87,46.74-51.26v-51.59c-54.67,2.48-98.23,47.58-98.23,102.85s46.1,102.97,102.97,102.97,100.38-43.56,102.85-98.23h-51.59Z"/>
      <rect class="logo-footer-cls-layer1" x="299.39" y="148" width="51.48" height="97.88"/>
      <rect class="logo-footer-cls-layer1" x="373.33" y="117.18" width="51.48" height="128.71"/>
      <polygon class="logo-footer-cls-layer2" points="299.39 39.95 256.72 39.95 256.72 91.43 299.39 91.43 299.39 134.11 350.87 134.11 350.87 91.43 350.87 39.95 299.39 39.95"/>
      <path class="logo-footer-cls-layer1" d="m0,51.48V0h193.12v19.57c0,17.62-14.29,31.91-31.91,31.91H0Z"/>
      <rect class="logo-footer-cls-layer1" x="61.47" y="0" width="64.93" height="245.88"/>
      <circle class="logo-footer-cls-layer1" cx="399.07" cy="65.69" r="32.1"/>
    </g>
  </g>
</svg>