<?xml version="1.0" encoding="UTF-8" standalone="no"?>
<!-- Created with Inkscape (http://www.inkscape.org/) -->

<svg
   version="1.1"
   id="svg52"
   width="102.93942"
   height="26.461699"
   viewBox="0 0 102.93942 26.461699"
   xmlns="http://www.w3.org/2000/svg"
   xmlns:svg="http://www.w3.org/2000/svg">
  <defs
     id="defs56" />
  <g
     id="g58"
     transform="matrix(1.3333333,0,0,-1.3333333,-64.906662,2498.225)">
    <path
       d="m 122.48,1869.71 c -0.01,0.54 0.26,0.8 0.59,1.02 0.23,0.15 0.23,0.15 0.08,0.37 -0.42,0.64 -0.15,1.24 0.59,1.37 0.29,0.06 0.57,0.01 0.82,-0.13 0.45,-0.25 0.54,-0.81 0.19,-1.19 -0.11,-0.11 -0.23,-0.21 -0.37,-0.29 -0.09,-0.05 -0.13,-0.1 -0.04,-0.2 0.13,-0.14 0.25,-0.27 0.36,-0.42 0.11,-0.12 0.18,-0.15 0.24,0.03 0.03,0.1 0.07,0.19 0.12,0.27 0.08,0.14 0.19,0.19 0.34,0.14 0.16,-0.06 0.22,-0.17 0.2,-0.34 -0.04,-0.2 -0.12,-0.39 -0.23,-0.57 -0.05,-0.07 -0.04,-0.14 0.04,-0.19 0.12,-0.09 0.24,-0.19 0.35,-0.3 0.14,-0.11 0.16,-0.24 0.07,-0.39 -0.1,-0.16 -0.25,-0.19 -0.41,-0.11 -0.13,0.08 -0.25,0.16 -0.36,0.26 -0.11,0.1 -0.19,0.11 -0.32,0.01 -0.5,-0.38 -1.26,-0.42 -1.78,-0.1 -0.32,0.2 -0.47,0.49 -0.48,0.76 z m 0.68,0.12 c 0,-0.09 0.02,-0.18 0.07,-0.26 0.31,-0.47 0.83,-0.37 1.17,-0.05 0.06,0.07 0.01,0.11 -0.03,0.14 -0.23,0.23 -0.44,0.46 -0.64,0.71 -0.03,0.04 -0.05,0.1 -0.13,0.07 -0.22,-0.08 -0.44,-0.38 -0.44,-0.61 z m 1.22,1.86 c -0.01,0.2 -0.18,0.35 -0.41,0.34 -0.21,0 -0.39,-0.17 -0.38,-0.36 0.01,-0.13 0.25,-0.48 0.34,-0.48 0.15,-0.01 0.45,0.34 0.45,0.5 z"
       style="fill:#7e89a0;fill-opacity:1;fill-rule:evenodd;stroke:none"
       id="path660" />
    <path
       d="m 78.33,1856.18 v 1.6 c 0,0.21 0,0.41 0.01,0.62 0,0.19 0.12,0.32 0.29,0.33 0.16,0.01 0.3,-0.12 0.33,-0.3 0.01,-0.05 0.01,-0.11 0.01,-0.17 0,-0.96 0,-1.92 0,-2.88 0,-0.07 -0.01,-0.13 -0.01,-0.19 -0.02,-0.16 -0.09,-0.25 -0.24,-0.3 -0.15,-0.03 -0.26,0.02 -0.35,0.15 -0.39,0.51 -0.79,1.03 -1.19,1.54 -0.21,0.29 -0.45,0.58 -0.71,0.85 v -0.81 c 0,-0.46 0,-0.92 0,-1.38 -0.01,-0.22 -0.1,-0.34 -0.28,-0.36 -0.17,-0.01 -0.33,0.12 -0.34,0.34 -0.01,0.31 -0.01,0.63 -0.01,0.95 0,0.68 0,1.36 0,2.04 0,0.06 0,0.13 0.01,0.19 0.01,0.16 0.09,0.26 0.24,0.31 0.16,0.05 0.26,-0.03 0.35,-0.14 0.22,-0.28 0.44,-0.57 0.66,-0.85 0.37,-0.49 0.75,-0.98 1.12,-1.47 0.03,-0.03 0.04,-0.08 0.11,-0.07 z"
       style="fill:#7e89a0;fill-opacity:1;fill-rule:nonzero;stroke:none"
       id="path662" />
    <path
       d="m 98,1863.13 c 0,0.7 0,1.38 0,2.06 0,0.07 0,0.14 0,0.21 0.02,0.15 0.1,0.24 0.25,0.27 0.18,0.03 0.29,-0.04 0.35,-0.21 0.02,-0.06 0.03,-0.12 0.03,-0.18 0,-1.02 0,-2.03 0,-3.04 0,-0.02 0,-0.04 0,-0.06 -0.02,-0.15 -0.08,-0.28 -0.23,-0.32 -0.15,-0.05 -0.26,0.01 -0.35,0.13 -0.37,0.48 -0.74,0.95 -1.11,1.43 l -0.8,1.03 v -0.9 c 0,-0.44 0,-0.89 0,-1.33 0,-0.23 -0.12,-0.38 -0.31,-0.38 -0.19,0 -0.31,0.14 -0.31,0.38 -0.01,1.02 -0.01,2.05 0,3.07 0,0.17 0.04,0.32 0.22,0.37 0.17,0.06 0.29,-0.03 0.39,-0.16 0.57,-0.75 1.14,-1.49 1.71,-2.22 0.04,-0.05 0.07,-0.11 0.16,-0.15 z"
       style="fill:#00e0b5;fill-opacity:1;fill-rule:nonzero;stroke:none"
       id="path664" />
    <path
       d="m 110.84,1870.04 c 0,0.76 0,1.49 0,2.19 -0.01,0.27 0.09,0.4 0.3,0.4 0.21,0.01 0.32,-0.13 0.33,-0.4 0,-1 0,-2.01 0,-3.01 0,-0.18 -0.04,-0.35 -0.24,-0.41 -0.17,-0.05 -0.29,0.06 -0.39,0.19 -0.54,0.7 -1.08,1.4 -1.62,2.1 -0.06,0.08 -0.12,0.16 -0.18,0.24 -0.07,-0.06 -0.04,-0.13 -0.04,-0.18 -0.01,-0.61 -0.01,-1.22 -0.01,-1.83 0.01,-0.06 0.01,-0.11 0,-0.17 -0.02,-0.24 -0.14,-0.36 -0.33,-0.36 -0.2,0.01 -0.29,0.13 -0.29,0.39 0,1.02 0,2.04 0,3.06 0,0.16 0.02,0.31 0.2,0.37 0.18,0.06 0.3,-0.04 0.41,-0.18 0.57,-0.75 1.15,-1.49 1.72,-2.24 0.03,-0.03 0.08,-0.09 0.14,-0.16 z"
       style="fill:#7e89a0;fill-opacity:1;fill-rule:nonzero;stroke:none"
       id="path666" />
    <path
       d="m 88.24,1870.1 c 0,0.72 0,1.44 0,2.16 0,0.16 0.04,0.29 0.2,0.36 0.21,0.08 0.43,-0.07 0.43,-0.3 0,-1.06 0,-2.11 0,-3.17 0.01,-0.16 -0.07,-0.27 -0.21,-0.33 -0.16,-0.05 -0.29,0 -0.39,0.15 -0.57,0.74 -1.13,1.48 -1.71,2.22 -0.04,0.05 -0.06,0.12 -0.14,0.14 -0.05,-0.05 -0.03,-0.12 -0.03,-0.17 0,-0.63 0,-1.25 0,-1.87 0,-0.07 0,-0.13 0,-0.19 -0.03,-0.19 -0.15,-0.31 -0.33,-0.29 -0.18,0.01 -0.28,0.11 -0.29,0.3 -0.01,0.17 -0.01,0.35 0,0.53 0,0.86 0,1.72 -0.01,2.59 0,0.17 0.03,0.33 0.22,0.39 0.18,0.06 0.3,-0.04 0.41,-0.18 0.57,-0.75 1.15,-1.51 1.73,-2.26 0.03,-0.03 0.04,-0.07 0.12,-0.08 z"
       style="fill:#7e89a0;fill-opacity:1;fill-rule:nonzero;stroke:none"
       id="path668" />
    <path
       d="m 107.45,1863.78 c 0,0.48 0,0.95 0,1.42 0.01,0.36 0.11,0.46 0.45,0.47 0.24,0 0.47,0 0.71,0 0.82,-0.01 1.32,-0.83 0.95,-1.56 -0.07,-0.15 -0.05,-0.21 0.07,-0.31 0.35,-0.28 0.47,-0.77 0.3,-1.21 -0.16,-0.44 -0.57,-0.75 -1.01,-0.75 -0.34,0 -0.68,0 -1.02,0 -0.31,0 -0.44,0.13 -0.45,0.46 0,0.49 0,0.99 0,1.48 z m 0.62,-0.8 c 0,-0.14 0,-0.27 0,-0.41 -0.01,-0.09 0.04,-0.14 0.14,-0.13 0.21,0 0.43,0 0.65,0 0.29,0 0.52,0.23 0.54,0.52 0.01,0.27 -0.21,0.51 -0.5,0.53 -0.11,0.01 -0.21,0.01 -0.32,0.01 -0.51,0 -0.51,0 -0.51,-0.52 z m 0,1.61 c 0,-0.51 0,-0.51 0.5,-0.49 0.29,0.01 0.52,0.23 0.51,0.5 0,0.27 -0.22,0.46 -0.52,0.47 -0.49,0 -0.49,0 -0.49,-0.48 z"
       style="fill:#00e0b5;fill-opacity:1;fill-rule:evenodd;stroke:none"
       id="path670" />
    <path
       d="m 86.58,1863.78 c 0.01,1.05 0.88,1.92 1.93,1.92 1.05,0 1.93,-0.89 1.92,-1.94 0,-1.05 -0.88,-1.92 -1.92,-1.91 -1.06,0 -1.93,0.87 -1.93,1.93 z m 1.92,-1.3 c 0.73,0 1.3,0.57 1.31,1.28 0,0.72 -0.57,1.31 -1.29,1.31 -0.73,0 -1.31,-0.58 -1.31,-1.3 0,-0.34 0.14,-0.67 0.38,-0.91 0.24,-0.25 0.57,-0.38 0.91,-0.38 z"
       style="fill:#00e0b5;fill-opacity:1;fill-rule:evenodd;stroke:none"
       id="path672" />
    <path
       d="m 101.34,1870.72 c 0,0.47 0,0.95 0,1.42 0,0.38 0.13,0.52 0.5,0.51 0.35,0 0.7,0.03 1.04,-0.01 0.48,-0.06 0.87,-0.41 0.98,-0.88 0.12,-0.47 -0.06,-0.93 -0.48,-1.19 -0.14,-0.08 -0.15,-0.14 -0.07,-0.27 0.18,-0.32 0.35,-0.65 0.52,-0.97 0.11,-0.24 0.08,-0.4 -0.1,-0.49 -0.18,-0.09 -0.33,-0.02 -0.44,0.2 -0.21,0.38 -0.41,0.76 -0.6,1.14 -0.08,0.15 -0.16,0.21 -0.33,0.2 -0.41,-0.01 -0.41,0 -0.41,-0.41 0,-0.25 0,-0.51 0,-0.76 0,-0.26 -0.11,-0.4 -0.3,-0.4 -0.2,0.01 -0.3,0.14 -0.31,0.4 0,0.5 0,1.01 0,1.51 z m 1.11,1.31 c -0.12,0 -0.24,0 -0.36,0 -0.1,0.02 -0.14,-0.03 -0.14,-0.12 0,-0.27 0,-0.54 0,-0.81 -0.01,-0.08 0.04,-0.13 0.12,-0.12 0.24,-0.01 0.47,-0.01 0.7,0 0.3,0.02 0.52,0.26 0.51,0.54 -0.01,0.29 -0.25,0.51 -0.56,0.51 -0.09,0 -0.18,0 -0.27,0 z"
       style="fill:#7e89a0;fill-opacity:1;fill-rule:evenodd;stroke:none"
       id="path674" />
    <path
       d="m 77.61,1870.7 c 0,0.51 0,1.02 0,1.53 0,0.27 0.13,0.41 0.39,0.42 0.38,0.01 0.75,0.03 1.13,-0.01 0.49,-0.06 0.88,-0.4 0.99,-0.88 0.11,-0.48 -0.06,-0.93 -0.49,-1.19 -0.14,-0.09 -0.13,-0.15 -0.06,-0.27 0.18,-0.33 0.36,-0.66 0.53,-0.99 0.1,-0.21 0.05,-0.39 -0.12,-0.47 -0.17,-0.08 -0.31,-0.02 -0.43,0.18 -0.21,0.39 -0.41,0.78 -0.61,1.17 -0.07,0.15 -0.16,0.2 -0.32,0.19 -0.41,-0.01 -0.41,0 -0.41,-0.41 0,-0.27 0,-0.54 0,-0.8 0,-0.22 -0.13,-0.36 -0.31,-0.36 -0.17,0 -0.29,0.14 -0.29,0.36 0,0.51 0,1.02 0,1.53 z m 0.6,0.82 c 0,-0.14 0,-0.27 0,-0.41 -0.02,-0.09 0.03,-0.14 0.13,-0.13 0.23,-0.01 0.46,0 0.7,0 0.28,0.02 0.53,0.28 0.51,0.52 -0.01,0.29 -0.26,0.53 -0.55,0.53 -0.1,0 -0.19,0 -0.28,0 -0.51,0 -0.51,0 -0.51,-0.51 z"
       style="fill:#7e89a0;fill-opacity:1;fill-rule:evenodd;stroke:none"
       id="path676" />
    <path
       d="m 103.13,1861.84 c -0.24,0 -0.37,0.21 -0.26,0.45 0.22,0.49 0.45,0.98 0.67,1.46 0.25,0.54 0.49,1.07 0.74,1.6 0.06,0.14 0.14,0.26 0.32,0.27 0.18,0.01 0.26,-0.11 0.33,-0.25 0.5,-1 1,-2.01 1.51,-3.01 0.06,-0.14 0.1,-0.27 0.01,-0.4 -0.08,-0.1 -0.18,-0.14 -0.3,-0.12 -0.13,0.01 -0.2,0.1 -0.25,0.2 -0.1,0.2 -0.2,0.4 -0.3,0.61 -0.04,0.09 -0.11,0.14 -0.22,0.13 -0.48,0 -0.97,0 -1.46,0 -0.1,0.01 -0.17,-0.04 -0.21,-0.13 -0.09,-0.21 -0.19,-0.42 -0.28,-0.62 -0.06,-0.13 -0.16,-0.2 -0.3,-0.19 z m 1.48,2.76 c -0.17,-0.37 -0.34,-0.74 -0.5,-1.08 -0.03,-0.09 -0.01,-0.12 0.08,-0.12 0.3,0.01 0.59,0.01 0.89,0 0.09,0 0.12,0.04 0.08,0.12 -0.17,0.34 -0.36,0.71 -0.55,1.08 z"
       style="fill:#00e0b5;fill-opacity:1;fill-rule:evenodd;stroke:none"
       id="path678" />
    <path
       d="m 91.12,1855.17 c -0.02,-0.15 -0.1,-0.25 -0.24,-0.29 -0.15,-0.04 -0.26,0.01 -0.34,0.15 -0.12,0.21 -0.22,0.43 -0.32,0.64 -0.05,0.1 -0.12,0.15 -0.23,0.15 -0.49,-0.01 -0.98,-0.01 -1.47,0 -0.1,0 -0.17,-0.04 -0.21,-0.13 -0.08,-0.21 -0.17,-0.4 -0.27,-0.6 -0.1,-0.2 -0.27,-0.27 -0.43,-0.19 -0.16,0.08 -0.22,0.26 -0.12,0.46 0.47,1.01 0.94,2.03 1.41,3.05 0.06,0.14 0.14,0.25 0.31,0.25 0.17,0 0.25,-0.1 0.32,-0.23 0.51,-1.03 1.02,-2.05 1.53,-3.08 0.04,-0.05 0.06,-0.11 0.06,-0.18 z m -1.89,2.48 c -0.18,-0.39 -0.35,-0.75 -0.52,-1.1 -0.06,-0.12 0.03,-0.11 0.1,-0.11 0.28,0 0.57,0 0.85,0 0.12,-0.01 0.17,0.02 0.1,0.15 -0.17,0.33 -0.35,0.68 -0.53,1.06 z"
       style="fill:#7e89a0;fill-opacity:1;fill-rule:evenodd;stroke:none"
       id="path680" />
    <path
       d="m 77.52,1862.15 c -0.01,-0.15 -0.08,-0.25 -0.21,-0.3 -0.17,-0.05 -0.29,0 -0.38,0.15 -0.11,0.2 -0.21,0.4 -0.31,0.61 -0.04,0.12 -0.13,0.18 -0.27,0.17 -0.47,0 -0.93,-0.01 -1.4,0 -0.12,0.01 -0.2,-0.04 -0.24,-0.15 -0.09,-0.2 -0.18,-0.4 -0.28,-0.59 -0.1,-0.2 -0.26,-0.26 -0.43,-0.17 -0.17,0.09 -0.21,0.23 -0.12,0.43 0.47,1.03 0.95,2.06 1.43,3.08 0.06,0.13 0.13,0.23 0.29,0.24 0.16,0.01 0.26,-0.09 0.33,-0.22 0.51,-1.04 1.02,-2.07 1.53,-3.1 0.03,-0.05 0.05,-0.1 0.06,-0.15 z m -1.9,2.46 c -0.19,-0.41 -0.36,-0.8 -0.55,-1.21 0.36,0.01 0.7,0.01 1.03,0 0.11,0 0.1,0.05 0.06,0.13 -0.17,0.34 -0.35,0.7 -0.54,1.08 z"
       style="fill:#00e0b5;fill-opacity:1;fill-rule:evenodd;stroke:none"
       id="path682" />
    <path
       d="m 101.32,1856.83 c 0,0.5 0,1 0,1.5 0,0.3 0.09,0.4 0.38,0.4 0.53,0 1.05,0 1.57,0 0.26,0 0.39,-0.11 0.39,-0.32 0,-0.19 -0.13,-0.3 -0.38,-0.3 -0.4,0 -0.8,0 -1.21,0 -0.11,0.01 -0.16,-0.04 -0.16,-0.15 0.01,-0.23 0.01,-0.46 0,-0.68 -0.01,-0.16 0.07,-0.17 0.19,-0.17 0.39,0 0.78,0 1.17,0 0.18,0 0.34,-0.05 0.39,-0.25 0.04,-0.21 -0.1,-0.37 -0.33,-0.37 -0.41,-0.01 -0.82,-0.01 -1.23,0 -0.15,0 -0.19,-0.04 -0.19,-0.19 0.02,-0.2 0.02,-0.4 0,-0.59 -0.01,-0.18 0.07,-0.21 0.22,-0.21 0.38,0.01 0.76,0.01 1.15,0 0.25,0 0.38,-0.11 0.38,-0.32 0,-0.19 -0.13,-0.29 -0.38,-0.3 -0.53,0 -1.06,0 -1.59,0 -0.27,0 -0.37,0.11 -0.37,0.38 0,0.52 0,1.04 0,1.57 z"
       style="fill:#7e89a0;fill-opacity:1;fill-rule:nonzero;stroke:none"
       id="path684" />
    <path
       d="m 97.02,1868.78 c -0.24,0.01 -0.37,0.24 -0.27,0.47 0.15,0.34 0.31,0.67 0.46,1 0.32,0.69 0.64,1.37 0.96,2.06 0.06,0.14 0.14,0.27 0.31,0.27 0.19,0.01 0.27,-0.12 0.34,-0.27 0.48,-0.97 0.97,-1.95 1.46,-2.92 0.03,-0.05 0.05,-0.1 0.07,-0.15 0.08,-0.18 0.02,-0.35 -0.13,-0.42 -0.15,-0.08 -0.33,-0.02 -0.41,0.14 -0.12,0.21 -0.22,0.41 -0.32,0.63 -0.04,0.1 -0.12,0.16 -0.24,0.15 -0.48,0 -0.96,0 -1.44,0 -0.11,0.01 -0.18,-0.04 -0.22,-0.14 -0.1,-0.21 -0.19,-0.41 -0.29,-0.62 -0.06,-0.12 -0.15,-0.19 -0.28,-0.2 z m 1.48,2.79 c -0.17,-0.38 -0.34,-0.74 -0.5,-1.09 -0.04,-0.07 -0.05,-0.13 0.06,-0.13 0.32,0 0.63,0 0.94,0 0.08,-0.01 0.1,0.03 0.06,0.1 -0.18,0.36 -0.36,0.73 -0.56,1.12 z"
       style="fill:#7e89a0;fill-opacity:1;fill-rule:evenodd;stroke:none"
       id="path686" />
    <path
       d="m 82.9,1872.59 c 0.18,-0.02 0.27,-0.13 0.34,-0.27 0.38,-0.76 0.75,-1.52 1.13,-2.28 0.13,-0.25 0.25,-0.51 0.38,-0.76 0.09,-0.21 0.06,-0.37 -0.11,-0.46 -0.18,-0.08 -0.33,-0.02 -0.44,0.19 -0.11,0.2 -0.21,0.41 -0.3,0.61 -0.04,0.09 -0.11,0.13 -0.2,0.12 -0.49,0 -0.99,0 -1.48,0 -0.11,0 -0.18,-0.04 -0.21,-0.14 -0.09,-0.2 -0.19,-0.41 -0.29,-0.61 -0.09,-0.19 -0.25,-0.25 -0.41,-0.18 -0.17,0.08 -0.22,0.24 -0.14,0.44 0.48,1.04 0.97,2.09 1.45,3.13 0.06,0.13 0.16,0.2 0.28,0.21 z m 0.02,-1.02 c -0.19,-0.4 -0.36,-0.77 -0.52,-1.12 -0.06,-0.13 0.05,-0.1 0.11,-0.1 0.29,0 0.58,0 0.87,0 0.1,-0.01 0.15,0.01 0.09,0.12 -0.17,0.34 -0.36,0.7 -0.55,1.1 z"
       style="fill:#7e89a0;fill-opacity:1;fill-rule:evenodd;stroke:none"
       id="path688" />
    <path
       d="m 94.35,1864.2 c 0,-0.31 0,-0.61 0,-0.92 0.02,-0.56 -0.2,-1.01 -0.71,-1.27 -0.55,-0.27 -1.08,-0.24 -1.6,0.09 -0.37,0.25 -0.56,0.6 -0.57,1.06 0,0.71 -0.01,1.42 0,2.14 0.01,0.24 0.11,0.36 0.32,0.37 0.21,0 0.32,-0.13 0.31,-0.39 0.01,-0.67 0.01,-1.34 0,-2.01 0,-0.38 0.16,-0.63 0.49,-0.74 0.33,-0.12 0.75,-0.03 0.96,0.21 0.11,0.13 0.17,0.29 0.16,0.47 0,0.7 0,1.4 0,2.1 0.01,0.22 0.1,0.34 0.29,0.36 0.22,0.01 0.34,-0.1 0.35,-0.35 0.01,-0.37 0.01,-0.75 0,-1.12 z"
       style="fill:#00e0b5;fill-opacity:1;fill-rule:nonzero;stroke:none"
       id="path690" />
    <path
       d="m 105.01,1870.73 c -0.01,0.51 -0.01,1.02 0,1.52 0,0.3 0.08,0.39 0.37,0.39 0.53,0 1.06,0 1.59,0 0.25,0 0.38,-0.1 0.38,-0.3 0,-0.2 -0.13,-0.3 -0.39,-0.31 -0.39,0 -0.78,0 -1.17,0.01 -0.15,0 -0.19,-0.05 -0.18,-0.2 0.01,-0.22 0.01,-0.45 0,-0.67 -0.01,-0.13 0.04,-0.16 0.16,-0.16 0.39,0.01 0.79,0.01 1.19,0.01 0.26,-0.01 0.39,-0.11 0.39,-0.31 0.01,-0.2 -0.13,-0.3 -0.4,-0.3 -0.38,-0.01 -0.76,-0.01 -1.14,0 -0.17,0.01 -0.21,-0.04 -0.2,-0.2 0.01,-0.21 0.01,-0.43 0,-0.64 -0.01,-0.12 0.04,-0.18 0.17,-0.17 0.41,0.01 0.82,0.01 1.23,0.01 0.22,-0.01 0.33,-0.1 0.34,-0.29 0.01,-0.18 -0.13,-0.31 -0.34,-0.31 -0.56,-0.01 -1.11,-0.01 -1.66,0 -0.24,0 -0.34,0.1 -0.35,0.35 0,0.52 0,1.04 0.01,1.57 z"
       style="fill:#7e89a0;fill-opacity:1;fill-rule:nonzero;stroke:none"
       id="path692" />
    <path
       d="m 91.28,1872.59 c 0.36,0 0.7,-0.1 1,-0.31 0.17,-0.12 0.22,-0.3 0.12,-0.46 -0.1,-0.15 -0.28,-0.17 -0.47,-0.05 -0.28,0.18 -0.57,0.27 -0.9,0.18 -0.27,-0.07 -0.47,-0.29 -0.45,-0.5 0.03,-0.23 0.24,-0.41 0.53,-0.43 0.23,-0.02 0.47,-0.02 0.69,-0.09 0.48,-0.13 0.78,-0.5 0.83,-0.99 0.03,-0.4 -0.23,-0.8 -0.66,-1 -0.59,-0.28 -1.43,-0.11 -1.88,0.37 -0.15,0.15 -0.16,0.35 -0.04,0.47 0.12,0.13 0.3,0.12 0.46,-0.04 0.3,-0.28 0.65,-0.38 1.06,-0.3 0.27,0.06 0.45,0.25 0.45,0.47 -0.01,0.22 -0.21,0.42 -0.48,0.46 -0.18,0.02 -0.36,0.03 -0.53,0.04 -0.63,0.08 -1.05,0.53 -1.03,1.11 0.01,0.54 0.53,1.03 1.11,1.07 0.06,0 0.13,0 0.19,0 z"
       style="fill:#7e89a0;fill-opacity:1;fill-rule:nonzero;stroke:none"
       id="path694" />
    <path
       d="m 84.48,1861.85 c -0.99,-0.01 -1.74,0.54 -1.99,1.34 -0.25,0.82 0.05,1.69 0.75,2.17 0.71,0.47 1.64,0.43 2.3,-0.1 0.18,-0.16 0.22,-0.32 0.1,-0.48 -0.12,-0.15 -0.28,-0.16 -0.48,-0.01 -0.85,0.65 -1.98,0.19 -2.14,-0.87 -0.07,-0.46 0.2,-0.99 0.64,-1.25 0.45,-0.27 1.05,-0.23 1.46,0.09 0.03,0.03 0.06,0.05 0.09,0.08 0.17,0.11 0.31,0.1 0.44,-0.03 0.12,-0.13 0.11,-0.3 -0.03,-0.44 -0.36,-0.33 -0.8,-0.49 -1.14,-0.5 z"
       style="fill:#00e0b5;fill-opacity:1;fill-rule:nonzero;stroke:none"
       id="path696" />
    <path
       d="m 93.68,1870.73 c 0,0.48 0,0.96 0,1.44 0,0.36 0.14,0.49 0.48,0.49 0.29,0.01 0.58,0.01 0.87,0 0.7,-0.01 1.23,-0.52 1.22,-1.17 -0.01,-0.63 -0.54,-1.11 -1.23,-1.11 -0.18,-0.01 -0.37,-0.01 -0.55,0 -0.12,0.01 -0.18,-0.04 -0.17,-0.17 0.01,-0.35 0.01,-0.7 0,-1.06 -0.01,-0.27 -0.25,-0.42 -0.46,-0.29 -0.14,0.08 -0.16,0.21 -0.16,0.35 0,0.5 0,1.01 0,1.52 z m 0.62,0.8 c 0,-0.14 0,-0.28 0,-0.42 0,-0.06 0.01,-0.13 0.09,-0.12 0.29,0.01 0.58,-0.05 0.86,0.03 0.27,0.08 0.41,0.31 0.37,0.56 -0.04,0.26 -0.26,0.45 -0.52,0.46 -0.1,0 -0.19,0 -0.28,0 -0.52,0 -0.52,0 -0.52,-0.51 z"
       style="fill:#7e89a0;fill-opacity:1;fill-rule:evenodd;stroke:none"
       id="path698" />
    <path
       d="m 80.12,1861.85 c -0.83,0 -1.57,0.55 -1.82,1.36 -0.25,0.8 0.06,1.67 0.76,2.15 0.67,0.46 1.61,0.44 2.25,-0.07 0.14,-0.11 0.26,-0.22 0.2,-0.41 -0.08,-0.23 -0.32,-0.28 -0.54,-0.11 -0.39,0.31 -0.82,0.38 -1.29,0.21 -0.49,-0.18 -0.77,-0.54 -0.83,-1.05 -0.06,-0.58 0.16,-1.01 0.66,-1.3 0.48,-0.25 0.94,-0.22 1.39,0.08 0.04,0.04 0.09,0.07 0.13,0.11 0.17,0.11 0.32,0.1 0.44,-0.03 0.11,-0.13 0.1,-0.29 -0.04,-0.43 -0.34,-0.32 -0.74,-0.49 -1.2,-0.51 -0.04,-0.01 -0.07,-0.01 -0.11,0 z"
       style="fill:#00e0b5;fill-opacity:1;fill-rule:nonzero;stroke:none"
       id="path700" />
    <path
       d="m 114.39,1872.64 c 0.51,0 0.94,-0.14 1.29,-0.44 0.18,-0.15 0.21,-0.3 0.1,-0.46 -0.13,-0.16 -0.29,-0.16 -0.49,-0.02 -0.41,0.32 -0.86,0.41 -1.35,0.2 -0.47,-0.2 -0.73,-0.56 -0.78,-1.07 -0.04,-0.56 0.17,-0.97 0.65,-1.25 0.46,-0.26 0.92,-0.24 1.38,0.06 0.06,0.04 0.11,0.08 0.17,0.12 0.15,0.11 0.33,0.1 0.43,-0.04 0.11,-0.16 0.09,-0.3 -0.04,-0.42 -0.32,-0.3 -0.69,-0.47 -1.12,-0.51 -1.03,-0.09 -1.93,0.63 -2.08,1.65 -0.15,0.98 0.51,1.92 1.5,2.14 0.13,0.03 0.27,0.04 0.34,0.04 z"
       style="fill:#7e89a0;fill-opacity:1;fill-rule:nonzero;stroke:none"
       id="path702" />
    <path
       d="m 98.7,1855.98 c 0.23,0.53 0.45,1.03 0.65,1.51 0.14,0.31 0.27,0.63 0.41,0.94 0.09,0.21 0.24,0.29 0.43,0.22 0.17,-0.06 0.23,-0.24 0.14,-0.46 -0.44,-1.03 -0.89,-2.06 -1.34,-3.09 -0.05,-0.14 -0.15,-0.21 -0.28,-0.22 -0.15,0 -0.26,0.08 -0.31,0.22 -0.45,1.03 -0.9,2.07 -1.35,3.11 -0.09,0.2 -0.02,0.37 0.15,0.44 0.17,0.07 0.33,0 0.42,-0.2 0.3,-0.7 0.6,-1.39 0.9,-2.09 0.05,-0.1 0.11,-0.23 0.18,-0.38 z"
       style="fill:#7e89a0;fill-opacity:1;fill-rule:nonzero;stroke:none"
       id="path704" />
    <path
       d="m 118.03,1869.84 c 0.13,0.44 -0.12,0.83 -0.44,1.21 -0.26,0.33 -0.52,0.67 -0.77,1.01 -0.12,0.17 -0.11,0.37 0.03,0.48 0.14,0.1 0.33,0.06 0.46,-0.11 0.31,-0.4 0.62,-0.81 0.92,-1.22 0.1,-0.13 0.15,-0.12 0.24,0 0.3,0.39 0.6,0.77 0.91,1.16 0.15,0.19 0.34,0.23 0.49,0.12 0.15,-0.12 0.14,-0.31 -0.01,-0.51 -0.36,-0.46 -0.73,-0.92 -1.1,-1.38 -0.08,-0.09 -0.12,-0.2 -0.11,-0.33 0,-0.37 0,-0.75 0,-1.12 0,-0.23 -0.11,-0.35 -0.31,-0.35 -0.19,0 -0.3,0.12 -0.31,0.35 0,0.2 0,0.4 0,0.69 z"
       style="fill:#7e89a0;fill-opacity:1;fill-rule:nonzero;stroke:none"
       id="path706" />
    <path
       d="m 123.13,1862.79 c 0.12,0.52 -0.1,0.91 -0.43,1.29 -0.27,0.31 -0.5,0.66 -0.75,0.99 -0.15,0.2 -0.15,0.4 0.01,0.51 0.15,0.11 0.33,0.05 0.48,-0.14 0.3,-0.4 0.6,-0.79 0.9,-1.19 0.1,-0.14 0.15,-0.11 0.24,0.01 0.3,0.38 0.6,0.77 0.9,1.15 0.15,0.19 0.34,0.23 0.49,0.12 0.14,-0.12 0.15,-0.31 0,-0.49 -0.36,-0.47 -0.73,-0.94 -1.11,-1.4 -0.07,-0.1 -0.11,-0.2 -0.11,-0.33 0.01,-0.36 0.01,-0.73 0,-1.1 0,-0.24 -0.1,-0.36 -0.29,-0.37 -0.2,0 -0.31,0.12 -0.33,0.36 0,0.01 0,0.03 0,0.04 z"
       style="fill:#00e0b5;fill-opacity:1;fill-rule:nonzero;stroke:none"
       id="path708" />
    <path
       d="m 75.52,1870.49 c 0.01,-0.45 0,-0.89 0,-1.34 0,-0.17 -0.07,-0.31 -0.25,-0.34 -0.17,-0.03 -0.29,0.03 -0.35,0.2 -0.02,0.07 -0.03,0.15 -0.03,0.23 0,0.82 0,1.65 0,2.48 0,0.32 0.04,0.28 -0.3,0.29 -0.16,0 -0.32,0 -0.48,0 -0.25,0.01 -0.37,0.11 -0.37,0.32 -0.01,0.2 0.12,0.3 0.37,0.3 0.73,0 1.47,0 2.2,0 0.25,0 0.37,-0.1 0.37,-0.31 0,-0.2 -0.12,-0.3 -0.37,-0.31 -0.19,-0.01 -0.38,-0.01 -0.57,0 -0.16,0.01 -0.22,-0.03 -0.22,-0.21 0.01,-0.44 0.01,-0.88 0,-1.31 z"
       style="fill:#7e89a0;fill-opacity:1;fill-rule:nonzero;stroke:none"
       id="path710" />
    <path
       d="m 119.16,1863.54 c 0,0.45 0,0.9 0.01,1.35 0,0.13 -0.03,0.18 -0.17,0.18 -0.23,-0.01 -0.45,-0.01 -0.68,-0.01 -0.2,0.01 -0.33,0.14 -0.32,0.32 0.01,0.17 0.13,0.29 0.33,0.29 0.77,0 1.54,0 2.31,0 0.21,-0.01 0.31,-0.11 0.31,-0.3 0,-0.19 -0.1,-0.29 -0.3,-0.3 -0.19,-0.01 -0.38,-0.01 -0.58,-0.01 -0.27,0 -0.27,0 -0.27,-0.26 0,-0.83 0,-1.65 0,-2.47 0,-0.05 0,-0.11 -0.01,-0.17 -0.01,-0.2 -0.14,-0.32 -0.32,-0.32 -0.17,0 -0.3,0.13 -0.3,0.34 -0.01,0.45 -0.01,0.9 -0.01,1.36 z"
       style="fill:#00e0b5;fill-opacity:1;fill-rule:nonzero;stroke:none"
       id="path712" />
    <path
       d="m 101.33,1863.53 c 0,-0.44 0,-0.88 -0.01,-1.32 0,-0.24 -0.12,-0.38 -0.31,-0.37 -0.19,0.01 -0.29,0.13 -0.29,0.36 -0.01,0.86 -0.01,1.73 -0.01,2.59 0,0.27 0,0.27 -0.28,0.27 -0.19,0 -0.38,0 -0.57,0 -0.18,0.01 -0.32,0.14 -0.32,0.3 -0.01,0.17 0.12,0.3 0.31,0.31 0.78,0 1.56,0 2.34,0 0.18,0 0.31,-0.14 0.31,-0.31 0,-0.16 -0.13,-0.29 -0.32,-0.3 -0.22,0 -0.45,0 -0.68,0.01 -0.14,0 -0.18,-0.05 -0.18,-0.19 0.01,-0.45 0.01,-0.9 0.01,-1.35 z"
       style="fill:#00e0b5;fill-opacity:1;fill-rule:nonzero;stroke:none"
       id="path714" />
    <path
       d="m 83,1856.57 c -0.01,0.43 -0.01,0.85 0,1.28 0.01,0.19 -0.03,0.28 -0.25,0.26 -0.2,-0.02 -0.39,-0.02 -0.59,-0.01 -0.2,0.01 -0.34,0.13 -0.34,0.31 0,0.17 0.13,0.3 0.34,0.3 0.76,0 1.52,0 2.29,0 0.2,0 0.34,-0.13 0.33,-0.3 0,-0.18 -0.13,-0.3 -0.33,-0.31 -0.22,-0.01 -0.43,0 -0.64,0 -0.16,0.01 -0.21,-0.03 -0.21,-0.19 0.01,-0.85 0.01,-1.7 0.01,-2.55 0,-0.33 -0.1,-0.49 -0.31,-0.48 -0.21,-0.01 -0.31,0.15 -0.3,0.48 0,0.41 0,0.81 0,1.21 z"
       style="fill:#7e89a0;fill-opacity:1;fill-rule:nonzero;stroke:none"
       id="path716" />
    <path
       d="m 93.21,1856.56 c 0,-0.43 0,-0.87 0,-1.3 0,-0.25 -0.1,-0.38 -0.29,-0.38 -0.19,-0.01 -0.31,0.14 -0.31,0.39 -0.01,0.88 -0.01,1.76 0,2.64 0,0.16 -0.05,0.2 -0.2,0.19 -0.21,-0.01 -0.43,-0.01 -0.64,0 -0.2,0.01 -0.34,0.13 -0.34,0.31 0,0.17 0.13,0.3 0.34,0.3 0.76,0 1.53,0 2.29,0 0.21,0 0.34,-0.13 0.33,-0.3 0,-0.18 -0.14,-0.3 -0.33,-0.31 -0.23,0 -0.46,0 -0.68,0 -0.12,0.02 -0.18,-0.04 -0.17,-0.16 0,-0.46 0,-0.92 0,-1.38 z"
       style="fill:#7e89a0;fill-opacity:1;fill-rule:nonzero;stroke:none"
       id="path718" />
    <path
       d="m 113,1863.75 c 0,0.52 0,1.05 0.01,1.57 0,0.23 0.15,0.38 0.35,0.34 0.19,-0.03 0.25,-0.16 0.25,-0.34 0,-0.88 -0.01,-1.77 -0.01,-2.65 0,-0.2 0.06,-0.24 0.24,-0.24 0.4,0.02 0.8,0.02 1.21,0.01 0.23,0 0.34,-0.09 0.34,-0.28 0.01,-0.19 -0.12,-0.31 -0.34,-0.31 -0.56,-0.01 -1.12,-0.01 -1.68,-0.01 -0.24,-0.01 -0.36,0.12 -0.36,0.36 -0.01,0.52 -0.01,1.03 -0.01,1.55 z"
       style="fill:#00e0b5;fill-opacity:1;fill-rule:nonzero;stroke:none"
       id="path720" />
    <path
       d="m 111.77,1863.78 c 0,-0.52 0,-1.04 0,-1.55 0,-0.19 -0.08,-0.34 -0.28,-0.38 -0.19,-0.04 -0.35,0.13 -0.35,0.37 -0.01,0.45 -0.01,0.89 -0.01,1.34 0,0.58 0,1.16 0,1.74 0,0.24 0.12,0.39 0.32,0.4 0.19,0 0.31,-0.15 0.31,-0.4 0.01,-0.51 0.01,-1.02 0.01,-1.52 z"
       style="fill:#00e0b5;fill-opacity:1;fill-rule:nonzero;stroke:none"
       id="path722" />
    <path
       d="m 80.21,1856.8 c 0,0.51 0,1.02 0,1.53 0.01,0.26 0.11,0.39 0.3,0.41 0.21,0 0.32,-0.14 0.32,-0.41 0,-1.01 0,-2.02 0,-3.03 0,-0.27 -0.1,-0.4 -0.3,-0.41 -0.21,0 -0.31,0.14 -0.32,0.41 0,0.5 0,1 0,1.5 z"
       style="fill:#7e89a0;fill-opacity:1;fill-rule:nonzero;stroke:none"
       id="path724" />
    <path
       d="m 85.77,1856.82 c 0,0.51 0,1.03 0,1.54 0,0.25 0.16,0.41 0.36,0.37 0.18,-0.04 0.27,-0.15 0.27,-0.33 0,-1.06 0,-2.12 0,-3.18 0,-0.19 -0.14,-0.33 -0.32,-0.33 -0.18,0 -0.31,0.14 -0.31,0.36 0,0.52 0,1.04 0,1.57 z"
       style="fill:#7e89a0;fill-opacity:1;fill-rule:nonzero;stroke:none"
       id="path726" />
    <path
       d="m 96.01,1856.79 c 0,-0.51 0,-1.01 0,-1.51 0,-0.24 -0.13,-0.39 -0.32,-0.39 -0.18,0.01 -0.31,0.16 -0.31,0.38 0,1.03 0,2.05 0,3.08 0,0.24 0.13,0.39 0.32,0.39 0.2,-0.02 0.3,-0.15 0.31,-0.41 0,-0.51 0,-1.03 0,-1.54 z"
       style="fill:#7e89a0;fill-opacity:1;fill-rule:nonzero;stroke:none"
       id="path728" />
    <path
       d="m 117,1863.77 c 0,-0.52 0,-1.05 0,-1.57 0,-0.21 -0.12,-0.36 -0.3,-0.35 -0.17,0 -0.3,0.14 -0.3,0.34 0,1.06 0,2.11 0,3.16 0,0.2 0.13,0.34 0.3,0.35 0.18,0 0.3,-0.14 0.3,-0.36 0,-0.52 0,-1.05 0,-1.57 z"
       style="fill:#00e0b5;fill-opacity:1;fill-rule:nonzero;stroke:none"
       id="path730" />
    <path
       d="m 74.6,1856.81 c 0,-0.52 0,-1.04 0,-1.57 -0.01,-0.23 -0.12,-0.35 -0.34,-0.33 -0.18,0.02 -0.27,0.12 -0.27,0.31 0,1.06 0,2.13 0,3.2 0,0.19 0.14,0.32 0.3,0.32 0.17,0 0.31,-0.14 0.31,-0.34 0,-0.53 0,-1.06 0,-1.59 z"
       style="fill:#7e89a0;fill-opacity:1;fill-rule:nonzero;stroke:none"
       id="path732" />
    <path
       d="m 68.1,1864.15 c 0.32,-0.33 0.33,-0.44 0,-0.76 -0.82,-0.83 -1.65,-1.66 -2.48,-2.49 -0.11,-0.1 -0.21,-0.23 -0.39,-0.17 -0.12,0.03 -0.26,0.06 -0.3,0.22 -0.06,0.18 -0.01,0.37 0.13,0.5 0.54,0.54 1.07,1.07 1.61,1.61 0.09,0.09 0.19,0.17 0.3,0.24 -0.08,0.13 -0.16,0.09 -0.22,0.09 -2.51,0 -5.02,0.01 -7.53,0.01 -0.25,0 -0.29,-0.08 -0.29,-0.3 0.01,-2.4 0.01,-4.8 0.01,-7.19 -0.01,-0.09 -0.01,-0.18 0,-0.27 0.01,-0.12 -0.12,-0.29 0.04,-0.35 0.11,-0.04 0.19,0.13 0.27,0.21 0.54,0.53 1.08,1.07 1.62,1.6 0.21,0.21 0.4,0.23 0.58,0.07 0.2,-0.19 0.19,-0.39 -0.03,-0.62 -0.51,-0.51 -1.02,-1.02 -1.53,-1.53 -0.34,-0.34 -0.67,-0.68 -1.01,-1.01 -0.25,-0.25 -0.43,-0.25 -0.68,0 -0.85,0.85 -1.7,1.7 -2.55,2.56 -0.23,0.22 -0.25,0.4 -0.06,0.59 0.15,0.17 0.34,0.15 0.57,-0.04 0.47,-0.4 0.87,-0.87 1.31,-1.29 0.21,-0.21 0.42,-0.42 0.68,-0.69 v 0.29 c -0.01,2.56 0,5.11 0,7.67 0,0.24 -0.06,0.3 -0.31,0.3 -2.5,0 -5,-0.01 -7.5,0 -0.08,0 -0.21,0.04 -0.24,-0.05 -0.04,-0.1 0.09,-0.14 0.16,-0.21 0.43,-0.44 0.87,-0.88 1.31,-1.33 0.15,-0.14 0.3,-0.29 0.44,-0.44 0.16,-0.18 0.16,-0.4 0,-0.54 -0.17,-0.16 -0.4,-0.15 -0.57,0.02 -0.46,0.48 -0.93,0.95 -1.4,1.42 -0.4,0.41 -0.81,0.81 -1.21,1.21 -0.2,0.21 -0.2,0.41 0,0.62 0.85,0.84 1.69,1.69 2.54,2.53 0.03,0.04 0.06,0.07 0.09,0.1 0.2,0.15 0.39,0.14 0.57,-0.04 0.14,-0.15 0.13,-0.36 -0.04,-0.54 -0.57,-0.57 -1.14,-1.14 -1.71,-1.71 -0.06,-0.07 -0.15,-0.12 -0.18,-0.22 0.07,-0.06 0.15,-0.03 0.23,-0.03 2.5,0 5,0 7.5,-0.01 0.26,0 0.32,0.07 0.32,0.33 -0.01,2.52 -0.01,5.04 -0.01,7.55 v 0.26 c -0.32,-0.3 -0.62,-0.6 -0.91,-0.89 -0.24,-0.25 -0.48,-0.5 -0.74,-0.74 -0.1,-0.1 -0.19,-0.2 -0.28,-0.31 -0.16,-0.19 -0.43,-0.22 -0.61,-0.07 -0.18,0.16 -0.18,0.38 0.01,0.57 0.88,0.88 1.76,1.76 2.64,2.64 0.19,0.2 0.39,0.2 0.59,-0.01 0.87,-0.86 1.73,-1.73 2.6,-2.6 0.19,-0.18 0.2,-0.39 0.05,-0.55 -0.19,-0.19 -0.39,-0.19 -0.61,0.01 -0.56,0.56 -1.13,1.13 -1.7,1.69 -0.06,0.06 -0.1,0.18 -0.2,0.13 -0.08,-0.03 -0.04,-0.14 -0.04,-0.21 0,-2.52 0,-5.03 -0.01,-7.54 0,-0.19 0.05,-0.26 0.25,-0.26 2.54,0.01 5.08,0.01 7.61,0.01 0.03,0 0.06,0 0.09,0.01 0.01,0.12 -0.1,0.16 -0.16,0.22 -0.53,0.53 -1.06,1.06 -1.59,1.59 -0.07,0.07 -0.13,0.14 -0.18,0.23 -0.08,0.19 -0.08,0.38 0.1,0.52 0.15,0.12 0.41,0.09 0.55,-0.07 0.8,-0.89 1.68,-1.69 2.5,-2.54 z"
       style="fill:#cbcfd9;fill-opacity:1;fill-rule:nonzero;stroke:none"
       id="path734" />
    <path
       d="m 54.92,1858.52 h -1.24 c -0.31,0 -0.46,0.15 -0.46,0.44 -0.01,0.84 -0.02,1.67 -0.02,2.51 0.01,0.33 0.14,0.5 0.41,0.5 0.27,0 0.4,-0.17 0.4,-0.51 0,-0.64 0,-1.28 0,-1.93 -0.01,-0.17 0.05,-0.22 0.22,-0.22 0.64,0.01 1.28,0.01 1.93,0.01 0.33,-0.01 0.5,-0.14 0.51,-0.4 0,-0.26 -0.17,-0.4 -0.51,-0.4 -0.41,0 -0.83,0 -1.24,0 z"
       style="fill:#0edeb4;fill-opacity:1;fill-rule:nonzero;stroke:none"
       id="path736" />
    <path
       d="m 54.92,1858.52 c 0.42,0 0.83,0 1.24,0 -0.41,0 -0.83,0 -1.24,0 z"
       style="fill:#0edeb4;fill-opacity:1;fill-rule:nonzero;stroke:none"
       id="path738" />
    <path
       d="m 53.22,1867.41 c 0,0.22 0,0.43 0,0.65 0,0.22 0,0.43 0,0.65 0,0.27 0.15,0.44 0.41,0.44 0.87,0 1.75,0 2.62,0 0.25,0 0.42,-0.18 0.42,-0.41 -0.01,-0.24 -0.17,-0.39 -0.46,-0.4 -0.51,0 -1.03,0 -1.54,0 -0.67,0 -0.67,0 -0.66,-0.67 0,-0.51 0,-1.03 0,-1.54 0,-0.27 -0.17,-0.45 -0.4,-0.45 -0.24,0 -0.39,0.18 -0.39,0.46 0,0.43 0,0.85 0,1.27 z"
       style="fill:#0edeb5;fill-opacity:1;fill-rule:nonzero;stroke:none"
       id="path740" />
    <path
       d="m 53.22,1866.14 c 0,0.43 0,0.85 0,1.27 0,0.22 0,0.43 0,0.65 0,-0.22 0,-0.43 0,-0.65 0,-0.42 0,-0.84 0,-1.27 z"
       style="fill:#0edeb5;fill-opacity:1;fill-rule:nonzero;stroke:none"
       id="path742" />
    <path
       d="m 63.92,1861.5 c 0.01,-0.8 0.01,-1.61 0,-2.41 0,-0.45 -0.1,-0.55 -0.56,-0.56 -0.39,0 -0.79,0 -1.18,0 v 0 c -0.41,-0.01 -0.81,-0.01 -1.22,0 -0.37,0.01 -0.5,0.12 -0.49,0.39 0,0.26 0.17,0.39 0.51,0.4 0.63,0 1.26,0 1.9,-0.01 0.2,0 0.25,0.06 0.24,0.25 0,0.64 0,1.29 0,1.93 0,0.3 0.15,0.48 0.4,0.48 0.25,0 0.4,-0.18 0.4,-0.47 z"
       style="fill:#0cddb4;fill-opacity:1;fill-rule:nonzero;stroke:none"
       id="path744" />
    <path
       d="m 63.39,1869.14 c 0.33,0 0.48,-0.13 0.49,-0.45 0,-0.86 0,-1.71 0,-2.57 -0.01,-0.27 -0.17,-0.44 -0.39,-0.44 -0.24,0.01 -0.4,0.18 -0.41,0.46 -0.01,0.65 -0.01,1.29 0,1.93 0.01,0.22 -0.05,0.29 -0.28,0.28 -0.6,-0.01 -1.2,-0.01 -1.8,0 -0.08,0 -0.16,0 -0.24,0.01 -0.21,0.03 -0.32,0.16 -0.33,0.37 -0.01,0.23 0.1,0.36 0.31,0.39 0.23,0.02 0.46,0.03 0.69,0.03 0.24,0 0.48,0 0.71,0 0.42,0 0.83,0 1.25,-0.01 z"
       style="fill:#7f8aa0;fill-opacity:1;fill-rule:nonzero;stroke:none"
       id="path746" />
    <path
       d="m 62.14,1869.15 c 0.42,0 0.83,0 1.25,0 -0.42,0 -0.83,0 -1.25,0 -0.23,0 -0.47,0 -0.71,0 0.24,0 0.47,0 0.71,0 z"
       style="fill:#7f8aa0;fill-opacity:1;fill-rule:nonzero;stroke:none"
       id="path748" />
  </g>
</svg>
