<?xml version="1.0" encoding="UTF-8" standalone="no"?>
<!-- Created with Inkscape (http://www.inkscape.org/) -->

<svg
   version="1.1"
   id="svg52"
   width="40.300034"
   height="40.665039"
   viewBox="0 0 40.300034 40.66504"
   sodipodi:docname="WEB Diseño-xd.pdf"
   xmlns:inkscape="http://www.inkscape.org/namespaces/inkscape"
   xmlns:sodipodi="http://sodipodi.sourceforge.net/DTD/sodipodi-0.dtd"
   xmlns="http://www.w3.org/2000/svg"
   xmlns:svg="http://www.w3.org/2000/svg">
  <defs
     id="defs56" />
  <sodipodi:namedview
     id="namedview54"
     pagecolor="#ffffff"
     bordercolor="#000000"
     borderopacity="0.25"
     inkscape:showpageshadow="2"
     inkscape:pageopacity="0.0"
     inkscape:pagecheckerboard="0"
     inkscape:deskcolor="#d1d1d1"
     showgrid="false" />
  <g
     id="g58"
     inkscape:groupmode="layer"
     inkscape:label="WEB Diseño-xd"
     transform="matrix(1.3333333,0,0,-1.3333333,-63.554977,221.7767)">
    <path
       d="m 77.52,151.7 c 0.49,-0.5 0.5,-0.67 0,-1.16 -1.27,-1.28 -2.54,-2.55 -3.82,-3.83 -0.16,-0.16 -0.32,-0.35 -0.59,-0.27 -0.19,0.06 -0.41,0.11 -0.47,0.34 -0.09,0.28 -0.01,0.58 0.2,0.78 0.83,0.82 1.65,1.65 2.48,2.47 0.14,0.13 0.3,0.25 0.46,0.37 -0.12,0.2 -0.25,0.14 -0.34,0.14 -3.86,0 -7.72,0.01 -11.58,0.01 -0.38,0.01 -0.44,-0.13 -0.44,-0.46 0.01,-3.69 0.01,-7.37 0.01,-11.05 -0.01,-0.14 -0.01,-0.27 0,-0.41 0.02,-0.19 -0.18,-0.45 0.07,-0.55 0.17,-0.06 0.29,0.2 0.42,0.33 0.83,0.82 1.65,1.64 2.48,2.46 0.32,0.32 0.62,0.35 0.89,0.1 0.31,-0.28 0.3,-0.6 -0.04,-0.95 -0.79,-0.79 -1.57,-1.57 -2.36,-2.36 -0.51,-0.51 -1.03,-1.03 -1.55,-1.55 -0.38,-0.37 -0.66,-0.37 -1.04,0.01 -1.31,1.31 -2.62,2.62 -3.93,3.93 -0.35,0.35 -0.37,0.61 -0.09,0.91 0.23,0.26 0.53,0.23 0.88,-0.07 0.72,-0.61 1.34,-1.32 2.02,-1.98 0.33,-0.31 0.64,-0.64 1.04,-1.06 v 0.45 c -0.01,3.93 0,7.86 0.01,11.78 0,0.38 -0.11,0.47 -0.48,0.47 -3.85,0 -7.69,-0.01 -11.54,-0.01 -0.12,0 -0.32,0.08 -0.37,-0.06 -0.06,-0.16 0.15,-0.22 0.25,-0.32 0.67,-0.69 1.34,-1.37 2.01,-2.05 0.24,-0.22 0.46,-0.45 0.69,-0.69 0.24,-0.27 0.24,-0.6 -0.01,-0.82 -0.25,-0.24 -0.6,-0.23 -0.87,0.04 -0.72,0.73 -1.44,1.45 -2.15,2.18 -0.63,0.62 -1.25,1.24 -1.87,1.86 -0.3,0.31 -0.3,0.63 0.01,0.95 1.3,1.29 2.6,2.59 3.89,3.89 0.05,0.05 0.1,0.1 0.15,0.14 0.29,0.24 0.61,0.22 0.87,-0.05 0.22,-0.23 0.21,-0.56 -0.05,-0.82 -0.88,-0.89 -1.76,-1.77 -2.63,-2.64 -0.1,-0.11 -0.24,-0.18 -0.28,-0.34 0.11,-0.09 0.23,-0.04 0.35,-0.04 3.84,0 7.69,-0.01 11.53,-0.02 0.4,0 0.49,0.11 0.49,0.5 -0.01,3.87 -0.01,7.75 -0.01,11.62 v 0.39 c -0.49,-0.48 -0.96,-0.9 -1.4,-1.36 -0.36,-0.39 -0.74,-0.77 -1.14,-1.14 -0.15,-0.15 -0.3,-0.31 -0.43,-0.48 -0.25,-0.29 -0.66,-0.34 -0.94,-0.1 -0.28,0.24 -0.28,0.57 0.02,0.88 1.35,1.35 2.7,2.7 4.05,4.05 0.3,0.3 0.61,0.3 0.92,-0.02 1.33,-1.33 2.66,-2.66 3.99,-3.99 0.28,-0.28 0.31,-0.61 0.07,-0.85 -0.28,-0.29 -0.61,-0.3 -0.93,0.01 -0.87,0.87 -1.74,1.74 -2.61,2.61 -0.09,0.09 -0.17,0.27 -0.32,0.2 -0.12,-0.06 -0.06,-0.22 -0.06,-0.34 0,-3.86 0,-7.72 0,-11.58 -0.01,-0.29 0.07,-0.39 0.38,-0.39 3.9,0 7.8,0 11.7,0 0.04,0.01 0.09,0.01 0.13,0.02 0.01,0.18 -0.15,0.25 -0.25,0.34 -0.81,0.82 -1.62,1.64 -2.44,2.45 -0.11,0.1 -0.2,0.21 -0.27,0.34 -0.13,0.3 -0.12,0.59 0.15,0.81 0.23,0.19 0.63,0.13 0.85,-0.11 1.22,-1.36 2.57,-2.6 3.84,-3.91 z"
       style="fill:#cbcfd9;fill-opacity:1;fill-rule:nonzero;stroke:none"
       id="path456" />
    <path
       d="m 57.26,143.05 h -1.91 c -0.47,0 -0.71,0.23 -0.71,0.68 -0.02,1.28 -0.02,2.57 -0.02,3.86 -0.01,0.49 0.23,0.77 0.63,0.77 0.4,0 0.61,-0.27 0.61,-0.79 0,-0.98 0,-1.97 -0.01,-2.96 0,-0.27 0.08,-0.34 0.34,-0.34 0.99,0.01 1.98,0.01 2.97,0 0.51,0 0.78,-0.2 0.78,-0.61 0,-0.4 -0.26,-0.6 -0.77,-0.61 -0.64,0 -1.28,0 -1.91,0 z"
       style="fill:#0edeb4;fill-opacity:1;fill-rule:nonzero;stroke:none"
       id="path458" />
    <path
       d="m 57.26,143.05 c 0.64,0 1.27,0 1.91,0 -0.64,0 -1.28,0 -1.91,0 z"
       style="fill:#0edeb4;fill-opacity:1;fill-rule:nonzero;stroke:none"
       id="path460" />
    <path
       d="m 54.64,156.72 c 0,0.33 0,0.66 0,1 0,0.33 0,0.66 0,0.99 0,0.41 0.23,0.68 0.64,0.68 1.34,0.01 2.68,0.01 4.02,0 0.39,0 0.65,-0.28 0.64,-0.63 0,-0.37 -0.26,-0.6 -0.7,-0.61 -0.79,-0.01 -1.58,-0.01 -2.36,-0.01 -1.04,0.01 -1.03,0.01 -1.02,-1.03 0,-0.79 0,-1.57 0,-2.36 -0.01,-0.41 -0.26,-0.7 -0.62,-0.69 -0.37,0 -0.6,0.28 -0.6,0.71 0,0.65 0,1.3 0,1.95 z"
       style="fill:#0edeb5;fill-opacity:1;fill-rule:nonzero;stroke:none"
       id="path462" />
    <path
       d="m 71.1,147.62 c 0,-1.23 0,-2.46 0,-3.69 -0.01,-0.7 -0.16,-0.85 -0.86,-0.86 -0.61,0 -1.22,0 -1.83,0 v -0.01 c -0.62,0 -1.24,0 -1.87,0 -0.57,0.01 -0.76,0.18 -0.76,0.61 0.01,0.4 0.27,0.6 0.79,0.6 0.97,0.01 1.94,0.01 2.92,0 0.31,-0.01 0.38,0.09 0.38,0.38 -0.01,0.99 -0.02,1.98 -0.01,2.97 0,0.46 0.23,0.74 0.61,0.74 0.38,0 0.62,-0.28 0.63,-0.74 z"
       style="fill:#0cddb4;fill-opacity:1;fill-rule:nonzero;stroke:none"
       id="path466" />
    <path
       d="m 70.28,159.38 c 0.51,0 0.74,-0.2 0.74,-0.7 0.01,-1.31 0.01,-2.63 0,-3.94 0,-0.42 -0.25,-0.68 -0.59,-0.68 -0.37,0.01 -0.62,0.27 -0.63,0.71 -0.01,0.99 -0.01,1.98 0,2.97 0.01,0.33 -0.08,0.44 -0.43,0.43 -0.92,-0.03 -1.84,-0.01 -2.76,-0.01 -0.13,0 -0.25,0.01 -0.37,0.02 -0.33,0.05 -0.51,0.24 -0.52,0.57 -0.01,0.33 0.17,0.56 0.49,0.6 0.35,0.03 0.7,0.04 1.05,0.03 0.37,0.01 0.73,0.01 1.1,0 0.63,0.01 1.27,0.01 1.92,0 z"
       style="fill:#7f8aa0;fill-opacity:1;fill-rule:nonzero;stroke:none"
       id="path468" />
  </g>
</svg>
