<?xml version="1.0" encoding="UTF-8"?>
<svg id="Capa_2" data-name="Capa 2" xmlns="http://www.w3.org/2000/svg" viewBox="0 0 4839.5 139.7">
  <defs>
    <style>
      .cls-1 {
        fill: #3d30bf;
      }
    </style>
  </defs>
  <g id="Capa_1-2" data-name="Capa 1">
    <path class="cls-1" d="M4838,120.5c-217.71,0-357.17-33.94-492.04-66.76l-.31-.07c-113.7-27.6-221.09-53.67-361.05-53.67-84.4,0-182.78,22.85-286.94,47.04l-.99,.23c-119.67,27.7-243.41,56.34-369.8,58.53-128.21,2.31-254.83-24.51-377.25-50.43l-1.11-.23c-108.85-23.15-211.66-45.01-316.47-48.03-122.16-3.5-238.21,15.28-372.58,37.01l-1.61,.26c-133.37,21.58-284.53,46.04-465.29,50.23-90.51,2.1-171.09-2.51-246.34-14.08-66.84-10.25-120.73-24.34-172.85-37.97l-.7-.18C1293.23,21.61,1218.2,2,1113.13,.2c-155.23-2.7-301.88,32.54-431.28,63.64-70.87,17.04-137.81,33.14-194.82,39.57-84.23,9.55-173.97-12.19-260.76-33.22l-1.8-.44C151.08,52.03,75.18,33.7,1.5,33.7H0v19H1.5c71.34,0,145.99,18.05,218.18,35.5l1.47,.36c88.58,21.52,180.17,43.77,268.02,33.83,58.1-6.55,125.61-22.76,197.08-39.93l1.22-.29c128-30.68,273.1-65.44,425.3-62.77,102.92,1.79,176.94,21.1,255.3,41.53l.45,.12c95.69,25.02,203.24,53.14,382.86,53.13,13.43,0,27.29-.16,41.55-.49,182.2-4.2,334.14-28.81,468.21-50.52l1.09-.18c133.5-21.62,248.79-40.3,369.12-36.8,102.62,2.9,204.87,24.6,313.13,47.57,118.74,25.19,241.53,51.23,367.11,51.23,5.3,0,10.31,0,15.53-.1,128.62-2.2,259.16-32.46,374.33-59.15l.38-.09c103.06-23.94,200.4-46.56,282.66-46.56,137.79,0,244.17,25.86,356.85,53.26,129.66,31.57,276.62,67.34,496.55,67.34h1.6v-19.2h-1.5Z"/>
  </g>
</svg>